G04 #@! TF.GenerationSoftware,KiCad,Pcbnew,(5.1.5)-3*
G04 #@! TF.CreationDate,2020-09-02T12:15:22+02:00*
G04 #@! TF.ProjectId,mixer,6d697865-722e-46b6-9963-61645f706362,rev?*
G04 #@! TF.SameCoordinates,Original*
G04 #@! TF.FileFunction,Soldermask,Top*
G04 #@! TF.FilePolarity,Negative*
%FSLAX46Y46*%
G04 Gerber Fmt 4.6, Leading zero omitted, Abs format (unit mm)*
G04 Created by KiCad (PCBNEW (5.1.5)-3) date 2020-09-02 12:15:22*
%MOMM*%
%LPD*%
G04 APERTURE LIST*
%ADD10C,0.100000*%
G04 APERTURE END LIST*
D10*
G36*
X63694916Y-116978818D02*
G01*
X63801239Y-116999967D01*
X63920194Y-117049240D01*
X64082674Y-117116541D01*
X64101702Y-117124423D01*
X64372111Y-117305105D01*
X64602075Y-117535069D01*
X64782757Y-117805478D01*
X64907213Y-118105941D01*
X64970660Y-118424911D01*
X64970660Y-118750129D01*
X64907213Y-119069099D01*
X64782757Y-119369562D01*
X64602075Y-119639971D01*
X64372111Y-119869935D01*
X64101702Y-120050617D01*
X63801239Y-120175073D01*
X63694916Y-120196222D01*
X63482271Y-120238520D01*
X63157049Y-120238520D01*
X62944404Y-120196222D01*
X62838081Y-120175073D01*
X62537618Y-120050617D01*
X62267209Y-119869935D01*
X62037245Y-119639971D01*
X61856563Y-119369562D01*
X61732107Y-119069099D01*
X61668660Y-118750129D01*
X61668660Y-118424911D01*
X61732107Y-118105941D01*
X61856563Y-117805478D01*
X62037245Y-117535069D01*
X62267209Y-117305105D01*
X62537618Y-117124423D01*
X62556647Y-117116541D01*
X62719126Y-117049240D01*
X62838081Y-116999967D01*
X62944404Y-116978818D01*
X63157049Y-116936520D01*
X63482271Y-116936520D01*
X63694916Y-116978818D01*
G37*
G36*
X110388725Y-117079042D02*
G01*
X110538550Y-117108844D01*
X110820814Y-117225761D01*
X111074845Y-117395499D01*
X111290881Y-117611535D01*
X111460619Y-117865566D01*
X111577536Y-118147830D01*
X111577536Y-118147831D01*
X111632651Y-118424909D01*
X111637140Y-118447480D01*
X111637140Y-118753000D01*
X111577536Y-119052650D01*
X111460619Y-119334914D01*
X111290881Y-119588945D01*
X111074845Y-119804981D01*
X110820814Y-119974719D01*
X110538550Y-120091636D01*
X110388725Y-120121438D01*
X110238901Y-120151240D01*
X109933379Y-120151240D01*
X109783555Y-120121438D01*
X109633730Y-120091636D01*
X109351466Y-119974719D01*
X109097435Y-119804981D01*
X108881399Y-119588945D01*
X108711661Y-119334914D01*
X108594744Y-119052650D01*
X108535140Y-118753000D01*
X108535140Y-118447480D01*
X108539630Y-118424909D01*
X108594744Y-118147831D01*
X108594744Y-118147830D01*
X108711661Y-117865566D01*
X108881399Y-117611535D01*
X109097435Y-117395499D01*
X109351466Y-117225761D01*
X109633730Y-117108844D01*
X109783555Y-117079042D01*
X109933379Y-117049240D01*
X110238901Y-117049240D01*
X110388725Y-117079042D01*
G37*
G36*
X102388725Y-117079042D02*
G01*
X102538550Y-117108844D01*
X102820814Y-117225761D01*
X103074845Y-117395499D01*
X103290881Y-117611535D01*
X103460619Y-117865566D01*
X103577536Y-118147830D01*
X103577536Y-118147831D01*
X103632651Y-118424909D01*
X103637140Y-118447480D01*
X103637140Y-118753000D01*
X103577536Y-119052650D01*
X103460619Y-119334914D01*
X103290881Y-119588945D01*
X103074845Y-119804981D01*
X102820814Y-119974719D01*
X102538550Y-120091636D01*
X102388725Y-120121438D01*
X102238901Y-120151240D01*
X101933379Y-120151240D01*
X101783555Y-120121438D01*
X101633730Y-120091636D01*
X101351466Y-119974719D01*
X101097435Y-119804981D01*
X100881399Y-119588945D01*
X100711661Y-119334914D01*
X100594744Y-119052650D01*
X100535140Y-118753000D01*
X100535140Y-118447480D01*
X100539630Y-118424909D01*
X100594744Y-118147831D01*
X100594744Y-118147830D01*
X100711661Y-117865566D01*
X100881399Y-117611535D01*
X101097435Y-117395499D01*
X101351466Y-117225761D01*
X101633730Y-117108844D01*
X101783555Y-117079042D01*
X101933379Y-117049240D01*
X102238901Y-117049240D01*
X102388725Y-117079042D01*
G37*
G36*
X94388725Y-117079042D02*
G01*
X94538550Y-117108844D01*
X94820814Y-117225761D01*
X95074845Y-117395499D01*
X95290881Y-117611535D01*
X95460619Y-117865566D01*
X95577536Y-118147830D01*
X95577536Y-118147831D01*
X95632651Y-118424909D01*
X95637140Y-118447480D01*
X95637140Y-118753000D01*
X95577536Y-119052650D01*
X95460619Y-119334914D01*
X95290881Y-119588945D01*
X95074845Y-119804981D01*
X94820814Y-119974719D01*
X94538550Y-120091636D01*
X94388725Y-120121438D01*
X94238901Y-120151240D01*
X93933379Y-120151240D01*
X93783555Y-120121438D01*
X93633730Y-120091636D01*
X93351466Y-119974719D01*
X93097435Y-119804981D01*
X92881399Y-119588945D01*
X92711661Y-119334914D01*
X92594744Y-119052650D01*
X92535140Y-118753000D01*
X92535140Y-118447480D01*
X92539630Y-118424909D01*
X92594744Y-118147831D01*
X92594744Y-118147830D01*
X92711661Y-117865566D01*
X92881399Y-117611535D01*
X93097435Y-117395499D01*
X93351466Y-117225761D01*
X93633730Y-117108844D01*
X93783555Y-117079042D01*
X93933379Y-117049240D01*
X94238901Y-117049240D01*
X94388725Y-117079042D01*
G37*
G36*
X70116485Y-116969822D02*
G01*
X70266310Y-116999624D01*
X70548574Y-117116541D01*
X70802605Y-117286279D01*
X71018641Y-117502315D01*
X71188379Y-117756346D01*
X71305296Y-118038610D01*
X71364900Y-118338260D01*
X71364900Y-118643780D01*
X71305296Y-118943430D01*
X71188379Y-119225694D01*
X71018641Y-119479725D01*
X70802605Y-119695761D01*
X70548574Y-119865499D01*
X70266310Y-119982416D01*
X70116485Y-120012218D01*
X69966661Y-120042020D01*
X69661139Y-120042020D01*
X69511315Y-120012218D01*
X69361490Y-119982416D01*
X69079226Y-119865499D01*
X68825195Y-119695761D01*
X68609159Y-119479725D01*
X68439421Y-119225694D01*
X68322504Y-118943430D01*
X68262900Y-118643780D01*
X68262900Y-118338260D01*
X68322504Y-118038610D01*
X68439421Y-117756346D01*
X68609159Y-117502315D01*
X68825195Y-117286279D01*
X69079226Y-117116541D01*
X69361490Y-116999624D01*
X69511315Y-116969822D01*
X69661139Y-116940020D01*
X69966661Y-116940020D01*
X70116485Y-116969822D01*
G37*
G36*
X78116485Y-116969822D02*
G01*
X78266310Y-116999624D01*
X78548574Y-117116541D01*
X78802605Y-117286279D01*
X79018641Y-117502315D01*
X79188379Y-117756346D01*
X79305296Y-118038610D01*
X79364900Y-118338260D01*
X79364900Y-118643780D01*
X79305296Y-118943430D01*
X79188379Y-119225694D01*
X79018641Y-119479725D01*
X78802605Y-119695761D01*
X78548574Y-119865499D01*
X78266310Y-119982416D01*
X78116485Y-120012218D01*
X77966661Y-120042020D01*
X77661139Y-120042020D01*
X77511315Y-120012218D01*
X77361490Y-119982416D01*
X77079226Y-119865499D01*
X76825195Y-119695761D01*
X76609159Y-119479725D01*
X76439421Y-119225694D01*
X76322504Y-118943430D01*
X76262900Y-118643780D01*
X76262900Y-118338260D01*
X76322504Y-118038610D01*
X76439421Y-117756346D01*
X76609159Y-117502315D01*
X76825195Y-117286279D01*
X77079226Y-117116541D01*
X77361490Y-116999624D01*
X77511315Y-116969822D01*
X77661139Y-116940020D01*
X77966661Y-116940020D01*
X78116485Y-116969822D01*
G37*
G36*
X86116485Y-116969822D02*
G01*
X86266310Y-116999624D01*
X86548574Y-117116541D01*
X86802605Y-117286279D01*
X87018641Y-117502315D01*
X87188379Y-117756346D01*
X87305296Y-118038610D01*
X87364900Y-118338260D01*
X87364900Y-118643780D01*
X87305296Y-118943430D01*
X87188379Y-119225694D01*
X87018641Y-119479725D01*
X86802605Y-119695761D01*
X86548574Y-119865499D01*
X86266310Y-119982416D01*
X86116485Y-120012218D01*
X85966661Y-120042020D01*
X85661139Y-120042020D01*
X85511315Y-120012218D01*
X85361490Y-119982416D01*
X85079226Y-119865499D01*
X84825195Y-119695761D01*
X84609159Y-119479725D01*
X84439421Y-119225694D01*
X84322504Y-118943430D01*
X84262900Y-118643780D01*
X84262900Y-118338260D01*
X84322504Y-118038610D01*
X84439421Y-117756346D01*
X84609159Y-117502315D01*
X84825195Y-117286279D01*
X85079226Y-117116541D01*
X85361490Y-116999624D01*
X85511315Y-116969822D01*
X85661139Y-116940020D01*
X85966661Y-116940020D01*
X86116485Y-116969822D01*
G37*
G36*
X90325802Y-114713221D02*
G01*
X90360721Y-114723814D01*
X90392903Y-114741016D01*
X90421113Y-114764167D01*
X90444264Y-114792377D01*
X90461466Y-114824559D01*
X90472059Y-114859478D01*
X90476240Y-114901935D01*
X90476240Y-116043145D01*
X90472059Y-116085602D01*
X90461466Y-116120521D01*
X90444264Y-116152703D01*
X90421113Y-116180913D01*
X90392903Y-116204064D01*
X90360721Y-116221266D01*
X90325802Y-116231859D01*
X90283345Y-116236040D01*
X88817135Y-116236040D01*
X88774678Y-116231859D01*
X88739759Y-116221266D01*
X88707577Y-116204064D01*
X88679367Y-116180913D01*
X88656216Y-116152703D01*
X88639014Y-116120521D01*
X88628421Y-116085602D01*
X88624240Y-116043145D01*
X88624240Y-114901935D01*
X88628421Y-114859478D01*
X88639014Y-114824559D01*
X88656216Y-114792377D01*
X88679367Y-114764167D01*
X88707577Y-114741016D01*
X88739759Y-114723814D01*
X88774678Y-114713221D01*
X88817135Y-114709040D01*
X90283345Y-114709040D01*
X90325802Y-114713221D01*
G37*
G36*
X90325802Y-111738221D02*
G01*
X90360721Y-111748814D01*
X90392903Y-111766016D01*
X90421113Y-111789167D01*
X90444264Y-111817377D01*
X90461466Y-111849559D01*
X90472059Y-111884478D01*
X90476240Y-111926935D01*
X90476240Y-113068145D01*
X90472059Y-113110602D01*
X90461466Y-113145521D01*
X90444264Y-113177703D01*
X90421113Y-113205913D01*
X90392903Y-113229064D01*
X90360721Y-113246266D01*
X90325802Y-113256859D01*
X90283345Y-113261040D01*
X88817135Y-113261040D01*
X88774678Y-113256859D01*
X88739759Y-113246266D01*
X88707577Y-113229064D01*
X88679367Y-113205913D01*
X88656216Y-113177703D01*
X88639014Y-113145521D01*
X88628421Y-113110602D01*
X88624240Y-113068145D01*
X88624240Y-111926935D01*
X88628421Y-111884478D01*
X88639014Y-111849559D01*
X88656216Y-111817377D01*
X88679367Y-111789167D01*
X88707577Y-111766016D01*
X88739759Y-111748814D01*
X88774678Y-111738221D01*
X88817135Y-111734040D01*
X90283345Y-111734040D01*
X90325802Y-111738221D01*
G37*
G36*
X90325802Y-108911861D02*
G01*
X90360721Y-108922454D01*
X90392903Y-108939656D01*
X90421113Y-108962807D01*
X90444264Y-108991017D01*
X90461466Y-109023199D01*
X90472059Y-109058118D01*
X90476240Y-109100575D01*
X90476240Y-110241785D01*
X90472059Y-110284242D01*
X90461466Y-110319161D01*
X90444264Y-110351343D01*
X90421113Y-110379553D01*
X90392903Y-110402704D01*
X90360721Y-110419906D01*
X90325802Y-110430499D01*
X90283345Y-110434680D01*
X88817135Y-110434680D01*
X88774678Y-110430499D01*
X88739759Y-110419906D01*
X88707577Y-110402704D01*
X88679367Y-110379553D01*
X88656216Y-110351343D01*
X88639014Y-110319161D01*
X88628421Y-110284242D01*
X88624240Y-110241785D01*
X88624240Y-109100575D01*
X88628421Y-109058118D01*
X88639014Y-109023199D01*
X88656216Y-108991017D01*
X88679367Y-108962807D01*
X88707577Y-108939656D01*
X88739759Y-108922454D01*
X88774678Y-108911861D01*
X88817135Y-108907680D01*
X90283345Y-108907680D01*
X90325802Y-108911861D01*
G37*
G36*
X110388725Y-107079042D02*
G01*
X110538550Y-107108844D01*
X110820814Y-107225761D01*
X111074845Y-107395499D01*
X111290881Y-107611535D01*
X111460619Y-107865566D01*
X111577536Y-108147830D01*
X111637140Y-108447480D01*
X111637140Y-108753000D01*
X111577536Y-109052650D01*
X111460619Y-109334914D01*
X111290881Y-109588945D01*
X111074845Y-109804981D01*
X110820814Y-109974719D01*
X110538550Y-110091636D01*
X110388725Y-110121438D01*
X110238901Y-110151240D01*
X109933379Y-110151240D01*
X109783555Y-110121438D01*
X109633730Y-110091636D01*
X109351466Y-109974719D01*
X109097435Y-109804981D01*
X108881399Y-109588945D01*
X108711661Y-109334914D01*
X108594744Y-109052650D01*
X108535140Y-108753000D01*
X108535140Y-108447480D01*
X108594744Y-108147830D01*
X108711661Y-107865566D01*
X108881399Y-107611535D01*
X109097435Y-107395499D01*
X109351466Y-107225761D01*
X109633730Y-107108844D01*
X109783555Y-107079042D01*
X109933379Y-107049240D01*
X110238901Y-107049240D01*
X110388725Y-107079042D01*
G37*
G36*
X94388725Y-107079042D02*
G01*
X94538550Y-107108844D01*
X94820814Y-107225761D01*
X95074845Y-107395499D01*
X95290881Y-107611535D01*
X95460619Y-107865566D01*
X95577536Y-108147830D01*
X95637140Y-108447480D01*
X95637140Y-108753000D01*
X95577536Y-109052650D01*
X95460619Y-109334914D01*
X95290881Y-109588945D01*
X95074845Y-109804981D01*
X94820814Y-109974719D01*
X94538550Y-110091636D01*
X94388725Y-110121438D01*
X94238901Y-110151240D01*
X93933379Y-110151240D01*
X93783555Y-110121438D01*
X93633730Y-110091636D01*
X93351466Y-109974719D01*
X93097435Y-109804981D01*
X92881399Y-109588945D01*
X92711661Y-109334914D01*
X92594744Y-109052650D01*
X92535140Y-108753000D01*
X92535140Y-108447480D01*
X92594744Y-108147830D01*
X92711661Y-107865566D01*
X92881399Y-107611535D01*
X93097435Y-107395499D01*
X93351466Y-107225761D01*
X93633730Y-107108844D01*
X93783555Y-107079042D01*
X93933379Y-107049240D01*
X94238901Y-107049240D01*
X94388725Y-107079042D01*
G37*
G36*
X86116485Y-106969822D02*
G01*
X86266310Y-106999624D01*
X86548574Y-107116541D01*
X86802605Y-107286279D01*
X87018641Y-107502315D01*
X87188379Y-107756346D01*
X87305296Y-108038610D01*
X87364900Y-108338260D01*
X87364900Y-108643780D01*
X87305296Y-108943430D01*
X87188379Y-109225694D01*
X87018641Y-109479725D01*
X86802605Y-109695761D01*
X86548574Y-109865499D01*
X86266310Y-109982416D01*
X86116485Y-110012218D01*
X85966661Y-110042020D01*
X85661139Y-110042020D01*
X85511315Y-110012218D01*
X85361490Y-109982416D01*
X85079226Y-109865499D01*
X84825195Y-109695761D01*
X84609159Y-109479725D01*
X84439421Y-109225694D01*
X84322504Y-108943430D01*
X84262900Y-108643780D01*
X84262900Y-108338260D01*
X84322504Y-108038610D01*
X84439421Y-107756346D01*
X84609159Y-107502315D01*
X84825195Y-107286279D01*
X85079226Y-107116541D01*
X85361490Y-106999624D01*
X85511315Y-106969822D01*
X85661139Y-106940020D01*
X85966661Y-106940020D01*
X86116485Y-106969822D01*
G37*
G36*
X70116485Y-106969822D02*
G01*
X70266310Y-106999624D01*
X70548574Y-107116541D01*
X70802605Y-107286279D01*
X71018641Y-107502315D01*
X71188379Y-107756346D01*
X71305296Y-108038610D01*
X71364900Y-108338260D01*
X71364900Y-108643780D01*
X71305296Y-108943430D01*
X71188379Y-109225694D01*
X71018641Y-109479725D01*
X70802605Y-109695761D01*
X70548574Y-109865499D01*
X70266310Y-109982416D01*
X70116485Y-110012218D01*
X69966661Y-110042020D01*
X69661139Y-110042020D01*
X69511315Y-110012218D01*
X69361490Y-109982416D01*
X69079226Y-109865499D01*
X68825195Y-109695761D01*
X68609159Y-109479725D01*
X68439421Y-109225694D01*
X68322504Y-108943430D01*
X68262900Y-108643780D01*
X68262900Y-108338260D01*
X68322504Y-108038610D01*
X68439421Y-107756346D01*
X68609159Y-107502315D01*
X68825195Y-107286279D01*
X69079226Y-107116541D01*
X69361490Y-106999624D01*
X69511315Y-106969822D01*
X69661139Y-106940020D01*
X69966661Y-106940020D01*
X70116485Y-106969822D01*
G37*
G36*
X90325802Y-105936861D02*
G01*
X90360721Y-105947454D01*
X90392903Y-105964656D01*
X90421113Y-105987807D01*
X90444264Y-106016017D01*
X90461466Y-106048199D01*
X90472059Y-106083118D01*
X90476240Y-106125575D01*
X90476240Y-107266785D01*
X90472059Y-107309242D01*
X90461466Y-107344161D01*
X90444264Y-107376343D01*
X90421113Y-107404553D01*
X90392903Y-107427704D01*
X90360721Y-107444906D01*
X90325802Y-107455499D01*
X90283345Y-107459680D01*
X88817135Y-107459680D01*
X88774678Y-107455499D01*
X88739759Y-107444906D01*
X88707577Y-107427704D01*
X88679367Y-107404553D01*
X88656216Y-107376343D01*
X88639014Y-107344161D01*
X88628421Y-107309242D01*
X88624240Y-107266785D01*
X88624240Y-106125575D01*
X88628421Y-106083118D01*
X88639014Y-106048199D01*
X88656216Y-106016017D01*
X88679367Y-105987807D01*
X88707577Y-105964656D01*
X88739759Y-105947454D01*
X88774678Y-105936861D01*
X88817135Y-105932680D01*
X90283345Y-105932680D01*
X90325802Y-105936861D01*
G37*
G36*
X96843065Y-101122846D02*
G01*
X97033390Y-101160704D01*
X97315654Y-101277621D01*
X97569685Y-101447359D01*
X97785721Y-101663395D01*
X97955459Y-101917426D01*
X98072376Y-102199690D01*
X98131980Y-102499340D01*
X98131980Y-102804860D01*
X98072376Y-103104510D01*
X97955459Y-103386774D01*
X97785721Y-103640805D01*
X97569685Y-103856841D01*
X97315654Y-104026579D01*
X97033390Y-104143496D01*
X96883565Y-104173298D01*
X96733741Y-104203100D01*
X96428219Y-104203100D01*
X96278395Y-104173298D01*
X96128570Y-104143496D01*
X95846306Y-104026579D01*
X95592275Y-103856841D01*
X95376239Y-103640805D01*
X95206501Y-103386774D01*
X95089584Y-103104510D01*
X95029980Y-102804860D01*
X95029980Y-102499340D01*
X95089584Y-102199690D01*
X95206501Y-101917426D01*
X95376239Y-101663395D01*
X95592275Y-101447359D01*
X95846306Y-101277621D01*
X96128570Y-101160704D01*
X96318895Y-101122846D01*
X96428219Y-101101100D01*
X96733741Y-101101100D01*
X96843065Y-101122846D01*
G37*
G36*
X73835745Y-101122846D02*
G01*
X74026070Y-101160704D01*
X74308334Y-101277621D01*
X74562365Y-101447359D01*
X74778401Y-101663395D01*
X74948139Y-101917426D01*
X75065056Y-102199690D01*
X75124660Y-102499340D01*
X75124660Y-102804860D01*
X75065056Y-103104510D01*
X74948139Y-103386774D01*
X74778401Y-103640805D01*
X74562365Y-103856841D01*
X74308334Y-104026579D01*
X74026070Y-104143496D01*
X73876245Y-104173298D01*
X73726421Y-104203100D01*
X73420899Y-104203100D01*
X73271075Y-104173298D01*
X73121250Y-104143496D01*
X72838986Y-104026579D01*
X72584955Y-103856841D01*
X72368919Y-103640805D01*
X72199181Y-103386774D01*
X72082264Y-103104510D01*
X72022660Y-102804860D01*
X72022660Y-102499340D01*
X72082264Y-102199690D01*
X72199181Y-101917426D01*
X72368919Y-101663395D01*
X72584955Y-101447359D01*
X72838986Y-101277621D01*
X73121250Y-101160704D01*
X73311575Y-101122846D01*
X73420899Y-101101100D01*
X73726421Y-101101100D01*
X73835745Y-101122846D01*
G37*
G36*
X86843065Y-101122846D02*
G01*
X87033390Y-101160704D01*
X87315654Y-101277621D01*
X87569685Y-101447359D01*
X87785721Y-101663395D01*
X87955459Y-101917426D01*
X88072376Y-102199690D01*
X88131980Y-102499340D01*
X88131980Y-102804860D01*
X88072376Y-103104510D01*
X87955459Y-103386774D01*
X87785721Y-103640805D01*
X87569685Y-103856841D01*
X87315654Y-104026579D01*
X87033390Y-104143496D01*
X86883565Y-104173298D01*
X86733741Y-104203100D01*
X86428219Y-104203100D01*
X86278395Y-104173298D01*
X86128570Y-104143496D01*
X85846306Y-104026579D01*
X85592275Y-103856841D01*
X85376239Y-103640805D01*
X85206501Y-103386774D01*
X85089584Y-103104510D01*
X85029980Y-102804860D01*
X85029980Y-102499340D01*
X85089584Y-102199690D01*
X85206501Y-101917426D01*
X85376239Y-101663395D01*
X85592275Y-101447359D01*
X85846306Y-101277621D01*
X86128570Y-101160704D01*
X86318895Y-101122846D01*
X86428219Y-101101100D01*
X86733741Y-101101100D01*
X86843065Y-101122846D01*
G37*
G36*
X63835745Y-101122846D02*
G01*
X64026070Y-101160704D01*
X64308334Y-101277621D01*
X64562365Y-101447359D01*
X64778401Y-101663395D01*
X64948139Y-101917426D01*
X65065056Y-102199690D01*
X65124660Y-102499340D01*
X65124660Y-102804860D01*
X65065056Y-103104510D01*
X64948139Y-103386774D01*
X64778401Y-103640805D01*
X64562365Y-103856841D01*
X64308334Y-104026579D01*
X64026070Y-104143496D01*
X63876245Y-104173298D01*
X63726421Y-104203100D01*
X63420899Y-104203100D01*
X63271075Y-104173298D01*
X63121250Y-104143496D01*
X62838986Y-104026579D01*
X62584955Y-103856841D01*
X62368919Y-103640805D01*
X62199181Y-103386774D01*
X62082264Y-103104510D01*
X62022660Y-102804860D01*
X62022660Y-102499340D01*
X62082264Y-102199690D01*
X62199181Y-101917426D01*
X62368919Y-101663395D01*
X62584955Y-101447359D01*
X62838986Y-101277621D01*
X63121250Y-101160704D01*
X63311575Y-101122846D01*
X63420899Y-101101100D01*
X63726421Y-101101100D01*
X63835745Y-101122846D01*
G37*
G36*
X102710842Y-102630441D02*
G01*
X102745761Y-102641034D01*
X102777943Y-102658236D01*
X102806153Y-102681387D01*
X102829304Y-102709597D01*
X102846506Y-102741779D01*
X102857099Y-102776698D01*
X102861280Y-102819155D01*
X102861280Y-103960365D01*
X102857099Y-104002822D01*
X102846506Y-104037741D01*
X102829304Y-104069923D01*
X102806153Y-104098133D01*
X102777943Y-104121284D01*
X102745761Y-104138486D01*
X102710842Y-104149079D01*
X102668385Y-104153260D01*
X101202175Y-104153260D01*
X101159718Y-104149079D01*
X101124799Y-104138486D01*
X101092617Y-104121284D01*
X101064407Y-104098133D01*
X101041256Y-104069923D01*
X101024054Y-104037741D01*
X101013461Y-104002822D01*
X101009280Y-103960365D01*
X101009280Y-102819155D01*
X101013461Y-102776698D01*
X101024054Y-102741779D01*
X101041256Y-102709597D01*
X101064407Y-102681387D01*
X101092617Y-102658236D01*
X101124799Y-102641034D01*
X101159718Y-102630441D01*
X101202175Y-102626260D01*
X102668385Y-102626260D01*
X102710842Y-102630441D01*
G37*
G36*
X106315102Y-102589801D02*
G01*
X106350021Y-102600394D01*
X106382203Y-102617596D01*
X106410413Y-102640747D01*
X106433564Y-102668957D01*
X106450766Y-102701139D01*
X106461359Y-102736058D01*
X106465540Y-102778515D01*
X106465540Y-103919725D01*
X106461359Y-103962182D01*
X106450766Y-103997101D01*
X106433564Y-104029283D01*
X106410413Y-104057493D01*
X106382203Y-104080644D01*
X106350021Y-104097846D01*
X106315102Y-104108439D01*
X106272645Y-104112620D01*
X104806435Y-104112620D01*
X104763978Y-104108439D01*
X104729059Y-104097846D01*
X104696877Y-104080644D01*
X104668667Y-104057493D01*
X104645516Y-104029283D01*
X104628314Y-103997101D01*
X104617721Y-103962182D01*
X104613540Y-103919725D01*
X104613540Y-102778515D01*
X104617721Y-102736058D01*
X104628314Y-102701139D01*
X104645516Y-102668957D01*
X104668667Y-102640747D01*
X104696877Y-102617596D01*
X104729059Y-102600394D01*
X104763978Y-102589801D01*
X104806435Y-102585620D01*
X106272645Y-102585620D01*
X106315102Y-102589801D01*
G37*
G36*
X102710842Y-99655441D02*
G01*
X102745761Y-99666034D01*
X102777943Y-99683236D01*
X102806153Y-99706387D01*
X102829304Y-99734597D01*
X102846506Y-99766779D01*
X102857099Y-99801698D01*
X102861280Y-99844155D01*
X102861280Y-100985365D01*
X102857099Y-101027822D01*
X102846506Y-101062741D01*
X102829304Y-101094923D01*
X102806153Y-101123133D01*
X102777943Y-101146284D01*
X102745761Y-101163486D01*
X102710842Y-101174079D01*
X102668385Y-101178260D01*
X101202175Y-101178260D01*
X101159718Y-101174079D01*
X101124799Y-101163486D01*
X101092617Y-101146284D01*
X101064407Y-101123133D01*
X101041256Y-101094923D01*
X101024054Y-101062741D01*
X101013461Y-101027822D01*
X101009280Y-100985365D01*
X101009280Y-99844155D01*
X101013461Y-99801698D01*
X101024054Y-99766779D01*
X101041256Y-99734597D01*
X101064407Y-99706387D01*
X101092617Y-99683236D01*
X101124799Y-99666034D01*
X101159718Y-99655441D01*
X101202175Y-99651260D01*
X102668385Y-99651260D01*
X102710842Y-99655441D01*
G37*
G36*
X106315102Y-99614801D02*
G01*
X106350021Y-99625394D01*
X106382203Y-99642596D01*
X106410413Y-99665747D01*
X106433564Y-99693957D01*
X106450766Y-99726139D01*
X106461359Y-99761058D01*
X106465540Y-99803515D01*
X106465540Y-100944725D01*
X106461359Y-100987182D01*
X106450766Y-101022101D01*
X106433564Y-101054283D01*
X106410413Y-101082493D01*
X106382203Y-101105644D01*
X106350021Y-101122846D01*
X106315102Y-101133439D01*
X106272645Y-101137620D01*
X104806435Y-101137620D01*
X104763978Y-101133439D01*
X104729059Y-101122846D01*
X104696877Y-101105644D01*
X104668667Y-101082493D01*
X104645516Y-101054283D01*
X104628314Y-101022101D01*
X104617721Y-100987182D01*
X104613540Y-100944725D01*
X104613540Y-99803515D01*
X104617721Y-99761058D01*
X104628314Y-99726139D01*
X104645516Y-99693957D01*
X104668667Y-99665747D01*
X104696877Y-99642596D01*
X104729059Y-99625394D01*
X104763978Y-99614801D01*
X104806435Y-99610620D01*
X106272645Y-99610620D01*
X106315102Y-99614801D01*
G37*
G36*
X102774342Y-96841781D02*
G01*
X102809261Y-96852374D01*
X102841443Y-96869576D01*
X102869653Y-96892727D01*
X102892804Y-96920937D01*
X102910006Y-96953119D01*
X102920599Y-96988038D01*
X102924780Y-97030495D01*
X102924780Y-98171705D01*
X102920599Y-98214162D01*
X102910006Y-98249081D01*
X102892804Y-98281263D01*
X102869653Y-98309473D01*
X102841443Y-98332624D01*
X102809261Y-98349826D01*
X102774342Y-98360419D01*
X102731885Y-98364600D01*
X101265675Y-98364600D01*
X101223218Y-98360419D01*
X101188299Y-98349826D01*
X101156117Y-98332624D01*
X101127907Y-98309473D01*
X101104756Y-98281263D01*
X101087554Y-98249081D01*
X101076961Y-98214162D01*
X101072780Y-98171705D01*
X101072780Y-97030495D01*
X101076961Y-96988038D01*
X101087554Y-96953119D01*
X101104756Y-96920937D01*
X101127907Y-96892727D01*
X101156117Y-96869576D01*
X101188299Y-96852374D01*
X101223218Y-96841781D01*
X101265675Y-96837600D01*
X102731885Y-96837600D01*
X102774342Y-96841781D01*
G37*
G36*
X80656580Y-97581580D02*
G01*
X79754580Y-97581580D01*
X79754580Y-96579580D01*
X80656580Y-96579580D01*
X80656580Y-97581580D01*
G37*
G36*
X73876245Y-93130902D02*
G01*
X74026070Y-93160704D01*
X74308334Y-93277621D01*
X74562365Y-93447359D01*
X74778401Y-93663395D01*
X74948139Y-93917426D01*
X75065056Y-94199690D01*
X75124660Y-94499340D01*
X75124660Y-94804860D01*
X75065056Y-95104510D01*
X74948139Y-95386774D01*
X74778401Y-95640805D01*
X74562365Y-95856841D01*
X74308334Y-96026579D01*
X74026070Y-96143496D01*
X73876245Y-96173298D01*
X73726421Y-96203100D01*
X73420899Y-96203100D01*
X73271075Y-96173298D01*
X73121250Y-96143496D01*
X72838986Y-96026579D01*
X72584955Y-95856841D01*
X72368919Y-95640805D01*
X72199181Y-95386774D01*
X72082264Y-95104510D01*
X72022660Y-94804860D01*
X72022660Y-94499340D01*
X72082264Y-94199690D01*
X72199181Y-93917426D01*
X72368919Y-93663395D01*
X72584955Y-93447359D01*
X72838986Y-93277621D01*
X73121250Y-93160704D01*
X73271075Y-93130902D01*
X73420899Y-93101100D01*
X73726421Y-93101100D01*
X73876245Y-93130902D01*
G37*
G36*
X96883565Y-93130902D02*
G01*
X97033390Y-93160704D01*
X97315654Y-93277621D01*
X97569685Y-93447359D01*
X97785721Y-93663395D01*
X97955459Y-93917426D01*
X98072376Y-94199690D01*
X98131980Y-94499340D01*
X98131980Y-94804860D01*
X98072376Y-95104510D01*
X97955459Y-95386774D01*
X97785721Y-95640805D01*
X97569685Y-95856841D01*
X97315654Y-96026579D01*
X97033390Y-96143496D01*
X96883565Y-96173298D01*
X96733741Y-96203100D01*
X96428219Y-96203100D01*
X96278395Y-96173298D01*
X96128570Y-96143496D01*
X95846306Y-96026579D01*
X95592275Y-95856841D01*
X95376239Y-95640805D01*
X95206501Y-95386774D01*
X95089584Y-95104510D01*
X95029980Y-94804860D01*
X95029980Y-94499340D01*
X95089584Y-94199690D01*
X95206501Y-93917426D01*
X95376239Y-93663395D01*
X95592275Y-93447359D01*
X95846306Y-93277621D01*
X96128570Y-93160704D01*
X96278395Y-93130902D01*
X96428219Y-93101100D01*
X96733741Y-93101100D01*
X96883565Y-93130902D01*
G37*
G36*
X81606580Y-95581580D02*
G01*
X80704580Y-95581580D01*
X80704580Y-94579580D01*
X81606580Y-94579580D01*
X81606580Y-95581580D01*
G37*
G36*
X79706580Y-95581580D02*
G01*
X78804580Y-95581580D01*
X78804580Y-94579580D01*
X79706580Y-94579580D01*
X79706580Y-95581580D01*
G37*
G36*
X102774342Y-93866781D02*
G01*
X102809261Y-93877374D01*
X102841443Y-93894576D01*
X102869653Y-93917727D01*
X102892804Y-93945937D01*
X102910006Y-93978119D01*
X102920599Y-94013038D01*
X102924780Y-94055495D01*
X102924780Y-95196705D01*
X102920599Y-95239162D01*
X102910006Y-95274081D01*
X102892804Y-95306263D01*
X102869653Y-95334473D01*
X102841443Y-95357624D01*
X102809261Y-95374826D01*
X102774342Y-95385419D01*
X102731885Y-95389600D01*
X101265675Y-95389600D01*
X101223218Y-95385419D01*
X101188299Y-95374826D01*
X101156117Y-95357624D01*
X101127907Y-95334473D01*
X101104756Y-95306263D01*
X101087554Y-95274081D01*
X101076961Y-95239162D01*
X101072780Y-95196705D01*
X101072780Y-94055495D01*
X101076961Y-94013038D01*
X101087554Y-93978119D01*
X101104756Y-93945937D01*
X101127907Y-93917727D01*
X101156117Y-93894576D01*
X101188299Y-93877374D01*
X101223218Y-93866781D01*
X101265675Y-93862600D01*
X102731885Y-93862600D01*
X102774342Y-93866781D01*
G37*
G36*
X110806020Y-92344084D02*
G01*
X110957487Y-92374213D01*
X111171505Y-92462862D01*
X111171506Y-92462863D01*
X111364114Y-92591559D01*
X111527921Y-92755366D01*
X111613718Y-92883771D01*
X111656618Y-92947975D01*
X111745267Y-93161993D01*
X111745267Y-93161995D01*
X111790460Y-93389193D01*
X111790460Y-93620847D01*
X111781996Y-93663396D01*
X111745267Y-93848047D01*
X111656618Y-94062065D01*
X111656617Y-94062066D01*
X111527921Y-94254674D01*
X111364114Y-94418481D01*
X111243101Y-94499339D01*
X111171505Y-94547178D01*
X110957487Y-94635827D01*
X110806020Y-94665956D01*
X110730287Y-94681020D01*
X110498633Y-94681020D01*
X110422900Y-94665956D01*
X110271433Y-94635827D01*
X110057415Y-94547178D01*
X109985819Y-94499339D01*
X109864806Y-94418481D01*
X109700999Y-94254674D01*
X109572303Y-94062066D01*
X109572302Y-94062065D01*
X109483653Y-93848047D01*
X109446924Y-93663396D01*
X109438460Y-93620847D01*
X109438460Y-93389193D01*
X109483653Y-93161995D01*
X109483653Y-93161993D01*
X109572302Y-92947975D01*
X109615202Y-92883771D01*
X109700999Y-92755366D01*
X109864806Y-92591559D01*
X110057414Y-92462863D01*
X110057415Y-92462862D01*
X110271433Y-92374213D01*
X110422900Y-92344084D01*
X110498633Y-92329020D01*
X110730287Y-92329020D01*
X110806020Y-92344084D01*
G37*
G36*
X105726020Y-92344084D02*
G01*
X105877487Y-92374213D01*
X106091505Y-92462862D01*
X106091506Y-92462863D01*
X106284114Y-92591559D01*
X106447921Y-92755366D01*
X106533718Y-92883771D01*
X106576618Y-92947975D01*
X106665267Y-93161993D01*
X106665267Y-93161995D01*
X106710460Y-93389193D01*
X106710460Y-93620847D01*
X106701996Y-93663396D01*
X106665267Y-93848047D01*
X106576618Y-94062065D01*
X106576617Y-94062066D01*
X106447921Y-94254674D01*
X106284114Y-94418481D01*
X106163101Y-94499339D01*
X106091505Y-94547178D01*
X105877487Y-94635827D01*
X105726020Y-94665956D01*
X105650287Y-94681020D01*
X105418633Y-94681020D01*
X105342900Y-94665956D01*
X105191433Y-94635827D01*
X104977415Y-94547178D01*
X104905819Y-94499339D01*
X104784806Y-94418481D01*
X104620999Y-94254674D01*
X104492303Y-94062066D01*
X104492302Y-94062065D01*
X104403653Y-93848047D01*
X104366924Y-93663396D01*
X104358460Y-93620847D01*
X104358460Y-93389193D01*
X104403653Y-93161995D01*
X104403653Y-93161993D01*
X104492302Y-92947975D01*
X104535202Y-92883771D01*
X104620999Y-92755366D01*
X104784806Y-92591559D01*
X104977414Y-92462863D01*
X104977415Y-92462862D01*
X105191433Y-92374213D01*
X105342900Y-92344084D01*
X105418633Y-92329020D01*
X105650287Y-92329020D01*
X105726020Y-92344084D01*
G37*
G36*
X79747220Y-92059620D02*
G01*
X78845220Y-92059620D01*
X78845220Y-91057620D01*
X79747220Y-91057620D01*
X79747220Y-92059620D01*
G37*
G36*
X81647220Y-92059620D02*
G01*
X80745220Y-92059620D01*
X80745220Y-91057620D01*
X81647220Y-91057620D01*
X81647220Y-92059620D01*
G37*
G36*
X108249731Y-89902803D02*
G01*
X108388318Y-89930370D01*
X108584137Y-90011481D01*
X108760370Y-90129236D01*
X108910244Y-90279110D01*
X109027999Y-90455343D01*
X109109110Y-90651162D01*
X109150460Y-90859043D01*
X109150460Y-91070997D01*
X109109110Y-91278878D01*
X109027999Y-91474697D01*
X108910244Y-91650930D01*
X108760370Y-91800804D01*
X108584137Y-91918559D01*
X108388318Y-91999670D01*
X108249731Y-92027237D01*
X108180438Y-92041020D01*
X107968482Y-92041020D01*
X107899189Y-92027237D01*
X107760602Y-91999670D01*
X107564783Y-91918559D01*
X107388550Y-91800804D01*
X107238676Y-91650930D01*
X107120921Y-91474697D01*
X107039810Y-91278878D01*
X106998460Y-91070997D01*
X106998460Y-90859043D01*
X107039810Y-90651162D01*
X107120921Y-90455343D01*
X107238676Y-90279110D01*
X107388550Y-90129236D01*
X107564783Y-90011481D01*
X107760602Y-89930370D01*
X107899189Y-89902803D01*
X107968482Y-89889020D01*
X108180438Y-89889020D01*
X108249731Y-89902803D01*
G37*
G36*
X80697220Y-90059620D02*
G01*
X79795220Y-90059620D01*
X79795220Y-89057620D01*
X80697220Y-89057620D01*
X80697220Y-90059620D01*
G37*
G36*
X110806020Y-87264084D02*
G01*
X110957487Y-87294213D01*
X111171505Y-87382862D01*
X111235709Y-87425762D01*
X111364114Y-87511559D01*
X111527921Y-87675366D01*
X111613718Y-87803771D01*
X111656618Y-87867975D01*
X111745267Y-88081993D01*
X111790460Y-88309194D01*
X111790460Y-88540846D01*
X111745267Y-88768047D01*
X111656618Y-88982065D01*
X111656617Y-88982066D01*
X111527921Y-89174674D01*
X111364114Y-89338481D01*
X111235709Y-89424278D01*
X111171505Y-89467178D01*
X110957487Y-89555827D01*
X110806020Y-89585956D01*
X110730287Y-89601020D01*
X110498633Y-89601020D01*
X110422900Y-89585956D01*
X110271433Y-89555827D01*
X110057415Y-89467178D01*
X109993211Y-89424278D01*
X109864806Y-89338481D01*
X109700999Y-89174674D01*
X109572303Y-88982066D01*
X109572302Y-88982065D01*
X109483653Y-88768047D01*
X109438460Y-88540846D01*
X109438460Y-88309194D01*
X109483653Y-88081993D01*
X109572302Y-87867975D01*
X109615202Y-87803771D01*
X109700999Y-87675366D01*
X109864806Y-87511559D01*
X109993211Y-87425762D01*
X110057415Y-87382862D01*
X110271433Y-87294213D01*
X110422900Y-87264084D01*
X110498633Y-87249020D01*
X110730287Y-87249020D01*
X110806020Y-87264084D01*
G37*
G36*
X105726020Y-87264084D02*
G01*
X105877487Y-87294213D01*
X106091505Y-87382862D01*
X106155709Y-87425762D01*
X106284114Y-87511559D01*
X106447921Y-87675366D01*
X106533718Y-87803771D01*
X106576618Y-87867975D01*
X106665267Y-88081993D01*
X106710460Y-88309194D01*
X106710460Y-88540846D01*
X106665267Y-88768047D01*
X106576618Y-88982065D01*
X106576617Y-88982066D01*
X106447921Y-89174674D01*
X106284114Y-89338481D01*
X106155709Y-89424278D01*
X106091505Y-89467178D01*
X105877487Y-89555827D01*
X105726020Y-89585956D01*
X105650287Y-89601020D01*
X105418633Y-89601020D01*
X105342900Y-89585956D01*
X105191433Y-89555827D01*
X104977415Y-89467178D01*
X104913211Y-89424278D01*
X104784806Y-89338481D01*
X104620999Y-89174674D01*
X104492303Y-88982066D01*
X104492302Y-88982065D01*
X104403653Y-88768047D01*
X104358460Y-88540846D01*
X104358460Y-88309194D01*
X104403653Y-88081993D01*
X104492302Y-87867975D01*
X104535202Y-87803771D01*
X104620999Y-87675366D01*
X104784806Y-87511559D01*
X104913211Y-87425762D01*
X104977415Y-87382862D01*
X105191433Y-87294213D01*
X105342900Y-87264084D01*
X105418633Y-87249020D01*
X105650287Y-87249020D01*
X105726020Y-87264084D01*
G37*
G36*
X86883565Y-85130902D02*
G01*
X87033390Y-85160704D01*
X87315654Y-85277621D01*
X87569685Y-85447359D01*
X87785721Y-85663395D01*
X87955459Y-85917426D01*
X88072376Y-86199690D01*
X88131980Y-86499340D01*
X88131980Y-86804860D01*
X88072376Y-87104510D01*
X87955459Y-87386774D01*
X87785721Y-87640805D01*
X87569685Y-87856841D01*
X87315654Y-88026579D01*
X87033390Y-88143496D01*
X86883565Y-88173298D01*
X86733741Y-88203100D01*
X86428219Y-88203100D01*
X86278395Y-88173298D01*
X86128570Y-88143496D01*
X85846306Y-88026579D01*
X85592275Y-87856841D01*
X85376239Y-87640805D01*
X85206501Y-87386774D01*
X85089584Y-87104510D01*
X85029980Y-86804860D01*
X85029980Y-86499340D01*
X85089584Y-86199690D01*
X85206501Y-85917426D01*
X85376239Y-85663395D01*
X85592275Y-85447359D01*
X85846306Y-85277621D01*
X86128570Y-85160704D01*
X86278395Y-85130902D01*
X86428219Y-85101100D01*
X86733741Y-85101100D01*
X86883565Y-85130902D01*
G37*
G36*
X63876245Y-85130902D02*
G01*
X64026070Y-85160704D01*
X64308334Y-85277621D01*
X64562365Y-85447359D01*
X64778401Y-85663395D01*
X64948139Y-85917426D01*
X65065056Y-86199690D01*
X65124660Y-86499340D01*
X65124660Y-86804860D01*
X65065056Y-87104510D01*
X64948139Y-87386774D01*
X64778401Y-87640805D01*
X64562365Y-87856841D01*
X64308334Y-88026579D01*
X64026070Y-88143496D01*
X63876245Y-88173298D01*
X63726421Y-88203100D01*
X63420899Y-88203100D01*
X63271075Y-88173298D01*
X63121250Y-88143496D01*
X62838986Y-88026579D01*
X62584955Y-87856841D01*
X62368919Y-87640805D01*
X62199181Y-87386774D01*
X62082264Y-87104510D01*
X62022660Y-86804860D01*
X62022660Y-86499340D01*
X62082264Y-86199690D01*
X62199181Y-85917426D01*
X62368919Y-85663395D01*
X62584955Y-85447359D01*
X62838986Y-85277621D01*
X63121250Y-85160704D01*
X63271075Y-85130902D01*
X63420899Y-85101100D01*
X63726421Y-85101100D01*
X63876245Y-85130902D01*
G37*
G36*
X96883565Y-85130902D02*
G01*
X97033390Y-85160704D01*
X97315654Y-85277621D01*
X97569685Y-85447359D01*
X97785721Y-85663395D01*
X97955459Y-85917426D01*
X98072376Y-86199690D01*
X98131980Y-86499340D01*
X98131980Y-86804860D01*
X98072376Y-87104510D01*
X97955459Y-87386774D01*
X97785721Y-87640805D01*
X97569685Y-87856841D01*
X97315654Y-88026579D01*
X97033390Y-88143496D01*
X96883565Y-88173298D01*
X96733741Y-88203100D01*
X96428219Y-88203100D01*
X96278395Y-88173298D01*
X96128570Y-88143496D01*
X95846306Y-88026579D01*
X95592275Y-87856841D01*
X95376239Y-87640805D01*
X95206501Y-87386774D01*
X95089584Y-87104510D01*
X95029980Y-86804860D01*
X95029980Y-86499340D01*
X95089584Y-86199690D01*
X95206501Y-85917426D01*
X95376239Y-85663395D01*
X95592275Y-85447359D01*
X95846306Y-85277621D01*
X96128570Y-85160704D01*
X96278395Y-85130902D01*
X96428219Y-85101100D01*
X96733741Y-85101100D01*
X96883565Y-85130902D01*
G37*
G36*
X73876245Y-85130902D02*
G01*
X74026070Y-85160704D01*
X74308334Y-85277621D01*
X74562365Y-85447359D01*
X74778401Y-85663395D01*
X74948139Y-85917426D01*
X75065056Y-86199690D01*
X75124660Y-86499340D01*
X75124660Y-86804860D01*
X75065056Y-87104510D01*
X74948139Y-87386774D01*
X74778401Y-87640805D01*
X74562365Y-87856841D01*
X74308334Y-88026579D01*
X74026070Y-88143496D01*
X73876245Y-88173298D01*
X73726421Y-88203100D01*
X73420899Y-88203100D01*
X73271075Y-88173298D01*
X73121250Y-88143496D01*
X72838986Y-88026579D01*
X72584955Y-87856841D01*
X72368919Y-87640805D01*
X72199181Y-87386774D01*
X72082264Y-87104510D01*
X72022660Y-86804860D01*
X72022660Y-86499340D01*
X72082264Y-86199690D01*
X72199181Y-85917426D01*
X72368919Y-85663395D01*
X72584955Y-85447359D01*
X72838986Y-85277621D01*
X73121250Y-85160704D01*
X73271075Y-85130902D01*
X73420899Y-85101100D01*
X73726421Y-85101100D01*
X73876245Y-85130902D01*
G37*
G36*
X70670562Y-82178181D02*
G01*
X70705481Y-82188774D01*
X70737663Y-82205976D01*
X70765873Y-82229127D01*
X70789024Y-82257337D01*
X70806226Y-82289519D01*
X70816819Y-82324438D01*
X70821000Y-82366895D01*
X70821000Y-83833105D01*
X70816819Y-83875562D01*
X70806226Y-83910481D01*
X70789024Y-83942663D01*
X70765873Y-83970873D01*
X70737663Y-83994024D01*
X70705481Y-84011226D01*
X70670562Y-84021819D01*
X70628105Y-84026000D01*
X69486895Y-84026000D01*
X69444438Y-84021819D01*
X69409519Y-84011226D01*
X69377337Y-83994024D01*
X69349127Y-83970873D01*
X69325976Y-83942663D01*
X69308774Y-83910481D01*
X69298181Y-83875562D01*
X69294000Y-83833105D01*
X69294000Y-82366895D01*
X69298181Y-82324438D01*
X69308774Y-82289519D01*
X69325976Y-82257337D01*
X69349127Y-82229127D01*
X69377337Y-82205976D01*
X69409519Y-82188774D01*
X69444438Y-82178181D01*
X69486895Y-82174000D01*
X70628105Y-82174000D01*
X70670562Y-82178181D01*
G37*
G36*
X67695562Y-82178181D02*
G01*
X67730481Y-82188774D01*
X67762663Y-82205976D01*
X67790873Y-82229127D01*
X67814024Y-82257337D01*
X67831226Y-82289519D01*
X67841819Y-82324438D01*
X67846000Y-82366895D01*
X67846000Y-83833105D01*
X67841819Y-83875562D01*
X67831226Y-83910481D01*
X67814024Y-83942663D01*
X67790873Y-83970873D01*
X67762663Y-83994024D01*
X67730481Y-84011226D01*
X67695562Y-84021819D01*
X67653105Y-84026000D01*
X66511895Y-84026000D01*
X66469438Y-84021819D01*
X66434519Y-84011226D01*
X66402337Y-83994024D01*
X66374127Y-83970873D01*
X66350976Y-83942663D01*
X66333774Y-83910481D01*
X66323181Y-83875562D01*
X66319000Y-83833105D01*
X66319000Y-82366895D01*
X66323181Y-82324438D01*
X66333774Y-82289519D01*
X66350976Y-82257337D01*
X66374127Y-82229127D01*
X66402337Y-82205976D01*
X66434519Y-82188774D01*
X66469438Y-82178181D01*
X66511895Y-82174000D01*
X67653105Y-82174000D01*
X67695562Y-82178181D01*
G37*
G36*
X65170562Y-82158181D02*
G01*
X65205481Y-82168774D01*
X65237663Y-82185976D01*
X65265873Y-82209127D01*
X65289024Y-82237337D01*
X65306226Y-82269519D01*
X65316819Y-82304438D01*
X65321000Y-82346895D01*
X65321000Y-83813105D01*
X65316819Y-83855562D01*
X65306226Y-83890481D01*
X65289024Y-83922663D01*
X65265873Y-83950873D01*
X65237663Y-83974024D01*
X65205481Y-83991226D01*
X65170562Y-84001819D01*
X65128105Y-84006000D01*
X63986895Y-84006000D01*
X63944438Y-84001819D01*
X63909519Y-83991226D01*
X63877337Y-83974024D01*
X63849127Y-83950873D01*
X63825976Y-83922663D01*
X63808774Y-83890481D01*
X63798181Y-83855562D01*
X63794000Y-83813105D01*
X63794000Y-82346895D01*
X63798181Y-82304438D01*
X63808774Y-82269519D01*
X63825976Y-82237337D01*
X63849127Y-82209127D01*
X63877337Y-82185976D01*
X63909519Y-82168774D01*
X63944438Y-82158181D01*
X63986895Y-82154000D01*
X65128105Y-82154000D01*
X65170562Y-82158181D01*
G37*
G36*
X62195562Y-82158181D02*
G01*
X62230481Y-82168774D01*
X62262663Y-82185976D01*
X62290873Y-82209127D01*
X62314024Y-82237337D01*
X62331226Y-82269519D01*
X62341819Y-82304438D01*
X62346000Y-82346895D01*
X62346000Y-83813105D01*
X62341819Y-83855562D01*
X62331226Y-83890481D01*
X62314024Y-83922663D01*
X62290873Y-83950873D01*
X62262663Y-83974024D01*
X62230481Y-83991226D01*
X62195562Y-84001819D01*
X62153105Y-84006000D01*
X61011895Y-84006000D01*
X60969438Y-84001819D01*
X60934519Y-83991226D01*
X60902337Y-83974024D01*
X60874127Y-83950873D01*
X60850976Y-83922663D01*
X60833774Y-83890481D01*
X60823181Y-83855562D01*
X60819000Y-83813105D01*
X60819000Y-82346895D01*
X60823181Y-82304438D01*
X60833774Y-82269519D01*
X60850976Y-82237337D01*
X60874127Y-82209127D01*
X60902337Y-82185976D01*
X60934519Y-82168774D01*
X60969438Y-82158181D01*
X61011895Y-82154000D01*
X62153105Y-82154000D01*
X62195562Y-82158181D01*
G37*
G36*
X75121560Y-80489064D02*
G01*
X75273027Y-80519193D01*
X75487045Y-80607842D01*
X75487046Y-80607843D01*
X75679654Y-80736539D01*
X75843461Y-80900346D01*
X75929258Y-81028751D01*
X75972158Y-81092955D01*
X76060807Y-81306973D01*
X76106000Y-81534174D01*
X76106000Y-81765826D01*
X76060807Y-81993027D01*
X75972158Y-82207045D01*
X75972157Y-82207046D01*
X75843461Y-82399654D01*
X75679654Y-82563461D01*
X75551249Y-82649258D01*
X75487045Y-82692158D01*
X75273027Y-82780807D01*
X75121560Y-82810936D01*
X75045827Y-82826000D01*
X74814173Y-82826000D01*
X74738440Y-82810936D01*
X74586973Y-82780807D01*
X74372955Y-82692158D01*
X74308751Y-82649258D01*
X74180346Y-82563461D01*
X74016539Y-82399654D01*
X73887843Y-82207046D01*
X73887842Y-82207045D01*
X73799193Y-81993027D01*
X73754000Y-81765826D01*
X73754000Y-81534174D01*
X73799193Y-81306973D01*
X73887842Y-81092955D01*
X73930742Y-81028751D01*
X74016539Y-80900346D01*
X74180346Y-80736539D01*
X74372954Y-80607843D01*
X74372955Y-80607842D01*
X74586973Y-80519193D01*
X74738440Y-80489064D01*
X74814173Y-80474000D01*
X75045827Y-80474000D01*
X75121560Y-80489064D01*
G37*
G36*
X80201560Y-80489064D02*
G01*
X80353027Y-80519193D01*
X80567045Y-80607842D01*
X80567046Y-80607843D01*
X80759654Y-80736539D01*
X80923461Y-80900346D01*
X81009258Y-81028751D01*
X81052158Y-81092955D01*
X81140807Y-81306973D01*
X81186000Y-81534174D01*
X81186000Y-81765826D01*
X81140807Y-81993027D01*
X81052158Y-82207045D01*
X81052157Y-82207046D01*
X80923461Y-82399654D01*
X80759654Y-82563461D01*
X80631249Y-82649258D01*
X80567045Y-82692158D01*
X80353027Y-82780807D01*
X80201560Y-82810936D01*
X80125827Y-82826000D01*
X79894173Y-82826000D01*
X79818440Y-82810936D01*
X79666973Y-82780807D01*
X79452955Y-82692158D01*
X79388751Y-82649258D01*
X79260346Y-82563461D01*
X79096539Y-82399654D01*
X78967843Y-82207046D01*
X78967842Y-82207045D01*
X78879193Y-81993027D01*
X78834000Y-81765826D01*
X78834000Y-81534174D01*
X78879193Y-81306973D01*
X78967842Y-81092955D01*
X79010742Y-81028751D01*
X79096539Y-80900346D01*
X79260346Y-80736539D01*
X79452954Y-80607843D01*
X79452955Y-80607842D01*
X79666973Y-80519193D01*
X79818440Y-80489064D01*
X79894173Y-80474000D01*
X80125827Y-80474000D01*
X80201560Y-80489064D01*
G37*
G36*
X89531560Y-80489064D02*
G01*
X89683027Y-80519193D01*
X89897045Y-80607842D01*
X89897046Y-80607843D01*
X90089654Y-80736539D01*
X90253461Y-80900346D01*
X90339258Y-81028751D01*
X90382158Y-81092955D01*
X90470807Y-81306973D01*
X90516000Y-81534174D01*
X90516000Y-81765826D01*
X90470807Y-81993027D01*
X90382158Y-82207045D01*
X90382157Y-82207046D01*
X90253461Y-82399654D01*
X90089654Y-82563461D01*
X89961249Y-82649258D01*
X89897045Y-82692158D01*
X89683027Y-82780807D01*
X89531560Y-82810936D01*
X89455827Y-82826000D01*
X89224173Y-82826000D01*
X89148440Y-82810936D01*
X88996973Y-82780807D01*
X88782955Y-82692158D01*
X88718751Y-82649258D01*
X88590346Y-82563461D01*
X88426539Y-82399654D01*
X88297843Y-82207046D01*
X88297842Y-82207045D01*
X88209193Y-81993027D01*
X88164000Y-81765826D01*
X88164000Y-81534174D01*
X88209193Y-81306973D01*
X88297842Y-81092955D01*
X88340742Y-81028751D01*
X88426539Y-80900346D01*
X88590346Y-80736539D01*
X88782954Y-80607843D01*
X88782955Y-80607842D01*
X88996973Y-80519193D01*
X89148440Y-80489064D01*
X89224173Y-80474000D01*
X89455827Y-80474000D01*
X89531560Y-80489064D01*
G37*
G36*
X94611560Y-80489064D02*
G01*
X94763027Y-80519193D01*
X94977045Y-80607842D01*
X94977046Y-80607843D01*
X95169654Y-80736539D01*
X95333461Y-80900346D01*
X95419258Y-81028751D01*
X95462158Y-81092955D01*
X95550807Y-81306973D01*
X95596000Y-81534174D01*
X95596000Y-81765826D01*
X95550807Y-81993027D01*
X95462158Y-82207045D01*
X95462157Y-82207046D01*
X95333461Y-82399654D01*
X95169654Y-82563461D01*
X95041249Y-82649258D01*
X94977045Y-82692158D01*
X94763027Y-82780807D01*
X94611560Y-82810936D01*
X94535827Y-82826000D01*
X94304173Y-82826000D01*
X94228440Y-82810936D01*
X94076973Y-82780807D01*
X93862955Y-82692158D01*
X93798751Y-82649258D01*
X93670346Y-82563461D01*
X93506539Y-82399654D01*
X93377843Y-82207046D01*
X93377842Y-82207045D01*
X93289193Y-81993027D01*
X93244000Y-81765826D01*
X93244000Y-81534174D01*
X93289193Y-81306973D01*
X93377842Y-81092955D01*
X93420742Y-81028751D01*
X93506539Y-80900346D01*
X93670346Y-80736539D01*
X93862954Y-80607843D01*
X93862955Y-80607842D01*
X94076973Y-80519193D01*
X94228440Y-80489064D01*
X94304173Y-80474000D01*
X94535827Y-80474000D01*
X94611560Y-80489064D01*
G37*
G36*
X69615562Y-79038181D02*
G01*
X69650481Y-79048774D01*
X69682663Y-79065976D01*
X69710873Y-79089127D01*
X69734024Y-79117337D01*
X69751226Y-79149519D01*
X69761819Y-79184438D01*
X69766000Y-79226895D01*
X69766000Y-80368105D01*
X69761819Y-80410562D01*
X69751226Y-80445481D01*
X69734024Y-80477663D01*
X69710873Y-80505873D01*
X69682663Y-80529024D01*
X69650481Y-80546226D01*
X69615562Y-80556819D01*
X69573105Y-80561000D01*
X68106895Y-80561000D01*
X68064438Y-80556819D01*
X68029519Y-80546226D01*
X67997337Y-80529024D01*
X67969127Y-80505873D01*
X67945976Y-80477663D01*
X67928774Y-80445481D01*
X67918181Y-80410562D01*
X67914000Y-80368105D01*
X67914000Y-79226895D01*
X67918181Y-79184438D01*
X67928774Y-79149519D01*
X67945976Y-79117337D01*
X67969127Y-79089127D01*
X67997337Y-79065976D01*
X68029519Y-79048774D01*
X68064438Y-79038181D01*
X68106895Y-79034000D01*
X69573105Y-79034000D01*
X69615562Y-79038181D01*
G37*
G36*
X92055271Y-78047783D02*
G01*
X92193858Y-78075350D01*
X92389677Y-78156461D01*
X92565910Y-78274216D01*
X92715784Y-78424090D01*
X92833539Y-78600323D01*
X92914650Y-78796142D01*
X92942217Y-78934729D01*
X92956000Y-79004022D01*
X92956000Y-79215978D01*
X92949306Y-79249631D01*
X92914650Y-79423858D01*
X92833539Y-79619677D01*
X92715784Y-79795910D01*
X92565910Y-79945784D01*
X92389677Y-80063539D01*
X92193858Y-80144650D01*
X92055271Y-80172217D01*
X91985978Y-80186000D01*
X91774022Y-80186000D01*
X91704729Y-80172217D01*
X91566142Y-80144650D01*
X91370323Y-80063539D01*
X91194090Y-79945784D01*
X91044216Y-79795910D01*
X90926461Y-79619677D01*
X90845350Y-79423858D01*
X90810694Y-79249631D01*
X90804000Y-79215978D01*
X90804000Y-79004022D01*
X90817783Y-78934729D01*
X90845350Y-78796142D01*
X90926461Y-78600323D01*
X91044216Y-78424090D01*
X91194090Y-78274216D01*
X91370323Y-78156461D01*
X91566142Y-78075350D01*
X91704729Y-78047783D01*
X91774022Y-78034000D01*
X91985978Y-78034000D01*
X92055271Y-78047783D01*
G37*
G36*
X77645271Y-78047783D02*
G01*
X77783858Y-78075350D01*
X77979677Y-78156461D01*
X78155910Y-78274216D01*
X78305784Y-78424090D01*
X78423539Y-78600323D01*
X78504650Y-78796142D01*
X78532217Y-78934729D01*
X78546000Y-79004022D01*
X78546000Y-79215978D01*
X78539306Y-79249631D01*
X78504650Y-79423858D01*
X78423539Y-79619677D01*
X78305784Y-79795910D01*
X78155910Y-79945784D01*
X77979677Y-80063539D01*
X77783858Y-80144650D01*
X77645271Y-80172217D01*
X77575978Y-80186000D01*
X77364022Y-80186000D01*
X77294729Y-80172217D01*
X77156142Y-80144650D01*
X76960323Y-80063539D01*
X76784090Y-79945784D01*
X76634216Y-79795910D01*
X76516461Y-79619677D01*
X76435350Y-79423858D01*
X76400694Y-79249631D01*
X76394000Y-79215978D01*
X76394000Y-79004022D01*
X76407783Y-78934729D01*
X76435350Y-78796142D01*
X76516461Y-78600323D01*
X76634216Y-78424090D01*
X76784090Y-78274216D01*
X76960323Y-78156461D01*
X77156142Y-78075350D01*
X77294729Y-78047783D01*
X77364022Y-78034000D01*
X77575978Y-78034000D01*
X77645271Y-78047783D01*
G37*
G36*
X109831476Y-76778238D02*
G01*
X109937799Y-76799387D01*
X110238262Y-76923843D01*
X110508671Y-77104525D01*
X110738635Y-77334489D01*
X110919317Y-77604898D01*
X110919318Y-77604900D01*
X111043773Y-77905362D01*
X111107220Y-78224329D01*
X111107220Y-78549551D01*
X111082676Y-78672939D01*
X111043773Y-78868519D01*
X110919317Y-79168982D01*
X110738635Y-79439391D01*
X110508671Y-79669355D01*
X110238262Y-79850037D01*
X109937799Y-79974493D01*
X109831476Y-79995642D01*
X109618831Y-80037940D01*
X109293609Y-80037940D01*
X109080964Y-79995642D01*
X108974641Y-79974493D01*
X108674178Y-79850037D01*
X108403769Y-79669355D01*
X108173805Y-79439391D01*
X107993123Y-79168982D01*
X107868667Y-78868519D01*
X107829764Y-78672939D01*
X107805220Y-78549551D01*
X107805220Y-78224329D01*
X107868667Y-77905362D01*
X107993122Y-77604900D01*
X107993123Y-77604898D01*
X108173805Y-77334489D01*
X108403769Y-77104525D01*
X108674178Y-76923843D01*
X108974641Y-76799387D01*
X109080964Y-76778238D01*
X109293609Y-76735940D01*
X109618831Y-76735940D01*
X109831476Y-76778238D01*
G37*
G36*
X63514576Y-76582658D02*
G01*
X63620899Y-76603807D01*
X63921362Y-76728263D01*
X64191771Y-76908945D01*
X64421735Y-77138909D01*
X64602417Y-77409318D01*
X64723156Y-77700807D01*
X64726873Y-77709782D01*
X64790320Y-78028749D01*
X64790320Y-78353971D01*
X64751417Y-78549549D01*
X64726873Y-78672939D01*
X64602417Y-78973402D01*
X64421735Y-79243811D01*
X64191771Y-79473775D01*
X63921362Y-79654457D01*
X63620899Y-79778913D01*
X63535464Y-79795907D01*
X63301931Y-79842360D01*
X62976709Y-79842360D01*
X62743176Y-79795907D01*
X62657741Y-79778913D01*
X62357278Y-79654457D01*
X62086869Y-79473775D01*
X61856905Y-79243811D01*
X61676223Y-78973402D01*
X61551767Y-78672939D01*
X61527223Y-78549549D01*
X61488320Y-78353971D01*
X61488320Y-78028749D01*
X61551767Y-77709782D01*
X61555485Y-77700807D01*
X61676223Y-77409318D01*
X61856905Y-77138909D01*
X62086869Y-76908945D01*
X62357278Y-76728263D01*
X62657741Y-76603807D01*
X62764064Y-76582658D01*
X62976709Y-76540360D01*
X63301931Y-76540360D01*
X63514576Y-76582658D01*
G37*
G36*
X94611560Y-75409064D02*
G01*
X94763027Y-75439193D01*
X94977045Y-75527842D01*
X94977046Y-75527843D01*
X95169654Y-75656539D01*
X95333461Y-75820346D01*
X95419258Y-75948751D01*
X95462158Y-76012955D01*
X95550807Y-76226973D01*
X95596000Y-76454174D01*
X95596000Y-76685826D01*
X95550807Y-76913027D01*
X95462158Y-77127045D01*
X95454229Y-77138911D01*
X95333461Y-77319654D01*
X95169654Y-77483461D01*
X95046712Y-77565608D01*
X94977045Y-77612158D01*
X94763027Y-77700807D01*
X94611560Y-77730936D01*
X94535827Y-77746000D01*
X94304173Y-77746000D01*
X94228440Y-77730936D01*
X94076973Y-77700807D01*
X93862955Y-77612158D01*
X93793288Y-77565608D01*
X93670346Y-77483461D01*
X93506539Y-77319654D01*
X93385771Y-77138911D01*
X93377842Y-77127045D01*
X93289193Y-76913027D01*
X93244000Y-76685826D01*
X93244000Y-76454174D01*
X93289193Y-76226973D01*
X93377842Y-76012955D01*
X93420742Y-75948751D01*
X93506539Y-75820346D01*
X93670346Y-75656539D01*
X93862954Y-75527843D01*
X93862955Y-75527842D01*
X94076973Y-75439193D01*
X94228440Y-75409064D01*
X94304173Y-75394000D01*
X94535827Y-75394000D01*
X94611560Y-75409064D01*
G37*
G36*
X89531560Y-75409064D02*
G01*
X89683027Y-75439193D01*
X89897045Y-75527842D01*
X89897046Y-75527843D01*
X90089654Y-75656539D01*
X90253461Y-75820346D01*
X90339258Y-75948751D01*
X90382158Y-76012955D01*
X90470807Y-76226973D01*
X90516000Y-76454174D01*
X90516000Y-76685826D01*
X90470807Y-76913027D01*
X90382158Y-77127045D01*
X90374229Y-77138911D01*
X90253461Y-77319654D01*
X90089654Y-77483461D01*
X89966712Y-77565608D01*
X89897045Y-77612158D01*
X89683027Y-77700807D01*
X89531560Y-77730936D01*
X89455827Y-77746000D01*
X89224173Y-77746000D01*
X89148440Y-77730936D01*
X88996973Y-77700807D01*
X88782955Y-77612158D01*
X88713288Y-77565608D01*
X88590346Y-77483461D01*
X88426539Y-77319654D01*
X88305771Y-77138911D01*
X88297842Y-77127045D01*
X88209193Y-76913027D01*
X88164000Y-76685826D01*
X88164000Y-76454174D01*
X88209193Y-76226973D01*
X88297842Y-76012955D01*
X88340742Y-75948751D01*
X88426539Y-75820346D01*
X88590346Y-75656539D01*
X88782954Y-75527843D01*
X88782955Y-75527842D01*
X88996973Y-75439193D01*
X89148440Y-75409064D01*
X89224173Y-75394000D01*
X89455827Y-75394000D01*
X89531560Y-75409064D01*
G37*
G36*
X80201560Y-75409064D02*
G01*
X80353027Y-75439193D01*
X80567045Y-75527842D01*
X80567046Y-75527843D01*
X80759654Y-75656539D01*
X80923461Y-75820346D01*
X81009258Y-75948751D01*
X81052158Y-76012955D01*
X81140807Y-76226973D01*
X81186000Y-76454174D01*
X81186000Y-76685826D01*
X81140807Y-76913027D01*
X81052158Y-77127045D01*
X81044229Y-77138911D01*
X80923461Y-77319654D01*
X80759654Y-77483461D01*
X80636712Y-77565608D01*
X80567045Y-77612158D01*
X80353027Y-77700807D01*
X80201560Y-77730936D01*
X80125827Y-77746000D01*
X79894173Y-77746000D01*
X79818440Y-77730936D01*
X79666973Y-77700807D01*
X79452955Y-77612158D01*
X79383288Y-77565608D01*
X79260346Y-77483461D01*
X79096539Y-77319654D01*
X78975771Y-77138911D01*
X78967842Y-77127045D01*
X78879193Y-76913027D01*
X78834000Y-76685826D01*
X78834000Y-76454174D01*
X78879193Y-76226973D01*
X78967842Y-76012955D01*
X79010742Y-75948751D01*
X79096539Y-75820346D01*
X79260346Y-75656539D01*
X79452954Y-75527843D01*
X79452955Y-75527842D01*
X79666973Y-75439193D01*
X79818440Y-75409064D01*
X79894173Y-75394000D01*
X80125827Y-75394000D01*
X80201560Y-75409064D01*
G37*
G36*
X75121560Y-75409064D02*
G01*
X75273027Y-75439193D01*
X75487045Y-75527842D01*
X75487046Y-75527843D01*
X75679654Y-75656539D01*
X75843461Y-75820346D01*
X75929258Y-75948751D01*
X75972158Y-76012955D01*
X76060807Y-76226973D01*
X76106000Y-76454174D01*
X76106000Y-76685826D01*
X76060807Y-76913027D01*
X75972158Y-77127045D01*
X75964229Y-77138911D01*
X75843461Y-77319654D01*
X75679654Y-77483461D01*
X75556712Y-77565608D01*
X75487045Y-77612158D01*
X75273027Y-77700807D01*
X75121560Y-77730936D01*
X75045827Y-77746000D01*
X74814173Y-77746000D01*
X74738440Y-77730936D01*
X74586973Y-77700807D01*
X74372955Y-77612158D01*
X74303288Y-77565608D01*
X74180346Y-77483461D01*
X74016539Y-77319654D01*
X73895771Y-77138911D01*
X73887842Y-77127045D01*
X73799193Y-76913027D01*
X73754000Y-76685826D01*
X73754000Y-76454174D01*
X73799193Y-76226973D01*
X73887842Y-76012955D01*
X73930742Y-75948751D01*
X74016539Y-75820346D01*
X74180346Y-75656539D01*
X74372954Y-75527843D01*
X74372955Y-75527842D01*
X74586973Y-75439193D01*
X74738440Y-75409064D01*
X74814173Y-75394000D01*
X75045827Y-75394000D01*
X75121560Y-75409064D01*
G37*
G36*
X69615562Y-76063181D02*
G01*
X69650481Y-76073774D01*
X69682663Y-76090976D01*
X69710873Y-76114127D01*
X69734024Y-76142337D01*
X69751226Y-76174519D01*
X69761819Y-76209438D01*
X69766000Y-76251895D01*
X69766000Y-77393105D01*
X69761819Y-77435562D01*
X69751226Y-77470481D01*
X69734024Y-77502663D01*
X69710873Y-77530873D01*
X69682663Y-77554024D01*
X69650481Y-77571226D01*
X69615562Y-77581819D01*
X69573105Y-77586000D01*
X68106895Y-77586000D01*
X68064438Y-77581819D01*
X68029519Y-77571226D01*
X67997337Y-77554024D01*
X67969127Y-77530873D01*
X67945976Y-77502663D01*
X67928774Y-77470481D01*
X67918181Y-77435562D01*
X67914000Y-77393105D01*
X67914000Y-76251895D01*
X67918181Y-76209438D01*
X67928774Y-76174519D01*
X67945976Y-76142337D01*
X67969127Y-76114127D01*
X67997337Y-76090976D01*
X68029519Y-76073774D01*
X68064438Y-76063181D01*
X68106895Y-76059000D01*
X69573105Y-76059000D01*
X69615562Y-76063181D01*
G37*
M02*
