G04 #@! TF.GenerationSoftware,KiCad,Pcbnew,(5.1.5)-3*
G04 #@! TF.CreationDate,2020-09-02T12:15:22+02:00*
G04 #@! TF.ProjectId,mixer,6d697865-722e-46b6-9963-61645f706362,rev?*
G04 #@! TF.SameCoordinates,Original*
G04 #@! TF.FileFunction,Copper,L1,Top*
G04 #@! TF.FilePolarity,Positive*
%FSLAX46Y46*%
G04 Gerber Fmt 4.6, Leading zero omitted, Abs format (unit mm)*
G04 Created by KiCad (PCBNEW (5.1.5)-3) date 2020-09-02 12:15:22*
%MOMM*%
%LPD*%
G04 APERTURE LIST*
%ADD10C,0.100000*%
%ADD11R,0.800000X0.900000*%
%ADD12C,2.050000*%
%ADD13C,2.250000*%
%ADD14C,3.000000*%
%ADD15C,0.800000*%
%ADD16C,1.000000*%
%ADD17C,0.254000*%
G04 APERTURE END LIST*
G04 #@! TA.AperFunction,SMDPad,CuDef*
D10*
G36*
X65044504Y-82206204D02*
G01*
X65068773Y-82209804D01*
X65092571Y-82215765D01*
X65115671Y-82224030D01*
X65137849Y-82234520D01*
X65158893Y-82247133D01*
X65178598Y-82261747D01*
X65196777Y-82278223D01*
X65213253Y-82296402D01*
X65227867Y-82316107D01*
X65240480Y-82337151D01*
X65250970Y-82359329D01*
X65259235Y-82382429D01*
X65265196Y-82406227D01*
X65268796Y-82430496D01*
X65270000Y-82455000D01*
X65270000Y-83705000D01*
X65268796Y-83729504D01*
X65265196Y-83753773D01*
X65259235Y-83777571D01*
X65250970Y-83800671D01*
X65240480Y-83822849D01*
X65227867Y-83843893D01*
X65213253Y-83863598D01*
X65196777Y-83881777D01*
X65178598Y-83898253D01*
X65158893Y-83912867D01*
X65137849Y-83925480D01*
X65115671Y-83935970D01*
X65092571Y-83944235D01*
X65068773Y-83950196D01*
X65044504Y-83953796D01*
X65020000Y-83955000D01*
X64095000Y-83955000D01*
X64070496Y-83953796D01*
X64046227Y-83950196D01*
X64022429Y-83944235D01*
X63999329Y-83935970D01*
X63977151Y-83925480D01*
X63956107Y-83912867D01*
X63936402Y-83898253D01*
X63918223Y-83881777D01*
X63901747Y-83863598D01*
X63887133Y-83843893D01*
X63874520Y-83822849D01*
X63864030Y-83800671D01*
X63855765Y-83777571D01*
X63849804Y-83753773D01*
X63846204Y-83729504D01*
X63845000Y-83705000D01*
X63845000Y-82455000D01*
X63846204Y-82430496D01*
X63849804Y-82406227D01*
X63855765Y-82382429D01*
X63864030Y-82359329D01*
X63874520Y-82337151D01*
X63887133Y-82316107D01*
X63901747Y-82296402D01*
X63918223Y-82278223D01*
X63936402Y-82261747D01*
X63956107Y-82247133D01*
X63977151Y-82234520D01*
X63999329Y-82224030D01*
X64022429Y-82215765D01*
X64046227Y-82209804D01*
X64070496Y-82206204D01*
X64095000Y-82205000D01*
X65020000Y-82205000D01*
X65044504Y-82206204D01*
G37*
G04 #@! TD.AperFunction*
G04 #@! TA.AperFunction,SMDPad,CuDef*
G36*
X62069504Y-82206204D02*
G01*
X62093773Y-82209804D01*
X62117571Y-82215765D01*
X62140671Y-82224030D01*
X62162849Y-82234520D01*
X62183893Y-82247133D01*
X62203598Y-82261747D01*
X62221777Y-82278223D01*
X62238253Y-82296402D01*
X62252867Y-82316107D01*
X62265480Y-82337151D01*
X62275970Y-82359329D01*
X62284235Y-82382429D01*
X62290196Y-82406227D01*
X62293796Y-82430496D01*
X62295000Y-82455000D01*
X62295000Y-83705000D01*
X62293796Y-83729504D01*
X62290196Y-83753773D01*
X62284235Y-83777571D01*
X62275970Y-83800671D01*
X62265480Y-83822849D01*
X62252867Y-83843893D01*
X62238253Y-83863598D01*
X62221777Y-83881777D01*
X62203598Y-83898253D01*
X62183893Y-83912867D01*
X62162849Y-83925480D01*
X62140671Y-83935970D01*
X62117571Y-83944235D01*
X62093773Y-83950196D01*
X62069504Y-83953796D01*
X62045000Y-83955000D01*
X61120000Y-83955000D01*
X61095496Y-83953796D01*
X61071227Y-83950196D01*
X61047429Y-83944235D01*
X61024329Y-83935970D01*
X61002151Y-83925480D01*
X60981107Y-83912867D01*
X60961402Y-83898253D01*
X60943223Y-83881777D01*
X60926747Y-83863598D01*
X60912133Y-83843893D01*
X60899520Y-83822849D01*
X60889030Y-83800671D01*
X60880765Y-83777571D01*
X60874804Y-83753773D01*
X60871204Y-83729504D01*
X60870000Y-83705000D01*
X60870000Y-82455000D01*
X60871204Y-82430496D01*
X60874804Y-82406227D01*
X60880765Y-82382429D01*
X60889030Y-82359329D01*
X60899520Y-82337151D01*
X60912133Y-82316107D01*
X60926747Y-82296402D01*
X60943223Y-82278223D01*
X60961402Y-82261747D01*
X60981107Y-82247133D01*
X61002151Y-82234520D01*
X61024329Y-82224030D01*
X61047429Y-82215765D01*
X61071227Y-82209804D01*
X61095496Y-82206204D01*
X61120000Y-82205000D01*
X62045000Y-82205000D01*
X62069504Y-82206204D01*
G37*
G04 #@! TD.AperFunction*
G04 #@! TA.AperFunction,SMDPad,CuDef*
G36*
X70544504Y-82226204D02*
G01*
X70568773Y-82229804D01*
X70592571Y-82235765D01*
X70615671Y-82244030D01*
X70637849Y-82254520D01*
X70658893Y-82267133D01*
X70678598Y-82281747D01*
X70696777Y-82298223D01*
X70713253Y-82316402D01*
X70727867Y-82336107D01*
X70740480Y-82357151D01*
X70750970Y-82379329D01*
X70759235Y-82402429D01*
X70765196Y-82426227D01*
X70768796Y-82450496D01*
X70770000Y-82475000D01*
X70770000Y-83725000D01*
X70768796Y-83749504D01*
X70765196Y-83773773D01*
X70759235Y-83797571D01*
X70750970Y-83820671D01*
X70740480Y-83842849D01*
X70727867Y-83863893D01*
X70713253Y-83883598D01*
X70696777Y-83901777D01*
X70678598Y-83918253D01*
X70658893Y-83932867D01*
X70637849Y-83945480D01*
X70615671Y-83955970D01*
X70592571Y-83964235D01*
X70568773Y-83970196D01*
X70544504Y-83973796D01*
X70520000Y-83975000D01*
X69595000Y-83975000D01*
X69570496Y-83973796D01*
X69546227Y-83970196D01*
X69522429Y-83964235D01*
X69499329Y-83955970D01*
X69477151Y-83945480D01*
X69456107Y-83932867D01*
X69436402Y-83918253D01*
X69418223Y-83901777D01*
X69401747Y-83883598D01*
X69387133Y-83863893D01*
X69374520Y-83842849D01*
X69364030Y-83820671D01*
X69355765Y-83797571D01*
X69349804Y-83773773D01*
X69346204Y-83749504D01*
X69345000Y-83725000D01*
X69345000Y-82475000D01*
X69346204Y-82450496D01*
X69349804Y-82426227D01*
X69355765Y-82402429D01*
X69364030Y-82379329D01*
X69374520Y-82357151D01*
X69387133Y-82336107D01*
X69401747Y-82316402D01*
X69418223Y-82298223D01*
X69436402Y-82281747D01*
X69456107Y-82267133D01*
X69477151Y-82254520D01*
X69499329Y-82244030D01*
X69522429Y-82235765D01*
X69546227Y-82229804D01*
X69570496Y-82226204D01*
X69595000Y-82225000D01*
X70520000Y-82225000D01*
X70544504Y-82226204D01*
G37*
G04 #@! TD.AperFunction*
G04 #@! TA.AperFunction,SMDPad,CuDef*
G36*
X67569504Y-82226204D02*
G01*
X67593773Y-82229804D01*
X67617571Y-82235765D01*
X67640671Y-82244030D01*
X67662849Y-82254520D01*
X67683893Y-82267133D01*
X67703598Y-82281747D01*
X67721777Y-82298223D01*
X67738253Y-82316402D01*
X67752867Y-82336107D01*
X67765480Y-82357151D01*
X67775970Y-82379329D01*
X67784235Y-82402429D01*
X67790196Y-82426227D01*
X67793796Y-82450496D01*
X67795000Y-82475000D01*
X67795000Y-83725000D01*
X67793796Y-83749504D01*
X67790196Y-83773773D01*
X67784235Y-83797571D01*
X67775970Y-83820671D01*
X67765480Y-83842849D01*
X67752867Y-83863893D01*
X67738253Y-83883598D01*
X67721777Y-83901777D01*
X67703598Y-83918253D01*
X67683893Y-83932867D01*
X67662849Y-83945480D01*
X67640671Y-83955970D01*
X67617571Y-83964235D01*
X67593773Y-83970196D01*
X67569504Y-83973796D01*
X67545000Y-83975000D01*
X66620000Y-83975000D01*
X66595496Y-83973796D01*
X66571227Y-83970196D01*
X66547429Y-83964235D01*
X66524329Y-83955970D01*
X66502151Y-83945480D01*
X66481107Y-83932867D01*
X66461402Y-83918253D01*
X66443223Y-83901777D01*
X66426747Y-83883598D01*
X66412133Y-83863893D01*
X66399520Y-83842849D01*
X66389030Y-83820671D01*
X66380765Y-83797571D01*
X66374804Y-83773773D01*
X66371204Y-83749504D01*
X66370000Y-83725000D01*
X66370000Y-82475000D01*
X66371204Y-82450496D01*
X66374804Y-82426227D01*
X66380765Y-82402429D01*
X66389030Y-82379329D01*
X66399520Y-82357151D01*
X66412133Y-82336107D01*
X66426747Y-82316402D01*
X66443223Y-82298223D01*
X66461402Y-82281747D01*
X66481107Y-82267133D01*
X66502151Y-82254520D01*
X66524329Y-82244030D01*
X66547429Y-82235765D01*
X66571227Y-82229804D01*
X66595496Y-82226204D01*
X66620000Y-82225000D01*
X67545000Y-82225000D01*
X67569504Y-82226204D01*
G37*
G04 #@! TD.AperFunction*
G04 #@! TA.AperFunction,SMDPad,CuDef*
G36*
X69489504Y-79086204D02*
G01*
X69513773Y-79089804D01*
X69537571Y-79095765D01*
X69560671Y-79104030D01*
X69582849Y-79114520D01*
X69603893Y-79127133D01*
X69623598Y-79141747D01*
X69641777Y-79158223D01*
X69658253Y-79176402D01*
X69672867Y-79196107D01*
X69685480Y-79217151D01*
X69695970Y-79239329D01*
X69704235Y-79262429D01*
X69710196Y-79286227D01*
X69713796Y-79310496D01*
X69715000Y-79335000D01*
X69715000Y-80260000D01*
X69713796Y-80284504D01*
X69710196Y-80308773D01*
X69704235Y-80332571D01*
X69695970Y-80355671D01*
X69685480Y-80377849D01*
X69672867Y-80398893D01*
X69658253Y-80418598D01*
X69641777Y-80436777D01*
X69623598Y-80453253D01*
X69603893Y-80467867D01*
X69582849Y-80480480D01*
X69560671Y-80490970D01*
X69537571Y-80499235D01*
X69513773Y-80505196D01*
X69489504Y-80508796D01*
X69465000Y-80510000D01*
X68215000Y-80510000D01*
X68190496Y-80508796D01*
X68166227Y-80505196D01*
X68142429Y-80499235D01*
X68119329Y-80490970D01*
X68097151Y-80480480D01*
X68076107Y-80467867D01*
X68056402Y-80453253D01*
X68038223Y-80436777D01*
X68021747Y-80418598D01*
X68007133Y-80398893D01*
X67994520Y-80377849D01*
X67984030Y-80355671D01*
X67975765Y-80332571D01*
X67969804Y-80308773D01*
X67966204Y-80284504D01*
X67965000Y-80260000D01*
X67965000Y-79335000D01*
X67966204Y-79310496D01*
X67969804Y-79286227D01*
X67975765Y-79262429D01*
X67984030Y-79239329D01*
X67994520Y-79217151D01*
X68007133Y-79196107D01*
X68021747Y-79176402D01*
X68038223Y-79158223D01*
X68056402Y-79141747D01*
X68076107Y-79127133D01*
X68097151Y-79114520D01*
X68119329Y-79104030D01*
X68142429Y-79095765D01*
X68166227Y-79089804D01*
X68190496Y-79086204D01*
X68215000Y-79085000D01*
X69465000Y-79085000D01*
X69489504Y-79086204D01*
G37*
G04 #@! TD.AperFunction*
G04 #@! TA.AperFunction,SMDPad,CuDef*
G36*
X69489504Y-76111204D02*
G01*
X69513773Y-76114804D01*
X69537571Y-76120765D01*
X69560671Y-76129030D01*
X69582849Y-76139520D01*
X69603893Y-76152133D01*
X69623598Y-76166747D01*
X69641777Y-76183223D01*
X69658253Y-76201402D01*
X69672867Y-76221107D01*
X69685480Y-76242151D01*
X69695970Y-76264329D01*
X69704235Y-76287429D01*
X69710196Y-76311227D01*
X69713796Y-76335496D01*
X69715000Y-76360000D01*
X69715000Y-77285000D01*
X69713796Y-77309504D01*
X69710196Y-77333773D01*
X69704235Y-77357571D01*
X69695970Y-77380671D01*
X69685480Y-77402849D01*
X69672867Y-77423893D01*
X69658253Y-77443598D01*
X69641777Y-77461777D01*
X69623598Y-77478253D01*
X69603893Y-77492867D01*
X69582849Y-77505480D01*
X69560671Y-77515970D01*
X69537571Y-77524235D01*
X69513773Y-77530196D01*
X69489504Y-77533796D01*
X69465000Y-77535000D01*
X68215000Y-77535000D01*
X68190496Y-77533796D01*
X68166227Y-77530196D01*
X68142429Y-77524235D01*
X68119329Y-77515970D01*
X68097151Y-77505480D01*
X68076107Y-77492867D01*
X68056402Y-77478253D01*
X68038223Y-77461777D01*
X68021747Y-77443598D01*
X68007133Y-77423893D01*
X67994520Y-77402849D01*
X67984030Y-77380671D01*
X67975765Y-77357571D01*
X67969804Y-77333773D01*
X67966204Y-77309504D01*
X67965000Y-77285000D01*
X67965000Y-76360000D01*
X67966204Y-76335496D01*
X67969804Y-76311227D01*
X67975765Y-76287429D01*
X67984030Y-76264329D01*
X67994520Y-76242151D01*
X68007133Y-76221107D01*
X68021747Y-76201402D01*
X68038223Y-76183223D01*
X68056402Y-76166747D01*
X68076107Y-76152133D01*
X68097151Y-76139520D01*
X68119329Y-76129030D01*
X68142429Y-76120765D01*
X68166227Y-76114804D01*
X68190496Y-76111204D01*
X68215000Y-76110000D01*
X69465000Y-76110000D01*
X69489504Y-76111204D01*
G37*
G04 #@! TD.AperFunction*
G04 #@! TA.AperFunction,SMDPad,CuDef*
G36*
X106189044Y-102637824D02*
G01*
X106213313Y-102641424D01*
X106237111Y-102647385D01*
X106260211Y-102655650D01*
X106282389Y-102666140D01*
X106303433Y-102678753D01*
X106323138Y-102693367D01*
X106341317Y-102709843D01*
X106357793Y-102728022D01*
X106372407Y-102747727D01*
X106385020Y-102768771D01*
X106395510Y-102790949D01*
X106403775Y-102814049D01*
X106409736Y-102837847D01*
X106413336Y-102862116D01*
X106414540Y-102886620D01*
X106414540Y-103811620D01*
X106413336Y-103836124D01*
X106409736Y-103860393D01*
X106403775Y-103884191D01*
X106395510Y-103907291D01*
X106385020Y-103929469D01*
X106372407Y-103950513D01*
X106357793Y-103970218D01*
X106341317Y-103988397D01*
X106323138Y-104004873D01*
X106303433Y-104019487D01*
X106282389Y-104032100D01*
X106260211Y-104042590D01*
X106237111Y-104050855D01*
X106213313Y-104056816D01*
X106189044Y-104060416D01*
X106164540Y-104061620D01*
X104914540Y-104061620D01*
X104890036Y-104060416D01*
X104865767Y-104056816D01*
X104841969Y-104050855D01*
X104818869Y-104042590D01*
X104796691Y-104032100D01*
X104775647Y-104019487D01*
X104755942Y-104004873D01*
X104737763Y-103988397D01*
X104721287Y-103970218D01*
X104706673Y-103950513D01*
X104694060Y-103929469D01*
X104683570Y-103907291D01*
X104675305Y-103884191D01*
X104669344Y-103860393D01*
X104665744Y-103836124D01*
X104664540Y-103811620D01*
X104664540Y-102886620D01*
X104665744Y-102862116D01*
X104669344Y-102837847D01*
X104675305Y-102814049D01*
X104683570Y-102790949D01*
X104694060Y-102768771D01*
X104706673Y-102747727D01*
X104721287Y-102728022D01*
X104737763Y-102709843D01*
X104755942Y-102693367D01*
X104775647Y-102678753D01*
X104796691Y-102666140D01*
X104818869Y-102655650D01*
X104841969Y-102647385D01*
X104865767Y-102641424D01*
X104890036Y-102637824D01*
X104914540Y-102636620D01*
X106164540Y-102636620D01*
X106189044Y-102637824D01*
G37*
G04 #@! TD.AperFunction*
G04 #@! TA.AperFunction,SMDPad,CuDef*
G36*
X106189044Y-99662824D02*
G01*
X106213313Y-99666424D01*
X106237111Y-99672385D01*
X106260211Y-99680650D01*
X106282389Y-99691140D01*
X106303433Y-99703753D01*
X106323138Y-99718367D01*
X106341317Y-99734843D01*
X106357793Y-99753022D01*
X106372407Y-99772727D01*
X106385020Y-99793771D01*
X106395510Y-99815949D01*
X106403775Y-99839049D01*
X106409736Y-99862847D01*
X106413336Y-99887116D01*
X106414540Y-99911620D01*
X106414540Y-100836620D01*
X106413336Y-100861124D01*
X106409736Y-100885393D01*
X106403775Y-100909191D01*
X106395510Y-100932291D01*
X106385020Y-100954469D01*
X106372407Y-100975513D01*
X106357793Y-100995218D01*
X106341317Y-101013397D01*
X106323138Y-101029873D01*
X106303433Y-101044487D01*
X106282389Y-101057100D01*
X106260211Y-101067590D01*
X106237111Y-101075855D01*
X106213313Y-101081816D01*
X106189044Y-101085416D01*
X106164540Y-101086620D01*
X104914540Y-101086620D01*
X104890036Y-101085416D01*
X104865767Y-101081816D01*
X104841969Y-101075855D01*
X104818869Y-101067590D01*
X104796691Y-101057100D01*
X104775647Y-101044487D01*
X104755942Y-101029873D01*
X104737763Y-101013397D01*
X104721287Y-100995218D01*
X104706673Y-100975513D01*
X104694060Y-100954469D01*
X104683570Y-100932291D01*
X104675305Y-100909191D01*
X104669344Y-100885393D01*
X104665744Y-100861124D01*
X104664540Y-100836620D01*
X104664540Y-99911620D01*
X104665744Y-99887116D01*
X104669344Y-99862847D01*
X104675305Y-99839049D01*
X104683570Y-99815949D01*
X104694060Y-99793771D01*
X104706673Y-99772727D01*
X104721287Y-99753022D01*
X104737763Y-99734843D01*
X104755942Y-99718367D01*
X104775647Y-99703753D01*
X104796691Y-99691140D01*
X104818869Y-99680650D01*
X104841969Y-99672385D01*
X104865767Y-99666424D01*
X104890036Y-99662824D01*
X104914540Y-99661620D01*
X106164540Y-99661620D01*
X106189044Y-99662824D01*
G37*
G04 #@! TD.AperFunction*
G04 #@! TA.AperFunction,SMDPad,CuDef*
G36*
X102584784Y-99703464D02*
G01*
X102609053Y-99707064D01*
X102632851Y-99713025D01*
X102655951Y-99721290D01*
X102678129Y-99731780D01*
X102699173Y-99744393D01*
X102718878Y-99759007D01*
X102737057Y-99775483D01*
X102753533Y-99793662D01*
X102768147Y-99813367D01*
X102780760Y-99834411D01*
X102791250Y-99856589D01*
X102799515Y-99879689D01*
X102805476Y-99903487D01*
X102809076Y-99927756D01*
X102810280Y-99952260D01*
X102810280Y-100877260D01*
X102809076Y-100901764D01*
X102805476Y-100926033D01*
X102799515Y-100949831D01*
X102791250Y-100972931D01*
X102780760Y-100995109D01*
X102768147Y-101016153D01*
X102753533Y-101035858D01*
X102737057Y-101054037D01*
X102718878Y-101070513D01*
X102699173Y-101085127D01*
X102678129Y-101097740D01*
X102655951Y-101108230D01*
X102632851Y-101116495D01*
X102609053Y-101122456D01*
X102584784Y-101126056D01*
X102560280Y-101127260D01*
X101310280Y-101127260D01*
X101285776Y-101126056D01*
X101261507Y-101122456D01*
X101237709Y-101116495D01*
X101214609Y-101108230D01*
X101192431Y-101097740D01*
X101171387Y-101085127D01*
X101151682Y-101070513D01*
X101133503Y-101054037D01*
X101117027Y-101035858D01*
X101102413Y-101016153D01*
X101089800Y-100995109D01*
X101079310Y-100972931D01*
X101071045Y-100949831D01*
X101065084Y-100926033D01*
X101061484Y-100901764D01*
X101060280Y-100877260D01*
X101060280Y-99952260D01*
X101061484Y-99927756D01*
X101065084Y-99903487D01*
X101071045Y-99879689D01*
X101079310Y-99856589D01*
X101089800Y-99834411D01*
X101102413Y-99813367D01*
X101117027Y-99793662D01*
X101133503Y-99775483D01*
X101151682Y-99759007D01*
X101171387Y-99744393D01*
X101192431Y-99731780D01*
X101214609Y-99721290D01*
X101237709Y-99713025D01*
X101261507Y-99707064D01*
X101285776Y-99703464D01*
X101310280Y-99702260D01*
X102560280Y-99702260D01*
X102584784Y-99703464D01*
G37*
G04 #@! TD.AperFunction*
G04 #@! TA.AperFunction,SMDPad,CuDef*
G36*
X102584784Y-102678464D02*
G01*
X102609053Y-102682064D01*
X102632851Y-102688025D01*
X102655951Y-102696290D01*
X102678129Y-102706780D01*
X102699173Y-102719393D01*
X102718878Y-102734007D01*
X102737057Y-102750483D01*
X102753533Y-102768662D01*
X102768147Y-102788367D01*
X102780760Y-102809411D01*
X102791250Y-102831589D01*
X102799515Y-102854689D01*
X102805476Y-102878487D01*
X102809076Y-102902756D01*
X102810280Y-102927260D01*
X102810280Y-103852260D01*
X102809076Y-103876764D01*
X102805476Y-103901033D01*
X102799515Y-103924831D01*
X102791250Y-103947931D01*
X102780760Y-103970109D01*
X102768147Y-103991153D01*
X102753533Y-104010858D01*
X102737057Y-104029037D01*
X102718878Y-104045513D01*
X102699173Y-104060127D01*
X102678129Y-104072740D01*
X102655951Y-104083230D01*
X102632851Y-104091495D01*
X102609053Y-104097456D01*
X102584784Y-104101056D01*
X102560280Y-104102260D01*
X101310280Y-104102260D01*
X101285776Y-104101056D01*
X101261507Y-104097456D01*
X101237709Y-104091495D01*
X101214609Y-104083230D01*
X101192431Y-104072740D01*
X101171387Y-104060127D01*
X101151682Y-104045513D01*
X101133503Y-104029037D01*
X101117027Y-104010858D01*
X101102413Y-103991153D01*
X101089800Y-103970109D01*
X101079310Y-103947931D01*
X101071045Y-103924831D01*
X101065084Y-103901033D01*
X101061484Y-103876764D01*
X101060280Y-103852260D01*
X101060280Y-102927260D01*
X101061484Y-102902756D01*
X101065084Y-102878487D01*
X101071045Y-102854689D01*
X101079310Y-102831589D01*
X101089800Y-102809411D01*
X101102413Y-102788367D01*
X101117027Y-102768662D01*
X101133503Y-102750483D01*
X101151682Y-102734007D01*
X101171387Y-102719393D01*
X101192431Y-102706780D01*
X101214609Y-102696290D01*
X101237709Y-102688025D01*
X101261507Y-102682064D01*
X101285776Y-102678464D01*
X101310280Y-102677260D01*
X102560280Y-102677260D01*
X102584784Y-102678464D01*
G37*
G04 #@! TD.AperFunction*
G04 #@! TA.AperFunction,SMDPad,CuDef*
G36*
X90199744Y-111786244D02*
G01*
X90224013Y-111789844D01*
X90247811Y-111795805D01*
X90270911Y-111804070D01*
X90293089Y-111814560D01*
X90314133Y-111827173D01*
X90333838Y-111841787D01*
X90352017Y-111858263D01*
X90368493Y-111876442D01*
X90383107Y-111896147D01*
X90395720Y-111917191D01*
X90406210Y-111939369D01*
X90414475Y-111962469D01*
X90420436Y-111986267D01*
X90424036Y-112010536D01*
X90425240Y-112035040D01*
X90425240Y-112960040D01*
X90424036Y-112984544D01*
X90420436Y-113008813D01*
X90414475Y-113032611D01*
X90406210Y-113055711D01*
X90395720Y-113077889D01*
X90383107Y-113098933D01*
X90368493Y-113118638D01*
X90352017Y-113136817D01*
X90333838Y-113153293D01*
X90314133Y-113167907D01*
X90293089Y-113180520D01*
X90270911Y-113191010D01*
X90247811Y-113199275D01*
X90224013Y-113205236D01*
X90199744Y-113208836D01*
X90175240Y-113210040D01*
X88925240Y-113210040D01*
X88900736Y-113208836D01*
X88876467Y-113205236D01*
X88852669Y-113199275D01*
X88829569Y-113191010D01*
X88807391Y-113180520D01*
X88786347Y-113167907D01*
X88766642Y-113153293D01*
X88748463Y-113136817D01*
X88731987Y-113118638D01*
X88717373Y-113098933D01*
X88704760Y-113077889D01*
X88694270Y-113055711D01*
X88686005Y-113032611D01*
X88680044Y-113008813D01*
X88676444Y-112984544D01*
X88675240Y-112960040D01*
X88675240Y-112035040D01*
X88676444Y-112010536D01*
X88680044Y-111986267D01*
X88686005Y-111962469D01*
X88694270Y-111939369D01*
X88704760Y-111917191D01*
X88717373Y-111896147D01*
X88731987Y-111876442D01*
X88748463Y-111858263D01*
X88766642Y-111841787D01*
X88786347Y-111827173D01*
X88807391Y-111814560D01*
X88829569Y-111804070D01*
X88852669Y-111795805D01*
X88876467Y-111789844D01*
X88900736Y-111786244D01*
X88925240Y-111785040D01*
X90175240Y-111785040D01*
X90199744Y-111786244D01*
G37*
G04 #@! TD.AperFunction*
G04 #@! TA.AperFunction,SMDPad,CuDef*
G36*
X90199744Y-114761244D02*
G01*
X90224013Y-114764844D01*
X90247811Y-114770805D01*
X90270911Y-114779070D01*
X90293089Y-114789560D01*
X90314133Y-114802173D01*
X90333838Y-114816787D01*
X90352017Y-114833263D01*
X90368493Y-114851442D01*
X90383107Y-114871147D01*
X90395720Y-114892191D01*
X90406210Y-114914369D01*
X90414475Y-114937469D01*
X90420436Y-114961267D01*
X90424036Y-114985536D01*
X90425240Y-115010040D01*
X90425240Y-115935040D01*
X90424036Y-115959544D01*
X90420436Y-115983813D01*
X90414475Y-116007611D01*
X90406210Y-116030711D01*
X90395720Y-116052889D01*
X90383107Y-116073933D01*
X90368493Y-116093638D01*
X90352017Y-116111817D01*
X90333838Y-116128293D01*
X90314133Y-116142907D01*
X90293089Y-116155520D01*
X90270911Y-116166010D01*
X90247811Y-116174275D01*
X90224013Y-116180236D01*
X90199744Y-116183836D01*
X90175240Y-116185040D01*
X88925240Y-116185040D01*
X88900736Y-116183836D01*
X88876467Y-116180236D01*
X88852669Y-116174275D01*
X88829569Y-116166010D01*
X88807391Y-116155520D01*
X88786347Y-116142907D01*
X88766642Y-116128293D01*
X88748463Y-116111817D01*
X88731987Y-116093638D01*
X88717373Y-116073933D01*
X88704760Y-116052889D01*
X88694270Y-116030711D01*
X88686005Y-116007611D01*
X88680044Y-115983813D01*
X88676444Y-115959544D01*
X88675240Y-115935040D01*
X88675240Y-115010040D01*
X88676444Y-114985536D01*
X88680044Y-114961267D01*
X88686005Y-114937469D01*
X88694270Y-114914369D01*
X88704760Y-114892191D01*
X88717373Y-114871147D01*
X88731987Y-114851442D01*
X88748463Y-114833263D01*
X88766642Y-114816787D01*
X88786347Y-114802173D01*
X88807391Y-114789560D01*
X88829569Y-114779070D01*
X88852669Y-114770805D01*
X88876467Y-114764844D01*
X88900736Y-114761244D01*
X88925240Y-114760040D01*
X90175240Y-114760040D01*
X90199744Y-114761244D01*
G37*
G04 #@! TD.AperFunction*
G04 #@! TA.AperFunction,SMDPad,CuDef*
G36*
X102648284Y-96889804D02*
G01*
X102672553Y-96893404D01*
X102696351Y-96899365D01*
X102719451Y-96907630D01*
X102741629Y-96918120D01*
X102762673Y-96930733D01*
X102782378Y-96945347D01*
X102800557Y-96961823D01*
X102817033Y-96980002D01*
X102831647Y-96999707D01*
X102844260Y-97020751D01*
X102854750Y-97042929D01*
X102863015Y-97066029D01*
X102868976Y-97089827D01*
X102872576Y-97114096D01*
X102873780Y-97138600D01*
X102873780Y-98063600D01*
X102872576Y-98088104D01*
X102868976Y-98112373D01*
X102863015Y-98136171D01*
X102854750Y-98159271D01*
X102844260Y-98181449D01*
X102831647Y-98202493D01*
X102817033Y-98222198D01*
X102800557Y-98240377D01*
X102782378Y-98256853D01*
X102762673Y-98271467D01*
X102741629Y-98284080D01*
X102719451Y-98294570D01*
X102696351Y-98302835D01*
X102672553Y-98308796D01*
X102648284Y-98312396D01*
X102623780Y-98313600D01*
X101373780Y-98313600D01*
X101349276Y-98312396D01*
X101325007Y-98308796D01*
X101301209Y-98302835D01*
X101278109Y-98294570D01*
X101255931Y-98284080D01*
X101234887Y-98271467D01*
X101215182Y-98256853D01*
X101197003Y-98240377D01*
X101180527Y-98222198D01*
X101165913Y-98202493D01*
X101153300Y-98181449D01*
X101142810Y-98159271D01*
X101134545Y-98136171D01*
X101128584Y-98112373D01*
X101124984Y-98088104D01*
X101123780Y-98063600D01*
X101123780Y-97138600D01*
X101124984Y-97114096D01*
X101128584Y-97089827D01*
X101134545Y-97066029D01*
X101142810Y-97042929D01*
X101153300Y-97020751D01*
X101165913Y-96999707D01*
X101180527Y-96980002D01*
X101197003Y-96961823D01*
X101215182Y-96945347D01*
X101234887Y-96930733D01*
X101255931Y-96918120D01*
X101278109Y-96907630D01*
X101301209Y-96899365D01*
X101325007Y-96893404D01*
X101349276Y-96889804D01*
X101373780Y-96888600D01*
X102623780Y-96888600D01*
X102648284Y-96889804D01*
G37*
G04 #@! TD.AperFunction*
G04 #@! TA.AperFunction,SMDPad,CuDef*
G36*
X102648284Y-93914804D02*
G01*
X102672553Y-93918404D01*
X102696351Y-93924365D01*
X102719451Y-93932630D01*
X102741629Y-93943120D01*
X102762673Y-93955733D01*
X102782378Y-93970347D01*
X102800557Y-93986823D01*
X102817033Y-94005002D01*
X102831647Y-94024707D01*
X102844260Y-94045751D01*
X102854750Y-94067929D01*
X102863015Y-94091029D01*
X102868976Y-94114827D01*
X102872576Y-94139096D01*
X102873780Y-94163600D01*
X102873780Y-95088600D01*
X102872576Y-95113104D01*
X102868976Y-95137373D01*
X102863015Y-95161171D01*
X102854750Y-95184271D01*
X102844260Y-95206449D01*
X102831647Y-95227493D01*
X102817033Y-95247198D01*
X102800557Y-95265377D01*
X102782378Y-95281853D01*
X102762673Y-95296467D01*
X102741629Y-95309080D01*
X102719451Y-95319570D01*
X102696351Y-95327835D01*
X102672553Y-95333796D01*
X102648284Y-95337396D01*
X102623780Y-95338600D01*
X101373780Y-95338600D01*
X101349276Y-95337396D01*
X101325007Y-95333796D01*
X101301209Y-95327835D01*
X101278109Y-95319570D01*
X101255931Y-95309080D01*
X101234887Y-95296467D01*
X101215182Y-95281853D01*
X101197003Y-95265377D01*
X101180527Y-95247198D01*
X101165913Y-95227493D01*
X101153300Y-95206449D01*
X101142810Y-95184271D01*
X101134545Y-95161171D01*
X101128584Y-95137373D01*
X101124984Y-95113104D01*
X101123780Y-95088600D01*
X101123780Y-94163600D01*
X101124984Y-94139096D01*
X101128584Y-94114827D01*
X101134545Y-94091029D01*
X101142810Y-94067929D01*
X101153300Y-94045751D01*
X101165913Y-94024707D01*
X101180527Y-94005002D01*
X101197003Y-93986823D01*
X101215182Y-93970347D01*
X101234887Y-93955733D01*
X101255931Y-93943120D01*
X101278109Y-93932630D01*
X101301209Y-93924365D01*
X101325007Y-93918404D01*
X101349276Y-93914804D01*
X101373780Y-93913600D01*
X102623780Y-93913600D01*
X102648284Y-93914804D01*
G37*
G04 #@! TD.AperFunction*
D11*
X81155580Y-95080580D03*
X79255580Y-95080580D03*
X80205580Y-97080580D03*
X80246220Y-89558620D03*
X81196220Y-91558620D03*
X79296220Y-91558620D03*
D12*
X77470000Y-79110000D03*
D13*
X80010000Y-81650000D03*
X80010000Y-76570000D03*
X74930000Y-76570000D03*
X74930000Y-81650000D03*
X89340000Y-81650000D03*
X89340000Y-76570000D03*
X94420000Y-76570000D03*
X94420000Y-81650000D03*
D12*
X91880000Y-79110000D03*
X108074460Y-90965020D03*
D13*
X110614460Y-93505020D03*
X110614460Y-88425020D03*
X105534460Y-88425020D03*
X105534460Y-93505020D03*
D14*
X85813900Y-108491020D03*
X69813900Y-108491020D03*
X85813900Y-118491020D03*
X77813900Y-118491020D03*
X69813900Y-118491020D03*
X94086140Y-118600240D03*
X102086140Y-118600240D03*
X110086140Y-118600240D03*
X94086140Y-108600240D03*
X110086140Y-108600240D03*
G04 #@! TA.AperFunction,SMDPad,CuDef*
D10*
G36*
X90199744Y-105984884D02*
G01*
X90224013Y-105988484D01*
X90247811Y-105994445D01*
X90270911Y-106002710D01*
X90293089Y-106013200D01*
X90314133Y-106025813D01*
X90333838Y-106040427D01*
X90352017Y-106056903D01*
X90368493Y-106075082D01*
X90383107Y-106094787D01*
X90395720Y-106115831D01*
X90406210Y-106138009D01*
X90414475Y-106161109D01*
X90420436Y-106184907D01*
X90424036Y-106209176D01*
X90425240Y-106233680D01*
X90425240Y-107158680D01*
X90424036Y-107183184D01*
X90420436Y-107207453D01*
X90414475Y-107231251D01*
X90406210Y-107254351D01*
X90395720Y-107276529D01*
X90383107Y-107297573D01*
X90368493Y-107317278D01*
X90352017Y-107335457D01*
X90333838Y-107351933D01*
X90314133Y-107366547D01*
X90293089Y-107379160D01*
X90270911Y-107389650D01*
X90247811Y-107397915D01*
X90224013Y-107403876D01*
X90199744Y-107407476D01*
X90175240Y-107408680D01*
X88925240Y-107408680D01*
X88900736Y-107407476D01*
X88876467Y-107403876D01*
X88852669Y-107397915D01*
X88829569Y-107389650D01*
X88807391Y-107379160D01*
X88786347Y-107366547D01*
X88766642Y-107351933D01*
X88748463Y-107335457D01*
X88731987Y-107317278D01*
X88717373Y-107297573D01*
X88704760Y-107276529D01*
X88694270Y-107254351D01*
X88686005Y-107231251D01*
X88680044Y-107207453D01*
X88676444Y-107183184D01*
X88675240Y-107158680D01*
X88675240Y-106233680D01*
X88676444Y-106209176D01*
X88680044Y-106184907D01*
X88686005Y-106161109D01*
X88694270Y-106138009D01*
X88704760Y-106115831D01*
X88717373Y-106094787D01*
X88731987Y-106075082D01*
X88748463Y-106056903D01*
X88766642Y-106040427D01*
X88786347Y-106025813D01*
X88807391Y-106013200D01*
X88829569Y-106002710D01*
X88852669Y-105994445D01*
X88876467Y-105988484D01*
X88900736Y-105984884D01*
X88925240Y-105983680D01*
X90175240Y-105983680D01*
X90199744Y-105984884D01*
G37*
G04 #@! TD.AperFunction*
G04 #@! TA.AperFunction,SMDPad,CuDef*
G36*
X90199744Y-108959884D02*
G01*
X90224013Y-108963484D01*
X90247811Y-108969445D01*
X90270911Y-108977710D01*
X90293089Y-108988200D01*
X90314133Y-109000813D01*
X90333838Y-109015427D01*
X90352017Y-109031903D01*
X90368493Y-109050082D01*
X90383107Y-109069787D01*
X90395720Y-109090831D01*
X90406210Y-109113009D01*
X90414475Y-109136109D01*
X90420436Y-109159907D01*
X90424036Y-109184176D01*
X90425240Y-109208680D01*
X90425240Y-110133680D01*
X90424036Y-110158184D01*
X90420436Y-110182453D01*
X90414475Y-110206251D01*
X90406210Y-110229351D01*
X90395720Y-110251529D01*
X90383107Y-110272573D01*
X90368493Y-110292278D01*
X90352017Y-110310457D01*
X90333838Y-110326933D01*
X90314133Y-110341547D01*
X90293089Y-110354160D01*
X90270911Y-110364650D01*
X90247811Y-110372915D01*
X90224013Y-110378876D01*
X90199744Y-110382476D01*
X90175240Y-110383680D01*
X88925240Y-110383680D01*
X88900736Y-110382476D01*
X88876467Y-110378876D01*
X88852669Y-110372915D01*
X88829569Y-110364650D01*
X88807391Y-110354160D01*
X88786347Y-110341547D01*
X88766642Y-110326933D01*
X88748463Y-110310457D01*
X88731987Y-110292278D01*
X88717373Y-110272573D01*
X88704760Y-110251529D01*
X88694270Y-110229351D01*
X88686005Y-110206251D01*
X88680044Y-110182453D01*
X88676444Y-110158184D01*
X88675240Y-110133680D01*
X88675240Y-109208680D01*
X88676444Y-109184176D01*
X88680044Y-109159907D01*
X88686005Y-109136109D01*
X88694270Y-109113009D01*
X88704760Y-109090831D01*
X88717373Y-109069787D01*
X88731987Y-109050082D01*
X88748463Y-109031903D01*
X88766642Y-109015427D01*
X88786347Y-109000813D01*
X88807391Y-108988200D01*
X88829569Y-108977710D01*
X88852669Y-108969445D01*
X88876467Y-108963484D01*
X88900736Y-108959884D01*
X88925240Y-108958680D01*
X90175240Y-108958680D01*
X90199744Y-108959884D01*
G37*
G04 #@! TD.AperFunction*
D14*
X63573660Y-86652100D03*
X63573660Y-102652100D03*
X73573660Y-86652100D03*
X73573660Y-94652100D03*
X73573660Y-102652100D03*
X96580980Y-102652100D03*
X96580980Y-94652100D03*
X96580980Y-86652100D03*
X86580980Y-102652100D03*
X86580980Y-86652100D03*
D15*
X82984340Y-90726260D03*
X60934600Y-114338100D03*
X60840620Y-109141260D03*
X63555880Y-109186980D03*
X63510160Y-114198400D03*
X65991740Y-114292380D03*
X65943480Y-109186980D03*
X89766140Y-120307100D03*
X89766140Y-117589300D03*
X78679040Y-101500940D03*
X81488280Y-101500940D03*
X83545680Y-83766660D03*
X109311440Y-104221280D03*
X109265720Y-101506020D03*
X109265720Y-98930460D03*
X111747300Y-104269540D03*
X111699040Y-101739700D03*
X111793020Y-98884740D03*
X83820000Y-76200000D03*
X83820000Y-78740000D03*
X83820000Y-81280000D03*
X86360000Y-81280000D03*
X86360000Y-78740000D03*
X86360000Y-76200000D03*
X99060000Y-76200000D03*
X99060000Y-80010000D03*
X99060000Y-83820000D03*
X101600000Y-83820000D03*
X101600000Y-80010000D03*
X101600000Y-76200000D03*
X104140000Y-76200000D03*
X104140000Y-80010000D03*
X104140000Y-83820000D03*
X106680000Y-83820000D03*
X109220000Y-83820000D03*
X111760000Y-83820000D03*
X101600000Y-91440000D03*
X101600000Y-88900000D03*
X101600000Y-86360000D03*
X77619860Y-87932260D03*
X82964020Y-88049100D03*
D16*
X91880000Y-80559568D02*
X91880000Y-79110000D01*
X91880000Y-83474400D02*
X91880000Y-80559568D01*
X88702300Y-86652100D02*
X91880000Y-83474400D01*
X86580980Y-86652100D02*
X88702300Y-86652100D01*
X89550240Y-112497540D02*
X89550240Y-109671180D01*
X86994060Y-109671180D02*
X85813900Y-108491020D01*
X89550240Y-109671180D02*
X86994060Y-109671180D01*
X101998780Y-100351260D02*
X101935280Y-100414760D01*
X101998780Y-97601100D02*
X101998780Y-100351260D01*
X104869640Y-103349120D02*
X101935280Y-100414760D01*
X105539540Y-103349120D02*
X104869640Y-103349120D01*
X105539540Y-104053640D02*
X110086140Y-108600240D01*
X105539540Y-103349120D02*
X105539540Y-104053640D01*
X101972780Y-94652100D02*
X101998780Y-94626100D01*
X96580980Y-94652100D02*
X101972780Y-94652100D01*
X98080979Y-96152099D02*
X96580980Y-94652100D01*
X99080981Y-97152101D02*
X98080979Y-96152099D01*
X97780981Y-105152101D02*
X99080981Y-103852101D01*
X99080981Y-103852101D02*
X99080981Y-97152101D01*
X93834277Y-105152101D02*
X97780981Y-105152101D01*
X92290198Y-106696180D02*
X93834277Y-105152101D01*
X89550240Y-106696180D02*
X92290198Y-106696180D01*
X89009460Y-95080580D02*
X96580980Y-102652100D01*
X81155580Y-95080580D02*
X89009460Y-95080580D01*
X81196220Y-95039940D02*
X81155580Y-95080580D01*
X81196220Y-91558620D02*
X81196220Y-95039940D01*
X79255580Y-91599260D02*
X79296220Y-91558620D01*
X79255580Y-93372900D02*
X77619860Y-91737180D01*
X79255580Y-93372900D02*
X79255580Y-91599260D01*
X79255580Y-95080580D02*
X79255580Y-93372900D01*
X77619860Y-91737180D02*
X77619860Y-87932260D01*
X94080979Y-89152101D02*
X84067021Y-89152101D01*
X96580980Y-86652100D02*
X94080979Y-89152101D01*
X84067021Y-89152101D02*
X82964020Y-88049100D01*
X77619860Y-87932260D02*
X77619860Y-87932260D01*
X82964020Y-88049100D02*
X82964020Y-88049100D01*
X74634060Y-102652100D02*
X80205580Y-97080580D01*
X73573660Y-102652100D02*
X74634060Y-102652100D01*
X80246220Y-88108620D02*
X80246220Y-89558620D01*
X75914830Y-86432250D02*
X78569850Y-86432250D01*
X75694980Y-86652100D02*
X75914830Y-86432250D01*
X78569850Y-86432250D02*
X80246220Y-88108620D01*
X73573660Y-86652100D02*
X75694980Y-86652100D01*
X69527500Y-79110000D02*
X68840000Y-79797500D01*
X77470000Y-79110000D02*
X69527500Y-79110000D01*
X68840000Y-81882500D02*
X70057500Y-83100000D01*
X68840000Y-79797500D02*
X68840000Y-81882500D01*
X108074460Y-92414588D02*
X108074460Y-90965020D01*
X108074460Y-97126700D02*
X108074460Y-92414588D01*
X105539540Y-99661620D02*
X108074460Y-97126700D01*
X105539540Y-100374120D02*
X105539540Y-99661620D01*
X64577500Y-83100000D02*
X64557500Y-83080000D01*
X67082500Y-83100000D02*
X64577500Y-83100000D01*
X63573660Y-84063840D02*
X64557500Y-83080000D01*
X63573660Y-86652100D02*
X63573660Y-84063840D01*
D17*
G36*
X113467351Y-121501146D02*
G01*
X60355009Y-121488754D01*
X60354676Y-118367392D01*
X61084660Y-118367392D01*
X61084660Y-118807648D01*
X61170550Y-119239445D01*
X61339029Y-119646189D01*
X61583622Y-120012249D01*
X61894931Y-120323558D01*
X62260991Y-120568151D01*
X62667735Y-120736630D01*
X63099532Y-120822520D01*
X63539788Y-120822520D01*
X63971585Y-120736630D01*
X64378329Y-120568151D01*
X64744389Y-120323558D01*
X65055698Y-120012249D01*
X65300291Y-119646189D01*
X65468770Y-119239445D01*
X65554660Y-118807648D01*
X65554660Y-118367392D01*
X65537424Y-118280741D01*
X67678900Y-118280741D01*
X67678900Y-118701299D01*
X67760947Y-119113776D01*
X67921888Y-119502322D01*
X68155537Y-119852003D01*
X68452917Y-120149383D01*
X68802598Y-120383032D01*
X69191144Y-120543973D01*
X69603621Y-120626020D01*
X70024179Y-120626020D01*
X70436656Y-120543973D01*
X70825202Y-120383032D01*
X71174883Y-120149383D01*
X71472263Y-119852003D01*
X71705912Y-119502322D01*
X71866853Y-119113776D01*
X71948900Y-118701299D01*
X71948900Y-118280741D01*
X75678900Y-118280741D01*
X75678900Y-118701299D01*
X75760947Y-119113776D01*
X75921888Y-119502322D01*
X76155537Y-119852003D01*
X76452917Y-120149383D01*
X76802598Y-120383032D01*
X77191144Y-120543973D01*
X77603621Y-120626020D01*
X78024179Y-120626020D01*
X78436656Y-120543973D01*
X78825202Y-120383032D01*
X79174883Y-120149383D01*
X79472263Y-119852003D01*
X79705912Y-119502322D01*
X79866853Y-119113776D01*
X79948900Y-118701299D01*
X79948900Y-118280741D01*
X83678900Y-118280741D01*
X83678900Y-118701299D01*
X83760947Y-119113776D01*
X83921888Y-119502322D01*
X84155537Y-119852003D01*
X84452917Y-120149383D01*
X84802598Y-120383032D01*
X85191144Y-120543973D01*
X85603621Y-120626020D01*
X86024179Y-120626020D01*
X86436656Y-120543973D01*
X86825202Y-120383032D01*
X87174883Y-120149383D01*
X87472263Y-119852003D01*
X87705912Y-119502322D01*
X87866853Y-119113776D01*
X87948900Y-118701299D01*
X87948900Y-118389961D01*
X91951140Y-118389961D01*
X91951140Y-118810519D01*
X92033187Y-119222996D01*
X92194128Y-119611542D01*
X92427777Y-119961223D01*
X92725157Y-120258603D01*
X93074838Y-120492252D01*
X93463384Y-120653193D01*
X93875861Y-120735240D01*
X94296419Y-120735240D01*
X94708896Y-120653193D01*
X95097442Y-120492252D01*
X95447123Y-120258603D01*
X95744503Y-119961223D01*
X95978152Y-119611542D01*
X96139093Y-119222996D01*
X96221140Y-118810519D01*
X96221140Y-118389961D01*
X99951140Y-118389961D01*
X99951140Y-118810519D01*
X100033187Y-119222996D01*
X100194128Y-119611542D01*
X100427777Y-119961223D01*
X100725157Y-120258603D01*
X101074838Y-120492252D01*
X101463384Y-120653193D01*
X101875861Y-120735240D01*
X102296419Y-120735240D01*
X102708896Y-120653193D01*
X103097442Y-120492252D01*
X103447123Y-120258603D01*
X103744503Y-119961223D01*
X103978152Y-119611542D01*
X104139093Y-119222996D01*
X104221140Y-118810519D01*
X104221140Y-118389961D01*
X107951140Y-118389961D01*
X107951140Y-118810519D01*
X108033187Y-119222996D01*
X108194128Y-119611542D01*
X108427777Y-119961223D01*
X108725157Y-120258603D01*
X109074838Y-120492252D01*
X109463384Y-120653193D01*
X109875861Y-120735240D01*
X110296419Y-120735240D01*
X110708896Y-120653193D01*
X111097442Y-120492252D01*
X111447123Y-120258603D01*
X111744503Y-119961223D01*
X111978152Y-119611542D01*
X112139093Y-119222996D01*
X112221140Y-118810519D01*
X112221140Y-118389961D01*
X112139093Y-117977484D01*
X111978152Y-117588938D01*
X111744503Y-117239257D01*
X111447123Y-116941877D01*
X111097442Y-116708228D01*
X110708896Y-116547287D01*
X110296419Y-116465240D01*
X109875861Y-116465240D01*
X109463384Y-116547287D01*
X109074838Y-116708228D01*
X108725157Y-116941877D01*
X108427777Y-117239257D01*
X108194128Y-117588938D01*
X108033187Y-117977484D01*
X107951140Y-118389961D01*
X104221140Y-118389961D01*
X104139093Y-117977484D01*
X103978152Y-117588938D01*
X103744503Y-117239257D01*
X103447123Y-116941877D01*
X103097442Y-116708228D01*
X102708896Y-116547287D01*
X102296419Y-116465240D01*
X101875861Y-116465240D01*
X101463384Y-116547287D01*
X101074838Y-116708228D01*
X100725157Y-116941877D01*
X100427777Y-117239257D01*
X100194128Y-117588938D01*
X100033187Y-117977484D01*
X99951140Y-118389961D01*
X96221140Y-118389961D01*
X96139093Y-117977484D01*
X95978152Y-117588938D01*
X95744503Y-117239257D01*
X95447123Y-116941877D01*
X95097442Y-116708228D01*
X94708896Y-116547287D01*
X94296419Y-116465240D01*
X93875861Y-116465240D01*
X93463384Y-116547287D01*
X93074838Y-116708228D01*
X92725157Y-116941877D01*
X92427777Y-117239257D01*
X92194128Y-117588938D01*
X92033187Y-117977484D01*
X91951140Y-118389961D01*
X87948900Y-118389961D01*
X87948900Y-118280741D01*
X87866853Y-117868264D01*
X87705912Y-117479718D01*
X87472263Y-117130037D01*
X87174883Y-116832657D01*
X86825202Y-116599008D01*
X86436656Y-116438067D01*
X86024179Y-116356020D01*
X85603621Y-116356020D01*
X85191144Y-116438067D01*
X84802598Y-116599008D01*
X84452917Y-116832657D01*
X84155537Y-117130037D01*
X83921888Y-117479718D01*
X83760947Y-117868264D01*
X83678900Y-118280741D01*
X79948900Y-118280741D01*
X79866853Y-117868264D01*
X79705912Y-117479718D01*
X79472263Y-117130037D01*
X79174883Y-116832657D01*
X78825202Y-116599008D01*
X78436656Y-116438067D01*
X78024179Y-116356020D01*
X77603621Y-116356020D01*
X77191144Y-116438067D01*
X76802598Y-116599008D01*
X76452917Y-116832657D01*
X76155537Y-117130037D01*
X75921888Y-117479718D01*
X75760947Y-117868264D01*
X75678900Y-118280741D01*
X71948900Y-118280741D01*
X71866853Y-117868264D01*
X71705912Y-117479718D01*
X71472263Y-117130037D01*
X71174883Y-116832657D01*
X70825202Y-116599008D01*
X70436656Y-116438067D01*
X70024179Y-116356020D01*
X69603621Y-116356020D01*
X69191144Y-116438067D01*
X68802598Y-116599008D01*
X68452917Y-116832657D01*
X68155537Y-117130037D01*
X67921888Y-117479718D01*
X67760947Y-117868264D01*
X67678900Y-118280741D01*
X65537424Y-118280741D01*
X65468770Y-117935595D01*
X65300291Y-117528851D01*
X65055698Y-117162791D01*
X64744389Y-116851482D01*
X64378329Y-116606889D01*
X63971585Y-116438410D01*
X63539788Y-116352520D01*
X63099532Y-116352520D01*
X62667735Y-116438410D01*
X62260991Y-116606889D01*
X61894931Y-116851482D01*
X61583622Y-117162791D01*
X61339029Y-117528851D01*
X61170550Y-117935595D01*
X61084660Y-118367392D01*
X60354676Y-118367392D01*
X60354444Y-116185040D01*
X88037168Y-116185040D01*
X88049428Y-116309522D01*
X88085738Y-116429220D01*
X88144703Y-116539534D01*
X88224055Y-116636225D01*
X88320746Y-116715577D01*
X88431060Y-116774542D01*
X88550758Y-116810852D01*
X88675240Y-116823112D01*
X89264490Y-116820040D01*
X89423240Y-116661290D01*
X89423240Y-115599540D01*
X89677240Y-115599540D01*
X89677240Y-116661290D01*
X89835990Y-116820040D01*
X90425240Y-116823112D01*
X90549722Y-116810852D01*
X90669420Y-116774542D01*
X90779734Y-116715577D01*
X90876425Y-116636225D01*
X90955777Y-116539534D01*
X91014742Y-116429220D01*
X91051052Y-116309522D01*
X91063312Y-116185040D01*
X91060240Y-115758290D01*
X90901490Y-115599540D01*
X89677240Y-115599540D01*
X89423240Y-115599540D01*
X88198990Y-115599540D01*
X88040240Y-115758290D01*
X88037168Y-116185040D01*
X60354444Y-116185040D01*
X60354292Y-114760040D01*
X88037168Y-114760040D01*
X88040240Y-115186790D01*
X88198990Y-115345540D01*
X89423240Y-115345540D01*
X89423240Y-114283790D01*
X89677240Y-114283790D01*
X89677240Y-115345540D01*
X90901490Y-115345540D01*
X91060240Y-115186790D01*
X91063312Y-114760040D01*
X91051052Y-114635558D01*
X91014742Y-114515860D01*
X90955777Y-114405546D01*
X90876425Y-114308855D01*
X90779734Y-114229503D01*
X90669420Y-114170538D01*
X90549722Y-114134228D01*
X90425240Y-114121968D01*
X89835990Y-114125040D01*
X89677240Y-114283790D01*
X89423240Y-114283790D01*
X89264490Y-114125040D01*
X88675240Y-114121968D01*
X88550758Y-114134228D01*
X88431060Y-114170538D01*
X88320746Y-114229503D01*
X88224055Y-114308855D01*
X88144703Y-114405546D01*
X88085738Y-114515860D01*
X88049428Y-114635558D01*
X88037168Y-114760040D01*
X60354292Y-114760040D01*
X60353781Y-109982673D01*
X68501852Y-109982673D01*
X68657862Y-110298234D01*
X69032645Y-110489040D01*
X69437451Y-110603064D01*
X69856724Y-110635922D01*
X70274351Y-110586354D01*
X70674283Y-110456263D01*
X70969938Y-110298234D01*
X71125948Y-109982673D01*
X69813900Y-108670625D01*
X68501852Y-109982673D01*
X60353781Y-109982673D01*
X60353626Y-108533844D01*
X67668998Y-108533844D01*
X67718566Y-108951471D01*
X67848657Y-109351403D01*
X68006686Y-109647058D01*
X68322247Y-109803068D01*
X69634295Y-108491020D01*
X69993505Y-108491020D01*
X71305553Y-109803068D01*
X71621114Y-109647058D01*
X71811920Y-109272275D01*
X71925944Y-108867469D01*
X71958802Y-108448196D01*
X71938927Y-108280741D01*
X83678900Y-108280741D01*
X83678900Y-108701299D01*
X83760947Y-109113776D01*
X83921888Y-109502322D01*
X84155537Y-109852003D01*
X84452917Y-110149383D01*
X84802598Y-110383032D01*
X85191144Y-110543973D01*
X85603621Y-110626020D01*
X86024179Y-110626020D01*
X86301266Y-110570904D01*
X86360437Y-110619464D01*
X86557613Y-110724856D01*
X86771561Y-110789757D01*
X86938308Y-110806180D01*
X86938317Y-110806180D01*
X86994059Y-110811670D01*
X87049801Y-110806180D01*
X88351548Y-110806180D01*
X88415241Y-110858451D01*
X88415240Y-111310269D01*
X88297278Y-111407078D01*
X88186835Y-111541654D01*
X88104768Y-111695190D01*
X88054232Y-111861786D01*
X88037168Y-112035040D01*
X88037168Y-112960040D01*
X88054232Y-113133294D01*
X88104768Y-113299890D01*
X88186835Y-113453426D01*
X88297278Y-113588002D01*
X88431854Y-113698445D01*
X88585390Y-113780512D01*
X88751986Y-113831048D01*
X88925240Y-113848112D01*
X90175240Y-113848112D01*
X90348494Y-113831048D01*
X90515090Y-113780512D01*
X90668626Y-113698445D01*
X90803202Y-113588002D01*
X90913645Y-113453426D01*
X90995712Y-113299890D01*
X91046248Y-113133294D01*
X91063312Y-112960040D01*
X91063312Y-112035040D01*
X91046248Y-111861786D01*
X90995712Y-111695190D01*
X90913645Y-111541654D01*
X90803202Y-111407078D01*
X90685240Y-111310270D01*
X90685240Y-110858450D01*
X90803202Y-110761642D01*
X90913645Y-110627066D01*
X90995712Y-110473530D01*
X91046248Y-110306934D01*
X91063312Y-110133680D01*
X91063312Y-110091893D01*
X92774092Y-110091893D01*
X92930102Y-110407454D01*
X93304885Y-110598260D01*
X93709691Y-110712284D01*
X94128964Y-110745142D01*
X94546591Y-110695574D01*
X94946523Y-110565483D01*
X95242178Y-110407454D01*
X95398188Y-110091893D01*
X94086140Y-108779845D01*
X92774092Y-110091893D01*
X91063312Y-110091893D01*
X91063312Y-109208680D01*
X91046248Y-109035426D01*
X90995712Y-108868830D01*
X90913645Y-108715294D01*
X90803202Y-108580718D01*
X90668626Y-108470275D01*
X90515090Y-108388208D01*
X90348494Y-108337672D01*
X90175240Y-108320608D01*
X88925240Y-108320608D01*
X88751986Y-108337672D01*
X88585390Y-108388208D01*
X88431854Y-108470275D01*
X88351548Y-108536180D01*
X87948900Y-108536180D01*
X87948900Y-108280741D01*
X87866853Y-107868264D01*
X87705912Y-107479718D01*
X87472263Y-107130037D01*
X87174883Y-106832657D01*
X86825202Y-106599008D01*
X86436656Y-106438067D01*
X86024179Y-106356020D01*
X85603621Y-106356020D01*
X85191144Y-106438067D01*
X84802598Y-106599008D01*
X84452917Y-106832657D01*
X84155537Y-107130037D01*
X83921888Y-107479718D01*
X83760947Y-107868264D01*
X83678900Y-108280741D01*
X71938927Y-108280741D01*
X71909234Y-108030569D01*
X71779143Y-107630637D01*
X71621114Y-107334982D01*
X71305553Y-107178972D01*
X69993505Y-108491020D01*
X69634295Y-108491020D01*
X68322247Y-107178972D01*
X68006686Y-107334982D01*
X67815880Y-107709765D01*
X67701856Y-108114571D01*
X67668998Y-108533844D01*
X60353626Y-108533844D01*
X60353463Y-106999367D01*
X68501852Y-106999367D01*
X69813900Y-108311415D01*
X71125948Y-106999367D01*
X70969938Y-106683806D01*
X70595155Y-106493000D01*
X70190349Y-106378976D01*
X69771076Y-106346118D01*
X69353449Y-106395686D01*
X68953517Y-106525777D01*
X68657862Y-106683806D01*
X68501852Y-106999367D01*
X60353463Y-106999367D01*
X60353157Y-104143753D01*
X62261612Y-104143753D01*
X62417622Y-104459314D01*
X62792405Y-104650120D01*
X63197211Y-104764144D01*
X63616484Y-104797002D01*
X64034111Y-104747434D01*
X64434043Y-104617343D01*
X64729698Y-104459314D01*
X64885708Y-104143753D01*
X63573660Y-102831705D01*
X62261612Y-104143753D01*
X60353157Y-104143753D01*
X60353002Y-102694924D01*
X61428758Y-102694924D01*
X61478326Y-103112551D01*
X61608417Y-103512483D01*
X61766446Y-103808138D01*
X62082007Y-103964148D01*
X63394055Y-102652100D01*
X63753265Y-102652100D01*
X65065313Y-103964148D01*
X65380874Y-103808138D01*
X65571680Y-103433355D01*
X65685704Y-103028549D01*
X65718562Y-102609276D01*
X65668994Y-102191649D01*
X65538903Y-101791717D01*
X65380874Y-101496062D01*
X65065313Y-101340052D01*
X63753265Y-102652100D01*
X63394055Y-102652100D01*
X62082007Y-101340052D01*
X61766446Y-101496062D01*
X61575640Y-101870845D01*
X61461616Y-102275651D01*
X61428758Y-102694924D01*
X60353002Y-102694924D01*
X60352839Y-101160447D01*
X62261612Y-101160447D01*
X63573660Y-102472495D01*
X64885708Y-101160447D01*
X64729698Y-100844886D01*
X64354915Y-100654080D01*
X63950109Y-100540056D01*
X63530836Y-100507198D01*
X63113209Y-100556766D01*
X62713277Y-100686857D01*
X62417622Y-100844886D01*
X62261612Y-101160447D01*
X60352839Y-101160447D01*
X60352303Y-96143753D01*
X72261612Y-96143753D01*
X72417622Y-96459314D01*
X72792405Y-96650120D01*
X73197211Y-96764144D01*
X73616484Y-96797002D01*
X74034111Y-96747434D01*
X74434043Y-96617343D01*
X74729698Y-96459314D01*
X74885708Y-96143753D01*
X73573660Y-94831705D01*
X72261612Y-96143753D01*
X60352303Y-96143753D01*
X60352148Y-94694924D01*
X71428758Y-94694924D01*
X71478326Y-95112551D01*
X71608417Y-95512483D01*
X71766446Y-95808138D01*
X72082007Y-95964148D01*
X73394055Y-94652100D01*
X73753265Y-94652100D01*
X75065313Y-95964148D01*
X75380874Y-95808138D01*
X75571680Y-95433355D01*
X75685704Y-95028549D01*
X75718562Y-94609276D01*
X75668994Y-94191649D01*
X75538903Y-93791717D01*
X75380874Y-93496062D01*
X75065313Y-93340052D01*
X73753265Y-94652100D01*
X73394055Y-94652100D01*
X72082007Y-93340052D01*
X71766446Y-93496062D01*
X71575640Y-93870845D01*
X71461616Y-94275651D01*
X71428758Y-94694924D01*
X60352148Y-94694924D01*
X60351984Y-93160447D01*
X72261612Y-93160447D01*
X73573660Y-94472495D01*
X74885708Y-93160447D01*
X74729698Y-92844886D01*
X74354915Y-92654080D01*
X73950109Y-92540056D01*
X73530836Y-92507198D01*
X73113209Y-92556766D01*
X72713277Y-92686857D01*
X72417622Y-92844886D01*
X72261612Y-93160447D01*
X60351984Y-93160447D01*
X60351265Y-86441821D01*
X61438660Y-86441821D01*
X61438660Y-86862379D01*
X61520707Y-87274856D01*
X61681648Y-87663402D01*
X61915297Y-88013083D01*
X62212677Y-88310463D01*
X62562358Y-88544112D01*
X62950904Y-88705053D01*
X63363381Y-88787100D01*
X63783939Y-88787100D01*
X64196416Y-88705053D01*
X64584962Y-88544112D01*
X64934643Y-88310463D01*
X65232023Y-88013083D01*
X65465672Y-87663402D01*
X65626613Y-87274856D01*
X65708660Y-86862379D01*
X65708660Y-86441821D01*
X71438660Y-86441821D01*
X71438660Y-86862379D01*
X71520707Y-87274856D01*
X71681648Y-87663402D01*
X71915297Y-88013083D01*
X72212677Y-88310463D01*
X72562358Y-88544112D01*
X72950904Y-88705053D01*
X73363381Y-88787100D01*
X73783939Y-88787100D01*
X74196416Y-88705053D01*
X74584962Y-88544112D01*
X74934643Y-88310463D01*
X75232023Y-88013083D01*
X75383020Y-87787100D01*
X75639229Y-87787100D01*
X75694980Y-87792591D01*
X75750731Y-87787100D01*
X75750732Y-87787100D01*
X75917479Y-87770677D01*
X76131427Y-87705776D01*
X76328603Y-87600384D01*
X76368977Y-87567250D01*
X76544514Y-87567250D01*
X76501283Y-87709761D01*
X76479369Y-87932260D01*
X76484861Y-87988022D01*
X76484860Y-91681428D01*
X76479369Y-91737180D01*
X76484860Y-91792931D01*
X76501283Y-91959678D01*
X76566184Y-92173626D01*
X76671576Y-92370803D01*
X76813411Y-92543629D01*
X76856725Y-92579176D01*
X78120580Y-93843032D01*
X78120580Y-95136331D01*
X78137003Y-95303078D01*
X78201904Y-95517026D01*
X78219396Y-95549752D01*
X78229768Y-95655062D01*
X78266078Y-95774760D01*
X78325043Y-95885074D01*
X78404395Y-95981765D01*
X78501086Y-96061117D01*
X78611400Y-96120082D01*
X78731098Y-96156392D01*
X78855580Y-96168652D01*
X78932520Y-96168652D01*
X79033081Y-96199157D01*
X79255580Y-96221071D01*
X79325874Y-96214148D01*
X79275043Y-96276086D01*
X79216078Y-96386400D01*
X79181875Y-96499153D01*
X74786367Y-100894662D01*
X74584962Y-100760088D01*
X74196416Y-100599147D01*
X73783939Y-100517100D01*
X73363381Y-100517100D01*
X72950904Y-100599147D01*
X72562358Y-100760088D01*
X72212677Y-100993737D01*
X71915297Y-101291117D01*
X71681648Y-101640798D01*
X71520707Y-102029344D01*
X71438660Y-102441821D01*
X71438660Y-102862379D01*
X71520707Y-103274856D01*
X71681648Y-103663402D01*
X71915297Y-104013083D01*
X72212677Y-104310463D01*
X72562358Y-104544112D01*
X72950904Y-104705053D01*
X73363381Y-104787100D01*
X73783939Y-104787100D01*
X74196416Y-104705053D01*
X74584962Y-104544112D01*
X74934643Y-104310463D01*
X75101353Y-104143753D01*
X85268932Y-104143753D01*
X85424942Y-104459314D01*
X85799725Y-104650120D01*
X86204531Y-104764144D01*
X86623804Y-104797002D01*
X87041431Y-104747434D01*
X87441363Y-104617343D01*
X87737018Y-104459314D01*
X87893028Y-104143753D01*
X86580980Y-102831705D01*
X85268932Y-104143753D01*
X75101353Y-104143753D01*
X75232023Y-104013083D01*
X75465672Y-103663402D01*
X75626613Y-103274856D01*
X75629140Y-103262151D01*
X76196367Y-102694924D01*
X84436078Y-102694924D01*
X84485646Y-103112551D01*
X84615737Y-103512483D01*
X84773766Y-103808138D01*
X85089327Y-103964148D01*
X86401375Y-102652100D01*
X86760585Y-102652100D01*
X88072633Y-103964148D01*
X88388194Y-103808138D01*
X88579000Y-103433355D01*
X88693024Y-103028549D01*
X88725882Y-102609276D01*
X88676314Y-102191649D01*
X88546223Y-101791717D01*
X88388194Y-101496062D01*
X88072633Y-101340052D01*
X86760585Y-102652100D01*
X86401375Y-102652100D01*
X85089327Y-101340052D01*
X84773766Y-101496062D01*
X84582960Y-101870845D01*
X84468936Y-102275651D01*
X84436078Y-102694924D01*
X76196367Y-102694924D01*
X77730844Y-101160447D01*
X85268932Y-101160447D01*
X86580980Y-102472495D01*
X87893028Y-101160447D01*
X87737018Y-100844886D01*
X87362235Y-100654080D01*
X86957429Y-100540056D01*
X86538156Y-100507198D01*
X86120529Y-100556766D01*
X85720597Y-100686857D01*
X85424942Y-100844886D01*
X85268932Y-101160447D01*
X77730844Y-101160447D01*
X80737007Y-98154285D01*
X80849760Y-98120082D01*
X80960074Y-98061117D01*
X81056765Y-97981765D01*
X81136117Y-97885074D01*
X81195082Y-97774760D01*
X81231392Y-97655062D01*
X81241764Y-97549751D01*
X81259255Y-97517027D01*
X81324157Y-97303080D01*
X81346071Y-97080581D01*
X81324157Y-96858082D01*
X81259255Y-96644134D01*
X81241764Y-96611410D01*
X81231392Y-96506098D01*
X81195082Y-96386400D01*
X81136117Y-96276086D01*
X81085286Y-96214148D01*
X81099828Y-96215580D01*
X81099829Y-96215580D01*
X81155580Y-96221071D01*
X81211331Y-96215580D01*
X88539329Y-96215580D01*
X94499003Y-102175255D01*
X94445980Y-102441821D01*
X94445980Y-102862379D01*
X94528027Y-103274856D01*
X94688968Y-103663402D01*
X94922617Y-104013083D01*
X94926635Y-104017101D01*
X93890018Y-104017101D01*
X93834276Y-104011611D01*
X93778534Y-104017101D01*
X93778525Y-104017101D01*
X93611778Y-104033524D01*
X93397830Y-104098425D01*
X93200654Y-104203817D01*
X93027828Y-104345652D01*
X92992288Y-104388958D01*
X91820067Y-105561180D01*
X90748932Y-105561180D01*
X90668626Y-105495275D01*
X90515090Y-105413208D01*
X90348494Y-105362672D01*
X90175240Y-105345608D01*
X88925240Y-105345608D01*
X88751986Y-105362672D01*
X88585390Y-105413208D01*
X88431854Y-105495275D01*
X88297278Y-105605718D01*
X88186835Y-105740294D01*
X88104768Y-105893830D01*
X88054232Y-106060426D01*
X88037168Y-106233680D01*
X88037168Y-107158680D01*
X88054232Y-107331934D01*
X88104768Y-107498530D01*
X88186835Y-107652066D01*
X88297278Y-107786642D01*
X88431854Y-107897085D01*
X88585390Y-107979152D01*
X88751986Y-108029688D01*
X88925240Y-108046752D01*
X90175240Y-108046752D01*
X90348494Y-108029688D01*
X90515090Y-107979152D01*
X90668626Y-107897085D01*
X90748932Y-107831180D01*
X92084685Y-107831180D01*
X91974096Y-108223791D01*
X91941238Y-108643064D01*
X91990806Y-109060691D01*
X92120897Y-109460623D01*
X92278926Y-109756278D01*
X92594487Y-109912288D01*
X93906535Y-108600240D01*
X94265745Y-108600240D01*
X95577793Y-109912288D01*
X95893354Y-109756278D01*
X96084160Y-109381495D01*
X96198184Y-108976689D01*
X96231042Y-108557416D01*
X96181474Y-108139789D01*
X96051383Y-107739857D01*
X95893354Y-107444202D01*
X95577793Y-107288192D01*
X94265745Y-108600240D01*
X93906535Y-108600240D01*
X93892393Y-108586098D01*
X94071998Y-108406493D01*
X94086140Y-108420635D01*
X95398188Y-107108587D01*
X95242178Y-106793026D01*
X94867395Y-106602220D01*
X94462589Y-106488196D01*
X94129424Y-106462086D01*
X94304409Y-106287101D01*
X97725230Y-106287101D01*
X97780981Y-106292592D01*
X97836732Y-106287101D01*
X97836733Y-106287101D01*
X98003480Y-106270678D01*
X98217428Y-106205777D01*
X98414604Y-106100385D01*
X98587430Y-105958550D01*
X98622976Y-105915237D01*
X99844127Y-104694088D01*
X99887430Y-104658550D01*
X99953118Y-104578510D01*
X100029265Y-104485724D01*
X100134657Y-104288548D01*
X100191167Y-104102260D01*
X100422208Y-104102260D01*
X100434468Y-104226742D01*
X100470778Y-104346440D01*
X100529743Y-104456754D01*
X100609095Y-104553445D01*
X100705786Y-104632797D01*
X100816100Y-104691762D01*
X100935798Y-104728072D01*
X101060280Y-104740332D01*
X101649530Y-104737260D01*
X101808280Y-104578510D01*
X101808280Y-103516760D01*
X100584030Y-103516760D01*
X100425280Y-103675510D01*
X100422208Y-104102260D01*
X100191167Y-104102260D01*
X100199558Y-104074600D01*
X100221472Y-103852101D01*
X100215981Y-103796349D01*
X100215981Y-102677260D01*
X100422208Y-102677260D01*
X100425280Y-103104010D01*
X100584030Y-103262760D01*
X101808280Y-103262760D01*
X101808280Y-102201010D01*
X101649530Y-102042260D01*
X101060280Y-102039188D01*
X100935798Y-102051448D01*
X100816100Y-102087758D01*
X100705786Y-102146723D01*
X100609095Y-102226075D01*
X100529743Y-102322766D01*
X100470778Y-102433080D01*
X100434468Y-102552778D01*
X100422208Y-102677260D01*
X100215981Y-102677260D01*
X100215981Y-99952260D01*
X100422208Y-99952260D01*
X100422208Y-100877260D01*
X100439272Y-101050514D01*
X100489808Y-101217110D01*
X100571875Y-101370646D01*
X100682318Y-101505222D01*
X100816894Y-101615665D01*
X100970430Y-101697732D01*
X101137026Y-101748268D01*
X101310280Y-101765332D01*
X101680721Y-101765332D01*
X102089339Y-102173951D01*
X102062280Y-102201010D01*
X102062280Y-103262760D01*
X102082280Y-103262760D01*
X102082280Y-103516760D01*
X102062280Y-103516760D01*
X102062280Y-104578510D01*
X102221030Y-104737260D01*
X102810280Y-104740332D01*
X102934762Y-104728072D01*
X103054460Y-104691762D01*
X103164774Y-104632797D01*
X103261465Y-104553445D01*
X103340817Y-104456754D01*
X103399782Y-104346440D01*
X103436092Y-104226742D01*
X103448352Y-104102260D01*
X103445280Y-103675510D01*
X103286532Y-103516762D01*
X103432150Y-103516762D01*
X104027653Y-104112266D01*
X104063191Y-104155569D01*
X104106494Y-104191107D01*
X104106496Y-104191109D01*
X104122101Y-104203916D01*
X104176135Y-104305006D01*
X104286578Y-104439582D01*
X104421154Y-104550025D01*
X104556599Y-104622422D01*
X104591257Y-104687263D01*
X104733092Y-104860089D01*
X104776400Y-104895631D01*
X108004163Y-108123395D01*
X107951140Y-108389961D01*
X107951140Y-108810519D01*
X108033187Y-109222996D01*
X108194128Y-109611542D01*
X108427777Y-109961223D01*
X108725157Y-110258603D01*
X109074838Y-110492252D01*
X109463384Y-110653193D01*
X109875861Y-110735240D01*
X110296419Y-110735240D01*
X110708896Y-110653193D01*
X111097442Y-110492252D01*
X111447123Y-110258603D01*
X111744503Y-109961223D01*
X111978152Y-109611542D01*
X112139093Y-109222996D01*
X112221140Y-108810519D01*
X112221140Y-108389961D01*
X112139093Y-107977484D01*
X111978152Y-107588938D01*
X111744503Y-107239257D01*
X111447123Y-106941877D01*
X111097442Y-106708228D01*
X110708896Y-106547287D01*
X110296419Y-106465240D01*
X109875861Y-106465240D01*
X109609295Y-106518263D01*
X107039166Y-103948135D01*
X107052612Y-103811620D01*
X107052612Y-102886620D01*
X107035548Y-102713366D01*
X106985012Y-102546770D01*
X106902945Y-102393234D01*
X106792502Y-102258658D01*
X106657926Y-102148215D01*
X106504390Y-102066148D01*
X106337794Y-102015612D01*
X106164540Y-101998548D01*
X105124201Y-101998548D01*
X104843331Y-101717679D01*
X104914540Y-101724692D01*
X106164540Y-101724692D01*
X106337794Y-101707628D01*
X106504390Y-101657092D01*
X106657926Y-101575025D01*
X106792502Y-101464582D01*
X106902945Y-101330006D01*
X106985012Y-101176470D01*
X107035548Y-101009874D01*
X107052612Y-100836620D01*
X107052612Y-99911620D01*
X107038451Y-99767840D01*
X108837601Y-97968691D01*
X108880909Y-97933149D01*
X109022744Y-97760323D01*
X109128136Y-97563147D01*
X109193037Y-97349199D01*
X109209460Y-97182452D01*
X109209460Y-97182443D01*
X109214950Y-97126701D01*
X109209460Y-97070959D01*
X109209460Y-94729551D01*
X109569534Y-94729551D01*
X109680381Y-95006734D01*
X109991300Y-95160109D01*
X110326165Y-95249880D01*
X110672110Y-95272596D01*
X111015840Y-95227386D01*
X111344145Y-95115986D01*
X111548539Y-95006734D01*
X111659386Y-94729551D01*
X110614460Y-93684625D01*
X109569534Y-94729551D01*
X109209460Y-94729551D01*
X109209460Y-94477775D01*
X109389929Y-94549946D01*
X110434855Y-93505020D01*
X110794065Y-93505020D01*
X111838991Y-94549946D01*
X112116174Y-94439099D01*
X112269549Y-94128180D01*
X112359320Y-93793315D01*
X112382036Y-93447370D01*
X112336826Y-93103640D01*
X112225426Y-92775335D01*
X112116174Y-92570941D01*
X111838991Y-92460094D01*
X110794065Y-93505020D01*
X110434855Y-93505020D01*
X109389929Y-92460094D01*
X109209460Y-92532265D01*
X109209460Y-92280489D01*
X109569534Y-92280489D01*
X110614460Y-93325415D01*
X111659386Y-92280489D01*
X111548539Y-92003306D01*
X111237620Y-91849931D01*
X110902755Y-91760160D01*
X110556810Y-91737444D01*
X110213080Y-91782654D01*
X109884775Y-91894054D01*
X109680381Y-92003306D01*
X109569534Y-92280489D01*
X109209460Y-92280489D01*
X109209460Y-92177614D01*
X109363866Y-92023208D01*
X109545533Y-91751325D01*
X109670667Y-91449224D01*
X109734460Y-91128516D01*
X109734460Y-90801524D01*
X109670667Y-90480816D01*
X109545533Y-90178715D01*
X109363866Y-89906832D01*
X109132648Y-89675614D01*
X109093643Y-89649551D01*
X109569534Y-89649551D01*
X109680381Y-89926734D01*
X109991300Y-90080109D01*
X110326165Y-90169880D01*
X110672110Y-90192596D01*
X111015840Y-90147386D01*
X111344145Y-90035986D01*
X111548539Y-89926734D01*
X111659386Y-89649551D01*
X110614460Y-88604625D01*
X109569534Y-89649551D01*
X109093643Y-89649551D01*
X108860765Y-89493947D01*
X108558664Y-89368813D01*
X108237956Y-89305020D01*
X107910964Y-89305020D01*
X107590256Y-89368813D01*
X107288155Y-89493947D01*
X107016272Y-89675614D01*
X106785054Y-89906832D01*
X106603387Y-90178715D01*
X106478253Y-90480816D01*
X106414460Y-90801524D01*
X106414460Y-91128516D01*
X106478253Y-91449224D01*
X106603387Y-91751325D01*
X106785054Y-92023208D01*
X106939460Y-92177614D01*
X106939460Y-92470339D01*
X106939461Y-92470349D01*
X106939461Y-92532265D01*
X106758991Y-92460094D01*
X105714065Y-93505020D01*
X106758991Y-94549946D01*
X106939461Y-94477775D01*
X106939460Y-96656568D01*
X104776400Y-98819629D01*
X104733092Y-98855171D01*
X104591257Y-99027997D01*
X104550627Y-99104010D01*
X104421154Y-99173215D01*
X104286578Y-99283658D01*
X104176135Y-99418234D01*
X104094068Y-99571770D01*
X104043532Y-99738366D01*
X104026468Y-99911620D01*
X104026468Y-100836620D01*
X104033482Y-100907830D01*
X103448352Y-100322701D01*
X103448352Y-99952260D01*
X103431288Y-99779006D01*
X103380752Y-99612410D01*
X103298685Y-99458874D01*
X103188242Y-99324298D01*
X103133780Y-99279602D01*
X103133780Y-98788370D01*
X103251742Y-98691562D01*
X103362185Y-98556986D01*
X103444252Y-98403450D01*
X103494788Y-98236854D01*
X103511852Y-98063600D01*
X103511852Y-97138600D01*
X103494788Y-96965346D01*
X103444252Y-96798750D01*
X103362185Y-96645214D01*
X103251742Y-96510638D01*
X103117166Y-96400195D01*
X102963630Y-96318128D01*
X102797034Y-96267592D01*
X102623780Y-96250528D01*
X101373780Y-96250528D01*
X101200526Y-96267592D01*
X101033930Y-96318128D01*
X100880394Y-96400195D01*
X100745818Y-96510638D01*
X100635375Y-96645214D01*
X100553308Y-96798750D01*
X100502772Y-96965346D01*
X100485708Y-97138600D01*
X100485708Y-98063600D01*
X100502772Y-98236854D01*
X100553308Y-98403450D01*
X100635375Y-98556986D01*
X100745818Y-98691562D01*
X100863780Y-98788371D01*
X100863781Y-99188794D01*
X100816894Y-99213855D01*
X100682318Y-99324298D01*
X100571875Y-99458874D01*
X100489808Y-99612410D01*
X100439272Y-99779006D01*
X100422208Y-99952260D01*
X100215981Y-99952260D01*
X100215981Y-97207842D01*
X100221471Y-97152100D01*
X100215981Y-97096358D01*
X100215981Y-97096349D01*
X100199558Y-96929602D01*
X100134657Y-96715654D01*
X100029265Y-96518478D01*
X99887430Y-96345652D01*
X99844121Y-96310109D01*
X99321111Y-95787100D01*
X100831769Y-95787100D01*
X100880394Y-95827005D01*
X101033930Y-95909072D01*
X101200526Y-95959608D01*
X101373780Y-95976672D01*
X102623780Y-95976672D01*
X102797034Y-95959608D01*
X102963630Y-95909072D01*
X103117166Y-95827005D01*
X103251742Y-95716562D01*
X103362185Y-95581986D01*
X103444252Y-95428450D01*
X103494788Y-95261854D01*
X103511852Y-95088600D01*
X103511852Y-94729551D01*
X104489534Y-94729551D01*
X104600381Y-95006734D01*
X104911300Y-95160109D01*
X105246165Y-95249880D01*
X105592110Y-95272596D01*
X105935840Y-95227386D01*
X106264145Y-95115986D01*
X106468539Y-95006734D01*
X106579386Y-94729551D01*
X105534460Y-93684625D01*
X104489534Y-94729551D01*
X103511852Y-94729551D01*
X103511852Y-94163600D01*
X103494788Y-93990346D01*
X103444252Y-93823750D01*
X103362185Y-93670214D01*
X103273927Y-93562670D01*
X103766884Y-93562670D01*
X103812094Y-93906400D01*
X103923494Y-94234705D01*
X104032746Y-94439099D01*
X104309929Y-94549946D01*
X105354855Y-93505020D01*
X104309929Y-92460094D01*
X104032746Y-92570941D01*
X103879371Y-92881860D01*
X103789600Y-93216725D01*
X103766884Y-93562670D01*
X103273927Y-93562670D01*
X103251742Y-93535638D01*
X103117166Y-93425195D01*
X102963630Y-93343128D01*
X102797034Y-93292592D01*
X102623780Y-93275528D01*
X101373780Y-93275528D01*
X101200526Y-93292592D01*
X101033930Y-93343128D01*
X100880394Y-93425195D01*
X100768407Y-93517100D01*
X98390340Y-93517100D01*
X98239343Y-93291117D01*
X97941963Y-92993737D01*
X97592282Y-92760088D01*
X97203736Y-92599147D01*
X96791259Y-92517100D01*
X96370701Y-92517100D01*
X95958224Y-92599147D01*
X95569678Y-92760088D01*
X95219997Y-92993737D01*
X94922617Y-93291117D01*
X94688968Y-93640798D01*
X94528027Y-94029344D01*
X94445980Y-94441821D01*
X94445980Y-94862379D01*
X94528027Y-95274856D01*
X94688968Y-95663402D01*
X94922617Y-96013083D01*
X95219997Y-96310463D01*
X95569678Y-96544112D01*
X95958224Y-96705053D01*
X96370701Y-96787100D01*
X96791259Y-96787100D01*
X97057825Y-96734077D01*
X97317835Y-96994087D01*
X97317840Y-96994091D01*
X97945982Y-97622234D01*
X97945981Y-100997755D01*
X97941963Y-100993737D01*
X97592282Y-100760088D01*
X97203736Y-100599147D01*
X96791259Y-100517100D01*
X96370701Y-100517100D01*
X96104135Y-100570123D01*
X89851456Y-94317445D01*
X89815909Y-94274131D01*
X89643083Y-94132296D01*
X89445907Y-94026904D01*
X89231959Y-93962003D01*
X89065212Y-93945580D01*
X89065211Y-93945580D01*
X89009460Y-93940089D01*
X88953709Y-93945580D01*
X82331220Y-93945580D01*
X82331220Y-92280489D01*
X104489534Y-92280489D01*
X105534460Y-93325415D01*
X106579386Y-92280489D01*
X106468539Y-92003306D01*
X106157620Y-91849931D01*
X105822755Y-91760160D01*
X105476810Y-91737444D01*
X105133080Y-91782654D01*
X104804775Y-91894054D01*
X104600381Y-92003306D01*
X104489534Y-92280489D01*
X82331220Y-92280489D01*
X82331220Y-91502868D01*
X82314797Y-91336121D01*
X82249896Y-91122173D01*
X82232404Y-91089447D01*
X82222032Y-90984138D01*
X82185722Y-90864440D01*
X82126757Y-90754126D01*
X82047405Y-90657435D01*
X81950714Y-90578083D01*
X81840400Y-90519118D01*
X81720702Y-90482808D01*
X81596220Y-90470548D01*
X81519279Y-90470548D01*
X81418718Y-90440043D01*
X81196220Y-90418129D01*
X81125926Y-90425052D01*
X81176757Y-90363114D01*
X81235722Y-90252800D01*
X81272032Y-90133102D01*
X81282404Y-90027793D01*
X81299896Y-89995067D01*
X81364797Y-89781119D01*
X81381220Y-89614372D01*
X81381220Y-88164363D01*
X81386710Y-88108619D01*
X81381220Y-88052875D01*
X81381220Y-88052868D01*
X81380849Y-88049100D01*
X81823529Y-88049100D01*
X81845443Y-88271599D01*
X81910344Y-88485547D01*
X82015736Y-88682723D01*
X82157571Y-88855549D01*
X82200884Y-88891096D01*
X83225029Y-89915241D01*
X83260572Y-89958550D01*
X83433398Y-90100385D01*
X83605914Y-90192596D01*
X83630574Y-90205777D01*
X83844522Y-90270678D01*
X84067021Y-90292592D01*
X84122772Y-90287101D01*
X94025228Y-90287101D01*
X94080979Y-90292592D01*
X94136730Y-90287101D01*
X94136731Y-90287101D01*
X94303478Y-90270678D01*
X94517426Y-90205777D01*
X94714602Y-90100385D01*
X94887428Y-89958550D01*
X94922975Y-89915236D01*
X95188660Y-89649551D01*
X104489534Y-89649551D01*
X104600381Y-89926734D01*
X104911300Y-90080109D01*
X105246165Y-90169880D01*
X105592110Y-90192596D01*
X105935840Y-90147386D01*
X106264145Y-90035986D01*
X106468539Y-89926734D01*
X106579386Y-89649551D01*
X105534460Y-88604625D01*
X104489534Y-89649551D01*
X95188660Y-89649551D01*
X96104135Y-88734077D01*
X96370701Y-88787100D01*
X96791259Y-88787100D01*
X97203736Y-88705053D01*
X97592282Y-88544112D01*
X97684236Y-88482670D01*
X103766884Y-88482670D01*
X103812094Y-88826400D01*
X103923494Y-89154705D01*
X104032746Y-89359099D01*
X104309929Y-89469946D01*
X105354855Y-88425020D01*
X105714065Y-88425020D01*
X106758991Y-89469946D01*
X107036174Y-89359099D01*
X107189549Y-89048180D01*
X107279320Y-88713315D01*
X107294464Y-88482670D01*
X108846884Y-88482670D01*
X108892094Y-88826400D01*
X109003494Y-89154705D01*
X109112746Y-89359099D01*
X109389929Y-89469946D01*
X110434855Y-88425020D01*
X110794065Y-88425020D01*
X111838991Y-89469946D01*
X112116174Y-89359099D01*
X112269549Y-89048180D01*
X112359320Y-88713315D01*
X112382036Y-88367370D01*
X112336826Y-88023640D01*
X112225426Y-87695335D01*
X112116174Y-87490941D01*
X111838991Y-87380094D01*
X110794065Y-88425020D01*
X110434855Y-88425020D01*
X109389929Y-87380094D01*
X109112746Y-87490941D01*
X108959371Y-87801860D01*
X108869600Y-88136725D01*
X108846884Y-88482670D01*
X107294464Y-88482670D01*
X107302036Y-88367370D01*
X107256826Y-88023640D01*
X107145426Y-87695335D01*
X107036174Y-87490941D01*
X106758991Y-87380094D01*
X105714065Y-88425020D01*
X105354855Y-88425020D01*
X104309929Y-87380094D01*
X104032746Y-87490941D01*
X103879371Y-87801860D01*
X103789600Y-88136725D01*
X103766884Y-88482670D01*
X97684236Y-88482670D01*
X97941963Y-88310463D01*
X98239343Y-88013083D01*
X98472992Y-87663402D01*
X98633933Y-87274856D01*
X98648725Y-87200489D01*
X104489534Y-87200489D01*
X105534460Y-88245415D01*
X106579386Y-87200489D01*
X109569534Y-87200489D01*
X110614460Y-88245415D01*
X111659386Y-87200489D01*
X111548539Y-86923306D01*
X111237620Y-86769931D01*
X110902755Y-86680160D01*
X110556810Y-86657444D01*
X110213080Y-86702654D01*
X109884775Y-86814054D01*
X109680381Y-86923306D01*
X109569534Y-87200489D01*
X106579386Y-87200489D01*
X106468539Y-86923306D01*
X106157620Y-86769931D01*
X105822755Y-86680160D01*
X105476810Y-86657444D01*
X105133080Y-86702654D01*
X104804775Y-86814054D01*
X104600381Y-86923306D01*
X104489534Y-87200489D01*
X98648725Y-87200489D01*
X98715980Y-86862379D01*
X98715980Y-86441821D01*
X98633933Y-86029344D01*
X98472992Y-85640798D01*
X98239343Y-85291117D01*
X97941963Y-84993737D01*
X97592282Y-84760088D01*
X97203736Y-84599147D01*
X96791259Y-84517100D01*
X96370701Y-84517100D01*
X95958224Y-84599147D01*
X95569678Y-84760088D01*
X95219997Y-84993737D01*
X94922617Y-85291117D01*
X94688968Y-85640798D01*
X94528027Y-86029344D01*
X94445980Y-86441821D01*
X94445980Y-86862379D01*
X94499003Y-87128945D01*
X93610848Y-88017101D01*
X88235325Y-88017101D01*
X88239343Y-88013083D01*
X88390340Y-87787100D01*
X88646549Y-87787100D01*
X88702300Y-87792591D01*
X88758051Y-87787100D01*
X88758052Y-87787100D01*
X88924799Y-87770677D01*
X89138747Y-87705776D01*
X89335923Y-87600384D01*
X89508749Y-87458549D01*
X89544296Y-87415235D01*
X92643141Y-84316391D01*
X92686449Y-84280849D01*
X92828284Y-84108023D01*
X92933676Y-83910847D01*
X92998577Y-83696899D01*
X93015000Y-83530152D01*
X93015000Y-83530143D01*
X93020490Y-83474401D01*
X93015000Y-83418659D01*
X93015000Y-82874531D01*
X93375074Y-82874531D01*
X93485921Y-83151714D01*
X93796840Y-83305089D01*
X94131705Y-83394860D01*
X94477650Y-83417576D01*
X94821380Y-83372366D01*
X95149685Y-83260966D01*
X95354079Y-83151714D01*
X95464926Y-82874531D01*
X94420000Y-81829605D01*
X93375074Y-82874531D01*
X93015000Y-82874531D01*
X93015000Y-82622755D01*
X93195469Y-82694926D01*
X94240395Y-81650000D01*
X94599605Y-81650000D01*
X95644531Y-82694926D01*
X95921714Y-82584079D01*
X96075089Y-82273160D01*
X96164860Y-81938295D01*
X96187576Y-81592350D01*
X96142366Y-81248620D01*
X96030966Y-80920315D01*
X95921714Y-80715921D01*
X95644531Y-80605074D01*
X94599605Y-81650000D01*
X94240395Y-81650000D01*
X93195469Y-80605074D01*
X93015000Y-80677245D01*
X93015000Y-80425469D01*
X93375074Y-80425469D01*
X94420000Y-81470395D01*
X95464926Y-80425469D01*
X95354079Y-80148286D01*
X95043160Y-79994911D01*
X94708295Y-79905140D01*
X94362350Y-79882424D01*
X94018620Y-79927634D01*
X93690315Y-80039034D01*
X93485921Y-80148286D01*
X93375074Y-80425469D01*
X93015000Y-80425469D01*
X93015000Y-80322594D01*
X93169406Y-80168188D01*
X93351073Y-79896305D01*
X93476207Y-79594204D01*
X93540000Y-79273496D01*
X93540000Y-78946504D01*
X93476207Y-78625796D01*
X93351073Y-78323695D01*
X93169406Y-78051812D01*
X92938188Y-77820594D01*
X92899183Y-77794531D01*
X93375074Y-77794531D01*
X93485921Y-78071714D01*
X93796840Y-78225089D01*
X94131705Y-78314860D01*
X94477650Y-78337576D01*
X94821380Y-78292366D01*
X95149685Y-78180966D01*
X95176164Y-78166812D01*
X107221220Y-78166812D01*
X107221220Y-78607068D01*
X107307110Y-79038865D01*
X107475589Y-79445609D01*
X107720182Y-79811669D01*
X108031491Y-80122978D01*
X108397551Y-80367571D01*
X108804295Y-80536050D01*
X109236092Y-80621940D01*
X109676348Y-80621940D01*
X110108145Y-80536050D01*
X110514889Y-80367571D01*
X110880949Y-80122978D01*
X111192258Y-79811669D01*
X111436851Y-79445609D01*
X111605330Y-79038865D01*
X111691220Y-78607068D01*
X111691220Y-78166812D01*
X111605330Y-77735015D01*
X111436851Y-77328271D01*
X111192258Y-76962211D01*
X110880949Y-76650902D01*
X110514889Y-76406309D01*
X110108145Y-76237830D01*
X109676348Y-76151940D01*
X109236092Y-76151940D01*
X108804295Y-76237830D01*
X108397551Y-76406309D01*
X108031491Y-76650902D01*
X107720182Y-76962211D01*
X107475589Y-77328271D01*
X107307110Y-77735015D01*
X107221220Y-78166812D01*
X95176164Y-78166812D01*
X95354079Y-78071714D01*
X95464926Y-77794531D01*
X94420000Y-76749605D01*
X93375074Y-77794531D01*
X92899183Y-77794531D01*
X92666305Y-77638927D01*
X92364204Y-77513793D01*
X92043496Y-77450000D01*
X91716504Y-77450000D01*
X91395796Y-77513793D01*
X91093695Y-77638927D01*
X90821812Y-77820594D01*
X90590594Y-78051812D01*
X90408927Y-78323695D01*
X90283793Y-78625796D01*
X90220000Y-78946504D01*
X90220000Y-79273496D01*
X90283793Y-79594204D01*
X90408927Y-79896305D01*
X90590594Y-80168188D01*
X90745000Y-80322594D01*
X90745000Y-80615319D01*
X90745001Y-80615329D01*
X90745001Y-80677245D01*
X90564531Y-80605074D01*
X89519605Y-81650000D01*
X90564531Y-82694926D01*
X90745000Y-82622755D01*
X90745000Y-83004268D01*
X88326985Y-85422283D01*
X88239343Y-85291117D01*
X87941963Y-84993737D01*
X87592282Y-84760088D01*
X87203736Y-84599147D01*
X86791259Y-84517100D01*
X86370701Y-84517100D01*
X85958224Y-84599147D01*
X85569678Y-84760088D01*
X85219997Y-84993737D01*
X84922617Y-85291117D01*
X84688968Y-85640798D01*
X84528027Y-86029344D01*
X84445980Y-86441821D01*
X84445980Y-86862379D01*
X84528027Y-87274856D01*
X84688968Y-87663402D01*
X84922617Y-88013083D01*
X84926635Y-88017101D01*
X84537153Y-88017101D01*
X83806016Y-87285964D01*
X83770469Y-87242651D01*
X83597643Y-87100816D01*
X83400467Y-86995424D01*
X83186519Y-86930523D01*
X83019772Y-86914100D01*
X83019771Y-86914100D01*
X82964020Y-86908609D01*
X82908269Y-86914100D01*
X82908268Y-86914100D01*
X82741521Y-86930523D01*
X82527573Y-86995424D01*
X82330397Y-87100816D01*
X82157571Y-87242651D01*
X82015736Y-87415477D01*
X81910344Y-87612653D01*
X81845443Y-87826601D01*
X81823529Y-88049100D01*
X81380849Y-88049100D01*
X81364797Y-87886121D01*
X81299896Y-87672173D01*
X81194504Y-87474997D01*
X81052669Y-87302171D01*
X81009360Y-87266629D01*
X79411846Y-85669115D01*
X79376299Y-85625801D01*
X79203473Y-85483966D01*
X79006297Y-85378574D01*
X78792349Y-85313673D01*
X78625602Y-85297250D01*
X78625601Y-85297250D01*
X78569850Y-85291759D01*
X78514099Y-85297250D01*
X75970582Y-85297250D01*
X75914830Y-85291759D01*
X75859079Y-85297250D01*
X75859078Y-85297250D01*
X75692331Y-85313673D01*
X75478383Y-85378574D01*
X75339914Y-85452587D01*
X75232023Y-85291117D01*
X74934643Y-84993737D01*
X74584962Y-84760088D01*
X74196416Y-84599147D01*
X73783939Y-84517100D01*
X73363381Y-84517100D01*
X72950904Y-84599147D01*
X72562358Y-84760088D01*
X72212677Y-84993737D01*
X71915297Y-85291117D01*
X71681648Y-85640798D01*
X71520707Y-86029344D01*
X71438660Y-86441821D01*
X65708660Y-86441821D01*
X65626613Y-86029344D01*
X65465672Y-85640798D01*
X65232023Y-85291117D01*
X64934643Y-84993737D01*
X64708660Y-84842740D01*
X64708660Y-84593072D01*
X65020000Y-84593072D01*
X65193254Y-84576008D01*
X65359850Y-84525472D01*
X65513386Y-84443405D01*
X65647962Y-84332962D01*
X65728357Y-84235000D01*
X65895230Y-84235000D01*
X65992038Y-84352962D01*
X66126614Y-84463405D01*
X66280150Y-84545472D01*
X66446746Y-84596008D01*
X66620000Y-84613072D01*
X67545000Y-84613072D01*
X67718254Y-84596008D01*
X67884850Y-84545472D01*
X68038386Y-84463405D01*
X68172962Y-84352962D01*
X68283405Y-84218386D01*
X68365472Y-84064850D01*
X68416008Y-83898254D01*
X68433072Y-83725000D01*
X68433072Y-83080703D01*
X68706928Y-83354560D01*
X68706928Y-83725000D01*
X68723992Y-83898254D01*
X68774528Y-84064850D01*
X68856595Y-84218386D01*
X68967038Y-84352962D01*
X69101614Y-84463405D01*
X69255150Y-84545472D01*
X69421746Y-84596008D01*
X69595000Y-84613072D01*
X70520000Y-84613072D01*
X70693254Y-84596008D01*
X70859850Y-84545472D01*
X71013386Y-84463405D01*
X71147962Y-84352962D01*
X71258405Y-84218386D01*
X71340472Y-84064850D01*
X71391008Y-83898254D01*
X71408072Y-83725000D01*
X71408072Y-82874531D01*
X73885074Y-82874531D01*
X73995921Y-83151714D01*
X74306840Y-83305089D01*
X74641705Y-83394860D01*
X74987650Y-83417576D01*
X75331380Y-83372366D01*
X75659685Y-83260966D01*
X75864079Y-83151714D01*
X75974926Y-82874531D01*
X78965074Y-82874531D01*
X79075921Y-83151714D01*
X79386840Y-83305089D01*
X79721705Y-83394860D01*
X80067650Y-83417576D01*
X80411380Y-83372366D01*
X80739685Y-83260966D01*
X80944079Y-83151714D01*
X81054926Y-82874531D01*
X88295074Y-82874531D01*
X88405921Y-83151714D01*
X88716840Y-83305089D01*
X89051705Y-83394860D01*
X89397650Y-83417576D01*
X89741380Y-83372366D01*
X90069685Y-83260966D01*
X90274079Y-83151714D01*
X90384926Y-82874531D01*
X89340000Y-81829605D01*
X88295074Y-82874531D01*
X81054926Y-82874531D01*
X80010000Y-81829605D01*
X78965074Y-82874531D01*
X75974926Y-82874531D01*
X74930000Y-81829605D01*
X73885074Y-82874531D01*
X71408072Y-82874531D01*
X71408072Y-82475000D01*
X71391008Y-82301746D01*
X71340472Y-82135150D01*
X71258405Y-81981614D01*
X71147962Y-81847038D01*
X71013386Y-81736595D01*
X70959234Y-81707650D01*
X73162424Y-81707650D01*
X73207634Y-82051380D01*
X73319034Y-82379685D01*
X73428286Y-82584079D01*
X73705469Y-82694926D01*
X74750395Y-81650000D01*
X75109605Y-81650000D01*
X76154531Y-82694926D01*
X76431714Y-82584079D01*
X76585089Y-82273160D01*
X76674860Y-81938295D01*
X76690004Y-81707650D01*
X78242424Y-81707650D01*
X78287634Y-82051380D01*
X78399034Y-82379685D01*
X78508286Y-82584079D01*
X78785469Y-82694926D01*
X79830395Y-81650000D01*
X80189605Y-81650000D01*
X81234531Y-82694926D01*
X81511714Y-82584079D01*
X81665089Y-82273160D01*
X81754860Y-81938295D01*
X81770004Y-81707650D01*
X87572424Y-81707650D01*
X87617634Y-82051380D01*
X87729034Y-82379685D01*
X87838286Y-82584079D01*
X88115469Y-82694926D01*
X89160395Y-81650000D01*
X88115469Y-80605074D01*
X87838286Y-80715921D01*
X87684911Y-81026840D01*
X87595140Y-81361705D01*
X87572424Y-81707650D01*
X81770004Y-81707650D01*
X81777576Y-81592350D01*
X81732366Y-81248620D01*
X81620966Y-80920315D01*
X81511714Y-80715921D01*
X81234531Y-80605074D01*
X80189605Y-81650000D01*
X79830395Y-81650000D01*
X78785469Y-80605074D01*
X78508286Y-80715921D01*
X78354911Y-81026840D01*
X78265140Y-81361705D01*
X78242424Y-81707650D01*
X76690004Y-81707650D01*
X76697576Y-81592350D01*
X76652366Y-81248620D01*
X76540966Y-80920315D01*
X76431714Y-80715921D01*
X76154531Y-80605074D01*
X75109605Y-81650000D01*
X74750395Y-81650000D01*
X73705469Y-80605074D01*
X73428286Y-80715921D01*
X73274911Y-81026840D01*
X73185140Y-81361705D01*
X73162424Y-81707650D01*
X70959234Y-81707650D01*
X70859850Y-81654528D01*
X70693254Y-81603992D01*
X70520000Y-81586928D01*
X70149559Y-81586928D01*
X69975000Y-81412369D01*
X69975000Y-80984770D01*
X70092962Y-80887962D01*
X70203405Y-80753386D01*
X70285472Y-80599850D01*
X70336008Y-80433254D01*
X70353072Y-80260000D01*
X70353072Y-80245000D01*
X73957245Y-80245000D01*
X73885074Y-80425469D01*
X74930000Y-81470395D01*
X75974926Y-80425469D01*
X75902755Y-80245000D01*
X76257406Y-80245000D01*
X76411812Y-80399406D01*
X76683695Y-80581073D01*
X76985796Y-80706207D01*
X77306504Y-80770000D01*
X77633496Y-80770000D01*
X77954204Y-80706207D01*
X78256305Y-80581073D01*
X78489182Y-80425469D01*
X78965074Y-80425469D01*
X80010000Y-81470395D01*
X81054926Y-80425469D01*
X88295074Y-80425469D01*
X89340000Y-81470395D01*
X90384926Y-80425469D01*
X90274079Y-80148286D01*
X89963160Y-79994911D01*
X89628295Y-79905140D01*
X89282350Y-79882424D01*
X88938620Y-79927634D01*
X88610315Y-80039034D01*
X88405921Y-80148286D01*
X88295074Y-80425469D01*
X81054926Y-80425469D01*
X80944079Y-80148286D01*
X80633160Y-79994911D01*
X80298295Y-79905140D01*
X79952350Y-79882424D01*
X79608620Y-79927634D01*
X79280315Y-80039034D01*
X79075921Y-80148286D01*
X78965074Y-80425469D01*
X78489182Y-80425469D01*
X78528188Y-80399406D01*
X78759406Y-80168188D01*
X78941073Y-79896305D01*
X79066207Y-79594204D01*
X79130000Y-79273496D01*
X79130000Y-78946504D01*
X79066207Y-78625796D01*
X78941073Y-78323695D01*
X78759406Y-78051812D01*
X78528188Y-77820594D01*
X78489183Y-77794531D01*
X78965074Y-77794531D01*
X79075921Y-78071714D01*
X79386840Y-78225089D01*
X79721705Y-78314860D01*
X80067650Y-78337576D01*
X80411380Y-78292366D01*
X80739685Y-78180966D01*
X80944079Y-78071714D01*
X81054926Y-77794531D01*
X88295074Y-77794531D01*
X88405921Y-78071714D01*
X88716840Y-78225089D01*
X89051705Y-78314860D01*
X89397650Y-78337576D01*
X89741380Y-78292366D01*
X90069685Y-78180966D01*
X90274079Y-78071714D01*
X90384926Y-77794531D01*
X89340000Y-76749605D01*
X88295074Y-77794531D01*
X81054926Y-77794531D01*
X80010000Y-76749605D01*
X78965074Y-77794531D01*
X78489183Y-77794531D01*
X78256305Y-77638927D01*
X77954204Y-77513793D01*
X77633496Y-77450000D01*
X77306504Y-77450000D01*
X76985796Y-77513793D01*
X76683695Y-77638927D01*
X76411812Y-77820594D01*
X76257406Y-77975000D01*
X75902755Y-77975000D01*
X75974926Y-77794531D01*
X74930000Y-76749605D01*
X73885074Y-77794531D01*
X73957245Y-77975000D01*
X70175364Y-77975000D01*
X70245537Y-77889494D01*
X70304502Y-77779180D01*
X70340812Y-77659482D01*
X70353072Y-77535000D01*
X70350000Y-77108250D01*
X70191250Y-76949500D01*
X68967000Y-76949500D01*
X68967000Y-78011250D01*
X69039584Y-78083834D01*
X68893877Y-78161716D01*
X68721051Y-78303551D01*
X68685504Y-78346865D01*
X68585441Y-78446928D01*
X68215000Y-78446928D01*
X68041746Y-78463992D01*
X67875150Y-78514528D01*
X67721614Y-78596595D01*
X67587038Y-78707038D01*
X67476595Y-78841614D01*
X67394528Y-78995150D01*
X67343992Y-79161746D01*
X67326928Y-79335000D01*
X67326928Y-80260000D01*
X67343992Y-80433254D01*
X67394528Y-80599850D01*
X67476595Y-80753386D01*
X67587038Y-80887962D01*
X67705001Y-80984771D01*
X67705001Y-81602687D01*
X67545000Y-81586928D01*
X66620000Y-81586928D01*
X66446746Y-81603992D01*
X66280150Y-81654528D01*
X66126614Y-81736595D01*
X65992038Y-81847038D01*
X65895230Y-81965000D01*
X65760215Y-81965000D01*
X65758405Y-81961614D01*
X65647962Y-81827038D01*
X65513386Y-81716595D01*
X65359850Y-81634528D01*
X65193254Y-81583992D01*
X65020000Y-81566928D01*
X64095000Y-81566928D01*
X63921746Y-81583992D01*
X63755150Y-81634528D01*
X63601614Y-81716595D01*
X63467038Y-81827038D01*
X63356595Y-81961614D01*
X63274528Y-82115150D01*
X63223992Y-82281746D01*
X63206928Y-82455000D01*
X63206928Y-82825441D01*
X62810520Y-83221849D01*
X62797107Y-83232857D01*
X62771250Y-83207000D01*
X61709500Y-83207000D01*
X61709500Y-84431250D01*
X61868250Y-84590000D01*
X62295000Y-84593072D01*
X62419482Y-84580812D01*
X62438661Y-84574994D01*
X62438661Y-84842740D01*
X62212677Y-84993737D01*
X61915297Y-85291117D01*
X61681648Y-85640798D01*
X61520707Y-86029344D01*
X61438660Y-86441821D01*
X60351265Y-86441821D01*
X60351038Y-84323599D01*
X60418815Y-84406185D01*
X60515506Y-84485537D01*
X60625820Y-84544502D01*
X60745518Y-84580812D01*
X60870000Y-84593072D01*
X61296750Y-84590000D01*
X61455500Y-84431250D01*
X61455500Y-83207000D01*
X61435500Y-83207000D01*
X61435500Y-82953000D01*
X61455500Y-82953000D01*
X61455500Y-81728750D01*
X61709500Y-81728750D01*
X61709500Y-82953000D01*
X62771250Y-82953000D01*
X62930000Y-82794250D01*
X62933072Y-82205000D01*
X62920812Y-82080518D01*
X62884502Y-81960820D01*
X62825537Y-81850506D01*
X62746185Y-81753815D01*
X62649494Y-81674463D01*
X62539180Y-81615498D01*
X62419482Y-81579188D01*
X62295000Y-81566928D01*
X61868250Y-81570000D01*
X61709500Y-81728750D01*
X61455500Y-81728750D01*
X61296750Y-81570000D01*
X60870000Y-81566928D01*
X60745518Y-81579188D01*
X60625820Y-81615498D01*
X60515506Y-81674463D01*
X60418815Y-81753815D01*
X60350773Y-81836725D01*
X60350360Y-77971232D01*
X60904320Y-77971232D01*
X60904320Y-78411488D01*
X60990210Y-78843285D01*
X61158689Y-79250029D01*
X61403282Y-79616089D01*
X61714591Y-79927398D01*
X62080651Y-80171991D01*
X62487395Y-80340470D01*
X62919192Y-80426360D01*
X63359448Y-80426360D01*
X63791245Y-80340470D01*
X64197989Y-80171991D01*
X64564049Y-79927398D01*
X64875358Y-79616089D01*
X65119951Y-79250029D01*
X65288430Y-78843285D01*
X65374320Y-78411488D01*
X65374320Y-77971232D01*
X65288430Y-77539435D01*
X65286593Y-77535000D01*
X67326928Y-77535000D01*
X67339188Y-77659482D01*
X67375498Y-77779180D01*
X67434463Y-77889494D01*
X67513815Y-77986185D01*
X67610506Y-78065537D01*
X67720820Y-78124502D01*
X67840518Y-78160812D01*
X67965000Y-78173072D01*
X68554250Y-78170000D01*
X68713000Y-78011250D01*
X68713000Y-76949500D01*
X67488750Y-76949500D01*
X67330000Y-77108250D01*
X67326928Y-77535000D01*
X65286593Y-77535000D01*
X65119951Y-77132691D01*
X64875358Y-76766631D01*
X64564049Y-76455322D01*
X64197989Y-76210729D01*
X63954808Y-76110000D01*
X67326928Y-76110000D01*
X67330000Y-76536750D01*
X67488750Y-76695500D01*
X68713000Y-76695500D01*
X68713000Y-75633750D01*
X68967000Y-75633750D01*
X68967000Y-76695500D01*
X70191250Y-76695500D01*
X70259100Y-76627650D01*
X73162424Y-76627650D01*
X73207634Y-76971380D01*
X73319034Y-77299685D01*
X73428286Y-77504079D01*
X73705469Y-77614926D01*
X74750395Y-76570000D01*
X75109605Y-76570000D01*
X76154531Y-77614926D01*
X76431714Y-77504079D01*
X76585089Y-77193160D01*
X76674860Y-76858295D01*
X76690004Y-76627650D01*
X78242424Y-76627650D01*
X78287634Y-76971380D01*
X78399034Y-77299685D01*
X78508286Y-77504079D01*
X78785469Y-77614926D01*
X79830395Y-76570000D01*
X80189605Y-76570000D01*
X81234531Y-77614926D01*
X81511714Y-77504079D01*
X81665089Y-77193160D01*
X81754860Y-76858295D01*
X81770004Y-76627650D01*
X87572424Y-76627650D01*
X87617634Y-76971380D01*
X87729034Y-77299685D01*
X87838286Y-77504079D01*
X88115469Y-77614926D01*
X89160395Y-76570000D01*
X89519605Y-76570000D01*
X90564531Y-77614926D01*
X90841714Y-77504079D01*
X90995089Y-77193160D01*
X91084860Y-76858295D01*
X91100004Y-76627650D01*
X92652424Y-76627650D01*
X92697634Y-76971380D01*
X92809034Y-77299685D01*
X92918286Y-77504079D01*
X93195469Y-77614926D01*
X94240395Y-76570000D01*
X94599605Y-76570000D01*
X95644531Y-77614926D01*
X95921714Y-77504079D01*
X96075089Y-77193160D01*
X96164860Y-76858295D01*
X96187576Y-76512350D01*
X96142366Y-76168620D01*
X96030966Y-75840315D01*
X95921714Y-75635921D01*
X95644531Y-75525074D01*
X94599605Y-76570000D01*
X94240395Y-76570000D01*
X93195469Y-75525074D01*
X92918286Y-75635921D01*
X92764911Y-75946840D01*
X92675140Y-76281705D01*
X92652424Y-76627650D01*
X91100004Y-76627650D01*
X91107576Y-76512350D01*
X91062366Y-76168620D01*
X90950966Y-75840315D01*
X90841714Y-75635921D01*
X90564531Y-75525074D01*
X89519605Y-76570000D01*
X89160395Y-76570000D01*
X88115469Y-75525074D01*
X87838286Y-75635921D01*
X87684911Y-75946840D01*
X87595140Y-76281705D01*
X87572424Y-76627650D01*
X81770004Y-76627650D01*
X81777576Y-76512350D01*
X81732366Y-76168620D01*
X81620966Y-75840315D01*
X81511714Y-75635921D01*
X81234531Y-75525074D01*
X80189605Y-76570000D01*
X79830395Y-76570000D01*
X78785469Y-75525074D01*
X78508286Y-75635921D01*
X78354911Y-75946840D01*
X78265140Y-76281705D01*
X78242424Y-76627650D01*
X76690004Y-76627650D01*
X76697576Y-76512350D01*
X76652366Y-76168620D01*
X76540966Y-75840315D01*
X76431714Y-75635921D01*
X76154531Y-75525074D01*
X75109605Y-76570000D01*
X74750395Y-76570000D01*
X73705469Y-75525074D01*
X73428286Y-75635921D01*
X73274911Y-75946840D01*
X73185140Y-76281705D01*
X73162424Y-76627650D01*
X70259100Y-76627650D01*
X70350000Y-76536750D01*
X70353072Y-76110000D01*
X70340812Y-75985518D01*
X70304502Y-75865820D01*
X70245537Y-75755506D01*
X70166185Y-75658815D01*
X70069494Y-75579463D01*
X69959180Y-75520498D01*
X69839482Y-75484188D01*
X69715000Y-75471928D01*
X69125750Y-75475000D01*
X68967000Y-75633750D01*
X68713000Y-75633750D01*
X68554250Y-75475000D01*
X67965000Y-75471928D01*
X67840518Y-75484188D01*
X67720820Y-75520498D01*
X67610506Y-75579463D01*
X67513815Y-75658815D01*
X67434463Y-75755506D01*
X67375498Y-75865820D01*
X67339188Y-75985518D01*
X67326928Y-76110000D01*
X63954808Y-76110000D01*
X63791245Y-76042250D01*
X63359448Y-75956360D01*
X62919192Y-75956360D01*
X62487395Y-76042250D01*
X62080651Y-76210729D01*
X61714591Y-76455322D01*
X61403282Y-76766631D01*
X61158689Y-77132691D01*
X60990210Y-77539435D01*
X60904320Y-77971232D01*
X60350360Y-77971232D01*
X60350070Y-75259738D01*
X73919865Y-75258472D01*
X73885074Y-75345469D01*
X74930000Y-76390395D01*
X75974926Y-75345469D01*
X75940060Y-75258283D01*
X79000054Y-75257998D01*
X78965074Y-75345469D01*
X80010000Y-76390395D01*
X81054926Y-75345469D01*
X81019870Y-75257809D01*
X88330402Y-75257127D01*
X88295074Y-75345469D01*
X89340000Y-76390395D01*
X90384926Y-75345469D01*
X90349522Y-75256939D01*
X93410592Y-75256653D01*
X93375074Y-75345469D01*
X94420000Y-76390395D01*
X95464926Y-75345469D01*
X95429333Y-75256465D01*
X113472290Y-75254781D01*
X113467351Y-121501146D01*
G37*
X113467351Y-121501146D02*
X60355009Y-121488754D01*
X60354676Y-118367392D01*
X61084660Y-118367392D01*
X61084660Y-118807648D01*
X61170550Y-119239445D01*
X61339029Y-119646189D01*
X61583622Y-120012249D01*
X61894931Y-120323558D01*
X62260991Y-120568151D01*
X62667735Y-120736630D01*
X63099532Y-120822520D01*
X63539788Y-120822520D01*
X63971585Y-120736630D01*
X64378329Y-120568151D01*
X64744389Y-120323558D01*
X65055698Y-120012249D01*
X65300291Y-119646189D01*
X65468770Y-119239445D01*
X65554660Y-118807648D01*
X65554660Y-118367392D01*
X65537424Y-118280741D01*
X67678900Y-118280741D01*
X67678900Y-118701299D01*
X67760947Y-119113776D01*
X67921888Y-119502322D01*
X68155537Y-119852003D01*
X68452917Y-120149383D01*
X68802598Y-120383032D01*
X69191144Y-120543973D01*
X69603621Y-120626020D01*
X70024179Y-120626020D01*
X70436656Y-120543973D01*
X70825202Y-120383032D01*
X71174883Y-120149383D01*
X71472263Y-119852003D01*
X71705912Y-119502322D01*
X71866853Y-119113776D01*
X71948900Y-118701299D01*
X71948900Y-118280741D01*
X75678900Y-118280741D01*
X75678900Y-118701299D01*
X75760947Y-119113776D01*
X75921888Y-119502322D01*
X76155537Y-119852003D01*
X76452917Y-120149383D01*
X76802598Y-120383032D01*
X77191144Y-120543973D01*
X77603621Y-120626020D01*
X78024179Y-120626020D01*
X78436656Y-120543973D01*
X78825202Y-120383032D01*
X79174883Y-120149383D01*
X79472263Y-119852003D01*
X79705912Y-119502322D01*
X79866853Y-119113776D01*
X79948900Y-118701299D01*
X79948900Y-118280741D01*
X83678900Y-118280741D01*
X83678900Y-118701299D01*
X83760947Y-119113776D01*
X83921888Y-119502322D01*
X84155537Y-119852003D01*
X84452917Y-120149383D01*
X84802598Y-120383032D01*
X85191144Y-120543973D01*
X85603621Y-120626020D01*
X86024179Y-120626020D01*
X86436656Y-120543973D01*
X86825202Y-120383032D01*
X87174883Y-120149383D01*
X87472263Y-119852003D01*
X87705912Y-119502322D01*
X87866853Y-119113776D01*
X87948900Y-118701299D01*
X87948900Y-118389961D01*
X91951140Y-118389961D01*
X91951140Y-118810519D01*
X92033187Y-119222996D01*
X92194128Y-119611542D01*
X92427777Y-119961223D01*
X92725157Y-120258603D01*
X93074838Y-120492252D01*
X93463384Y-120653193D01*
X93875861Y-120735240D01*
X94296419Y-120735240D01*
X94708896Y-120653193D01*
X95097442Y-120492252D01*
X95447123Y-120258603D01*
X95744503Y-119961223D01*
X95978152Y-119611542D01*
X96139093Y-119222996D01*
X96221140Y-118810519D01*
X96221140Y-118389961D01*
X99951140Y-118389961D01*
X99951140Y-118810519D01*
X100033187Y-119222996D01*
X100194128Y-119611542D01*
X100427777Y-119961223D01*
X100725157Y-120258603D01*
X101074838Y-120492252D01*
X101463384Y-120653193D01*
X101875861Y-120735240D01*
X102296419Y-120735240D01*
X102708896Y-120653193D01*
X103097442Y-120492252D01*
X103447123Y-120258603D01*
X103744503Y-119961223D01*
X103978152Y-119611542D01*
X104139093Y-119222996D01*
X104221140Y-118810519D01*
X104221140Y-118389961D01*
X107951140Y-118389961D01*
X107951140Y-118810519D01*
X108033187Y-119222996D01*
X108194128Y-119611542D01*
X108427777Y-119961223D01*
X108725157Y-120258603D01*
X109074838Y-120492252D01*
X109463384Y-120653193D01*
X109875861Y-120735240D01*
X110296419Y-120735240D01*
X110708896Y-120653193D01*
X111097442Y-120492252D01*
X111447123Y-120258603D01*
X111744503Y-119961223D01*
X111978152Y-119611542D01*
X112139093Y-119222996D01*
X112221140Y-118810519D01*
X112221140Y-118389961D01*
X112139093Y-117977484D01*
X111978152Y-117588938D01*
X111744503Y-117239257D01*
X111447123Y-116941877D01*
X111097442Y-116708228D01*
X110708896Y-116547287D01*
X110296419Y-116465240D01*
X109875861Y-116465240D01*
X109463384Y-116547287D01*
X109074838Y-116708228D01*
X108725157Y-116941877D01*
X108427777Y-117239257D01*
X108194128Y-117588938D01*
X108033187Y-117977484D01*
X107951140Y-118389961D01*
X104221140Y-118389961D01*
X104139093Y-117977484D01*
X103978152Y-117588938D01*
X103744503Y-117239257D01*
X103447123Y-116941877D01*
X103097442Y-116708228D01*
X102708896Y-116547287D01*
X102296419Y-116465240D01*
X101875861Y-116465240D01*
X101463384Y-116547287D01*
X101074838Y-116708228D01*
X100725157Y-116941877D01*
X100427777Y-117239257D01*
X100194128Y-117588938D01*
X100033187Y-117977484D01*
X99951140Y-118389961D01*
X96221140Y-118389961D01*
X96139093Y-117977484D01*
X95978152Y-117588938D01*
X95744503Y-117239257D01*
X95447123Y-116941877D01*
X95097442Y-116708228D01*
X94708896Y-116547287D01*
X94296419Y-116465240D01*
X93875861Y-116465240D01*
X93463384Y-116547287D01*
X93074838Y-116708228D01*
X92725157Y-116941877D01*
X92427777Y-117239257D01*
X92194128Y-117588938D01*
X92033187Y-117977484D01*
X91951140Y-118389961D01*
X87948900Y-118389961D01*
X87948900Y-118280741D01*
X87866853Y-117868264D01*
X87705912Y-117479718D01*
X87472263Y-117130037D01*
X87174883Y-116832657D01*
X86825202Y-116599008D01*
X86436656Y-116438067D01*
X86024179Y-116356020D01*
X85603621Y-116356020D01*
X85191144Y-116438067D01*
X84802598Y-116599008D01*
X84452917Y-116832657D01*
X84155537Y-117130037D01*
X83921888Y-117479718D01*
X83760947Y-117868264D01*
X83678900Y-118280741D01*
X79948900Y-118280741D01*
X79866853Y-117868264D01*
X79705912Y-117479718D01*
X79472263Y-117130037D01*
X79174883Y-116832657D01*
X78825202Y-116599008D01*
X78436656Y-116438067D01*
X78024179Y-116356020D01*
X77603621Y-116356020D01*
X77191144Y-116438067D01*
X76802598Y-116599008D01*
X76452917Y-116832657D01*
X76155537Y-117130037D01*
X75921888Y-117479718D01*
X75760947Y-117868264D01*
X75678900Y-118280741D01*
X71948900Y-118280741D01*
X71866853Y-117868264D01*
X71705912Y-117479718D01*
X71472263Y-117130037D01*
X71174883Y-116832657D01*
X70825202Y-116599008D01*
X70436656Y-116438067D01*
X70024179Y-116356020D01*
X69603621Y-116356020D01*
X69191144Y-116438067D01*
X68802598Y-116599008D01*
X68452917Y-116832657D01*
X68155537Y-117130037D01*
X67921888Y-117479718D01*
X67760947Y-117868264D01*
X67678900Y-118280741D01*
X65537424Y-118280741D01*
X65468770Y-117935595D01*
X65300291Y-117528851D01*
X65055698Y-117162791D01*
X64744389Y-116851482D01*
X64378329Y-116606889D01*
X63971585Y-116438410D01*
X63539788Y-116352520D01*
X63099532Y-116352520D01*
X62667735Y-116438410D01*
X62260991Y-116606889D01*
X61894931Y-116851482D01*
X61583622Y-117162791D01*
X61339029Y-117528851D01*
X61170550Y-117935595D01*
X61084660Y-118367392D01*
X60354676Y-118367392D01*
X60354444Y-116185040D01*
X88037168Y-116185040D01*
X88049428Y-116309522D01*
X88085738Y-116429220D01*
X88144703Y-116539534D01*
X88224055Y-116636225D01*
X88320746Y-116715577D01*
X88431060Y-116774542D01*
X88550758Y-116810852D01*
X88675240Y-116823112D01*
X89264490Y-116820040D01*
X89423240Y-116661290D01*
X89423240Y-115599540D01*
X89677240Y-115599540D01*
X89677240Y-116661290D01*
X89835990Y-116820040D01*
X90425240Y-116823112D01*
X90549722Y-116810852D01*
X90669420Y-116774542D01*
X90779734Y-116715577D01*
X90876425Y-116636225D01*
X90955777Y-116539534D01*
X91014742Y-116429220D01*
X91051052Y-116309522D01*
X91063312Y-116185040D01*
X91060240Y-115758290D01*
X90901490Y-115599540D01*
X89677240Y-115599540D01*
X89423240Y-115599540D01*
X88198990Y-115599540D01*
X88040240Y-115758290D01*
X88037168Y-116185040D01*
X60354444Y-116185040D01*
X60354292Y-114760040D01*
X88037168Y-114760040D01*
X88040240Y-115186790D01*
X88198990Y-115345540D01*
X89423240Y-115345540D01*
X89423240Y-114283790D01*
X89677240Y-114283790D01*
X89677240Y-115345540D01*
X90901490Y-115345540D01*
X91060240Y-115186790D01*
X91063312Y-114760040D01*
X91051052Y-114635558D01*
X91014742Y-114515860D01*
X90955777Y-114405546D01*
X90876425Y-114308855D01*
X90779734Y-114229503D01*
X90669420Y-114170538D01*
X90549722Y-114134228D01*
X90425240Y-114121968D01*
X89835990Y-114125040D01*
X89677240Y-114283790D01*
X89423240Y-114283790D01*
X89264490Y-114125040D01*
X88675240Y-114121968D01*
X88550758Y-114134228D01*
X88431060Y-114170538D01*
X88320746Y-114229503D01*
X88224055Y-114308855D01*
X88144703Y-114405546D01*
X88085738Y-114515860D01*
X88049428Y-114635558D01*
X88037168Y-114760040D01*
X60354292Y-114760040D01*
X60353781Y-109982673D01*
X68501852Y-109982673D01*
X68657862Y-110298234D01*
X69032645Y-110489040D01*
X69437451Y-110603064D01*
X69856724Y-110635922D01*
X70274351Y-110586354D01*
X70674283Y-110456263D01*
X70969938Y-110298234D01*
X71125948Y-109982673D01*
X69813900Y-108670625D01*
X68501852Y-109982673D01*
X60353781Y-109982673D01*
X60353626Y-108533844D01*
X67668998Y-108533844D01*
X67718566Y-108951471D01*
X67848657Y-109351403D01*
X68006686Y-109647058D01*
X68322247Y-109803068D01*
X69634295Y-108491020D01*
X69993505Y-108491020D01*
X71305553Y-109803068D01*
X71621114Y-109647058D01*
X71811920Y-109272275D01*
X71925944Y-108867469D01*
X71958802Y-108448196D01*
X71938927Y-108280741D01*
X83678900Y-108280741D01*
X83678900Y-108701299D01*
X83760947Y-109113776D01*
X83921888Y-109502322D01*
X84155537Y-109852003D01*
X84452917Y-110149383D01*
X84802598Y-110383032D01*
X85191144Y-110543973D01*
X85603621Y-110626020D01*
X86024179Y-110626020D01*
X86301266Y-110570904D01*
X86360437Y-110619464D01*
X86557613Y-110724856D01*
X86771561Y-110789757D01*
X86938308Y-110806180D01*
X86938317Y-110806180D01*
X86994059Y-110811670D01*
X87049801Y-110806180D01*
X88351548Y-110806180D01*
X88415241Y-110858451D01*
X88415240Y-111310269D01*
X88297278Y-111407078D01*
X88186835Y-111541654D01*
X88104768Y-111695190D01*
X88054232Y-111861786D01*
X88037168Y-112035040D01*
X88037168Y-112960040D01*
X88054232Y-113133294D01*
X88104768Y-113299890D01*
X88186835Y-113453426D01*
X88297278Y-113588002D01*
X88431854Y-113698445D01*
X88585390Y-113780512D01*
X88751986Y-113831048D01*
X88925240Y-113848112D01*
X90175240Y-113848112D01*
X90348494Y-113831048D01*
X90515090Y-113780512D01*
X90668626Y-113698445D01*
X90803202Y-113588002D01*
X90913645Y-113453426D01*
X90995712Y-113299890D01*
X91046248Y-113133294D01*
X91063312Y-112960040D01*
X91063312Y-112035040D01*
X91046248Y-111861786D01*
X90995712Y-111695190D01*
X90913645Y-111541654D01*
X90803202Y-111407078D01*
X90685240Y-111310270D01*
X90685240Y-110858450D01*
X90803202Y-110761642D01*
X90913645Y-110627066D01*
X90995712Y-110473530D01*
X91046248Y-110306934D01*
X91063312Y-110133680D01*
X91063312Y-110091893D01*
X92774092Y-110091893D01*
X92930102Y-110407454D01*
X93304885Y-110598260D01*
X93709691Y-110712284D01*
X94128964Y-110745142D01*
X94546591Y-110695574D01*
X94946523Y-110565483D01*
X95242178Y-110407454D01*
X95398188Y-110091893D01*
X94086140Y-108779845D01*
X92774092Y-110091893D01*
X91063312Y-110091893D01*
X91063312Y-109208680D01*
X91046248Y-109035426D01*
X90995712Y-108868830D01*
X90913645Y-108715294D01*
X90803202Y-108580718D01*
X90668626Y-108470275D01*
X90515090Y-108388208D01*
X90348494Y-108337672D01*
X90175240Y-108320608D01*
X88925240Y-108320608D01*
X88751986Y-108337672D01*
X88585390Y-108388208D01*
X88431854Y-108470275D01*
X88351548Y-108536180D01*
X87948900Y-108536180D01*
X87948900Y-108280741D01*
X87866853Y-107868264D01*
X87705912Y-107479718D01*
X87472263Y-107130037D01*
X87174883Y-106832657D01*
X86825202Y-106599008D01*
X86436656Y-106438067D01*
X86024179Y-106356020D01*
X85603621Y-106356020D01*
X85191144Y-106438067D01*
X84802598Y-106599008D01*
X84452917Y-106832657D01*
X84155537Y-107130037D01*
X83921888Y-107479718D01*
X83760947Y-107868264D01*
X83678900Y-108280741D01*
X71938927Y-108280741D01*
X71909234Y-108030569D01*
X71779143Y-107630637D01*
X71621114Y-107334982D01*
X71305553Y-107178972D01*
X69993505Y-108491020D01*
X69634295Y-108491020D01*
X68322247Y-107178972D01*
X68006686Y-107334982D01*
X67815880Y-107709765D01*
X67701856Y-108114571D01*
X67668998Y-108533844D01*
X60353626Y-108533844D01*
X60353463Y-106999367D01*
X68501852Y-106999367D01*
X69813900Y-108311415D01*
X71125948Y-106999367D01*
X70969938Y-106683806D01*
X70595155Y-106493000D01*
X70190349Y-106378976D01*
X69771076Y-106346118D01*
X69353449Y-106395686D01*
X68953517Y-106525777D01*
X68657862Y-106683806D01*
X68501852Y-106999367D01*
X60353463Y-106999367D01*
X60353157Y-104143753D01*
X62261612Y-104143753D01*
X62417622Y-104459314D01*
X62792405Y-104650120D01*
X63197211Y-104764144D01*
X63616484Y-104797002D01*
X64034111Y-104747434D01*
X64434043Y-104617343D01*
X64729698Y-104459314D01*
X64885708Y-104143753D01*
X63573660Y-102831705D01*
X62261612Y-104143753D01*
X60353157Y-104143753D01*
X60353002Y-102694924D01*
X61428758Y-102694924D01*
X61478326Y-103112551D01*
X61608417Y-103512483D01*
X61766446Y-103808138D01*
X62082007Y-103964148D01*
X63394055Y-102652100D01*
X63753265Y-102652100D01*
X65065313Y-103964148D01*
X65380874Y-103808138D01*
X65571680Y-103433355D01*
X65685704Y-103028549D01*
X65718562Y-102609276D01*
X65668994Y-102191649D01*
X65538903Y-101791717D01*
X65380874Y-101496062D01*
X65065313Y-101340052D01*
X63753265Y-102652100D01*
X63394055Y-102652100D01*
X62082007Y-101340052D01*
X61766446Y-101496062D01*
X61575640Y-101870845D01*
X61461616Y-102275651D01*
X61428758Y-102694924D01*
X60353002Y-102694924D01*
X60352839Y-101160447D01*
X62261612Y-101160447D01*
X63573660Y-102472495D01*
X64885708Y-101160447D01*
X64729698Y-100844886D01*
X64354915Y-100654080D01*
X63950109Y-100540056D01*
X63530836Y-100507198D01*
X63113209Y-100556766D01*
X62713277Y-100686857D01*
X62417622Y-100844886D01*
X62261612Y-101160447D01*
X60352839Y-101160447D01*
X60352303Y-96143753D01*
X72261612Y-96143753D01*
X72417622Y-96459314D01*
X72792405Y-96650120D01*
X73197211Y-96764144D01*
X73616484Y-96797002D01*
X74034111Y-96747434D01*
X74434043Y-96617343D01*
X74729698Y-96459314D01*
X74885708Y-96143753D01*
X73573660Y-94831705D01*
X72261612Y-96143753D01*
X60352303Y-96143753D01*
X60352148Y-94694924D01*
X71428758Y-94694924D01*
X71478326Y-95112551D01*
X71608417Y-95512483D01*
X71766446Y-95808138D01*
X72082007Y-95964148D01*
X73394055Y-94652100D01*
X73753265Y-94652100D01*
X75065313Y-95964148D01*
X75380874Y-95808138D01*
X75571680Y-95433355D01*
X75685704Y-95028549D01*
X75718562Y-94609276D01*
X75668994Y-94191649D01*
X75538903Y-93791717D01*
X75380874Y-93496062D01*
X75065313Y-93340052D01*
X73753265Y-94652100D01*
X73394055Y-94652100D01*
X72082007Y-93340052D01*
X71766446Y-93496062D01*
X71575640Y-93870845D01*
X71461616Y-94275651D01*
X71428758Y-94694924D01*
X60352148Y-94694924D01*
X60351984Y-93160447D01*
X72261612Y-93160447D01*
X73573660Y-94472495D01*
X74885708Y-93160447D01*
X74729698Y-92844886D01*
X74354915Y-92654080D01*
X73950109Y-92540056D01*
X73530836Y-92507198D01*
X73113209Y-92556766D01*
X72713277Y-92686857D01*
X72417622Y-92844886D01*
X72261612Y-93160447D01*
X60351984Y-93160447D01*
X60351265Y-86441821D01*
X61438660Y-86441821D01*
X61438660Y-86862379D01*
X61520707Y-87274856D01*
X61681648Y-87663402D01*
X61915297Y-88013083D01*
X62212677Y-88310463D01*
X62562358Y-88544112D01*
X62950904Y-88705053D01*
X63363381Y-88787100D01*
X63783939Y-88787100D01*
X64196416Y-88705053D01*
X64584962Y-88544112D01*
X64934643Y-88310463D01*
X65232023Y-88013083D01*
X65465672Y-87663402D01*
X65626613Y-87274856D01*
X65708660Y-86862379D01*
X65708660Y-86441821D01*
X71438660Y-86441821D01*
X71438660Y-86862379D01*
X71520707Y-87274856D01*
X71681648Y-87663402D01*
X71915297Y-88013083D01*
X72212677Y-88310463D01*
X72562358Y-88544112D01*
X72950904Y-88705053D01*
X73363381Y-88787100D01*
X73783939Y-88787100D01*
X74196416Y-88705053D01*
X74584962Y-88544112D01*
X74934643Y-88310463D01*
X75232023Y-88013083D01*
X75383020Y-87787100D01*
X75639229Y-87787100D01*
X75694980Y-87792591D01*
X75750731Y-87787100D01*
X75750732Y-87787100D01*
X75917479Y-87770677D01*
X76131427Y-87705776D01*
X76328603Y-87600384D01*
X76368977Y-87567250D01*
X76544514Y-87567250D01*
X76501283Y-87709761D01*
X76479369Y-87932260D01*
X76484861Y-87988022D01*
X76484860Y-91681428D01*
X76479369Y-91737180D01*
X76484860Y-91792931D01*
X76501283Y-91959678D01*
X76566184Y-92173626D01*
X76671576Y-92370803D01*
X76813411Y-92543629D01*
X76856725Y-92579176D01*
X78120580Y-93843032D01*
X78120580Y-95136331D01*
X78137003Y-95303078D01*
X78201904Y-95517026D01*
X78219396Y-95549752D01*
X78229768Y-95655062D01*
X78266078Y-95774760D01*
X78325043Y-95885074D01*
X78404395Y-95981765D01*
X78501086Y-96061117D01*
X78611400Y-96120082D01*
X78731098Y-96156392D01*
X78855580Y-96168652D01*
X78932520Y-96168652D01*
X79033081Y-96199157D01*
X79255580Y-96221071D01*
X79325874Y-96214148D01*
X79275043Y-96276086D01*
X79216078Y-96386400D01*
X79181875Y-96499153D01*
X74786367Y-100894662D01*
X74584962Y-100760088D01*
X74196416Y-100599147D01*
X73783939Y-100517100D01*
X73363381Y-100517100D01*
X72950904Y-100599147D01*
X72562358Y-100760088D01*
X72212677Y-100993737D01*
X71915297Y-101291117D01*
X71681648Y-101640798D01*
X71520707Y-102029344D01*
X71438660Y-102441821D01*
X71438660Y-102862379D01*
X71520707Y-103274856D01*
X71681648Y-103663402D01*
X71915297Y-104013083D01*
X72212677Y-104310463D01*
X72562358Y-104544112D01*
X72950904Y-104705053D01*
X73363381Y-104787100D01*
X73783939Y-104787100D01*
X74196416Y-104705053D01*
X74584962Y-104544112D01*
X74934643Y-104310463D01*
X75101353Y-104143753D01*
X85268932Y-104143753D01*
X85424942Y-104459314D01*
X85799725Y-104650120D01*
X86204531Y-104764144D01*
X86623804Y-104797002D01*
X87041431Y-104747434D01*
X87441363Y-104617343D01*
X87737018Y-104459314D01*
X87893028Y-104143753D01*
X86580980Y-102831705D01*
X85268932Y-104143753D01*
X75101353Y-104143753D01*
X75232023Y-104013083D01*
X75465672Y-103663402D01*
X75626613Y-103274856D01*
X75629140Y-103262151D01*
X76196367Y-102694924D01*
X84436078Y-102694924D01*
X84485646Y-103112551D01*
X84615737Y-103512483D01*
X84773766Y-103808138D01*
X85089327Y-103964148D01*
X86401375Y-102652100D01*
X86760585Y-102652100D01*
X88072633Y-103964148D01*
X88388194Y-103808138D01*
X88579000Y-103433355D01*
X88693024Y-103028549D01*
X88725882Y-102609276D01*
X88676314Y-102191649D01*
X88546223Y-101791717D01*
X88388194Y-101496062D01*
X88072633Y-101340052D01*
X86760585Y-102652100D01*
X86401375Y-102652100D01*
X85089327Y-101340052D01*
X84773766Y-101496062D01*
X84582960Y-101870845D01*
X84468936Y-102275651D01*
X84436078Y-102694924D01*
X76196367Y-102694924D01*
X77730844Y-101160447D01*
X85268932Y-101160447D01*
X86580980Y-102472495D01*
X87893028Y-101160447D01*
X87737018Y-100844886D01*
X87362235Y-100654080D01*
X86957429Y-100540056D01*
X86538156Y-100507198D01*
X86120529Y-100556766D01*
X85720597Y-100686857D01*
X85424942Y-100844886D01*
X85268932Y-101160447D01*
X77730844Y-101160447D01*
X80737007Y-98154285D01*
X80849760Y-98120082D01*
X80960074Y-98061117D01*
X81056765Y-97981765D01*
X81136117Y-97885074D01*
X81195082Y-97774760D01*
X81231392Y-97655062D01*
X81241764Y-97549751D01*
X81259255Y-97517027D01*
X81324157Y-97303080D01*
X81346071Y-97080581D01*
X81324157Y-96858082D01*
X81259255Y-96644134D01*
X81241764Y-96611410D01*
X81231392Y-96506098D01*
X81195082Y-96386400D01*
X81136117Y-96276086D01*
X81085286Y-96214148D01*
X81099828Y-96215580D01*
X81099829Y-96215580D01*
X81155580Y-96221071D01*
X81211331Y-96215580D01*
X88539329Y-96215580D01*
X94499003Y-102175255D01*
X94445980Y-102441821D01*
X94445980Y-102862379D01*
X94528027Y-103274856D01*
X94688968Y-103663402D01*
X94922617Y-104013083D01*
X94926635Y-104017101D01*
X93890018Y-104017101D01*
X93834276Y-104011611D01*
X93778534Y-104017101D01*
X93778525Y-104017101D01*
X93611778Y-104033524D01*
X93397830Y-104098425D01*
X93200654Y-104203817D01*
X93027828Y-104345652D01*
X92992288Y-104388958D01*
X91820067Y-105561180D01*
X90748932Y-105561180D01*
X90668626Y-105495275D01*
X90515090Y-105413208D01*
X90348494Y-105362672D01*
X90175240Y-105345608D01*
X88925240Y-105345608D01*
X88751986Y-105362672D01*
X88585390Y-105413208D01*
X88431854Y-105495275D01*
X88297278Y-105605718D01*
X88186835Y-105740294D01*
X88104768Y-105893830D01*
X88054232Y-106060426D01*
X88037168Y-106233680D01*
X88037168Y-107158680D01*
X88054232Y-107331934D01*
X88104768Y-107498530D01*
X88186835Y-107652066D01*
X88297278Y-107786642D01*
X88431854Y-107897085D01*
X88585390Y-107979152D01*
X88751986Y-108029688D01*
X88925240Y-108046752D01*
X90175240Y-108046752D01*
X90348494Y-108029688D01*
X90515090Y-107979152D01*
X90668626Y-107897085D01*
X90748932Y-107831180D01*
X92084685Y-107831180D01*
X91974096Y-108223791D01*
X91941238Y-108643064D01*
X91990806Y-109060691D01*
X92120897Y-109460623D01*
X92278926Y-109756278D01*
X92594487Y-109912288D01*
X93906535Y-108600240D01*
X94265745Y-108600240D01*
X95577793Y-109912288D01*
X95893354Y-109756278D01*
X96084160Y-109381495D01*
X96198184Y-108976689D01*
X96231042Y-108557416D01*
X96181474Y-108139789D01*
X96051383Y-107739857D01*
X95893354Y-107444202D01*
X95577793Y-107288192D01*
X94265745Y-108600240D01*
X93906535Y-108600240D01*
X93892393Y-108586098D01*
X94071998Y-108406493D01*
X94086140Y-108420635D01*
X95398188Y-107108587D01*
X95242178Y-106793026D01*
X94867395Y-106602220D01*
X94462589Y-106488196D01*
X94129424Y-106462086D01*
X94304409Y-106287101D01*
X97725230Y-106287101D01*
X97780981Y-106292592D01*
X97836732Y-106287101D01*
X97836733Y-106287101D01*
X98003480Y-106270678D01*
X98217428Y-106205777D01*
X98414604Y-106100385D01*
X98587430Y-105958550D01*
X98622976Y-105915237D01*
X99844127Y-104694088D01*
X99887430Y-104658550D01*
X99953118Y-104578510D01*
X100029265Y-104485724D01*
X100134657Y-104288548D01*
X100191167Y-104102260D01*
X100422208Y-104102260D01*
X100434468Y-104226742D01*
X100470778Y-104346440D01*
X100529743Y-104456754D01*
X100609095Y-104553445D01*
X100705786Y-104632797D01*
X100816100Y-104691762D01*
X100935798Y-104728072D01*
X101060280Y-104740332D01*
X101649530Y-104737260D01*
X101808280Y-104578510D01*
X101808280Y-103516760D01*
X100584030Y-103516760D01*
X100425280Y-103675510D01*
X100422208Y-104102260D01*
X100191167Y-104102260D01*
X100199558Y-104074600D01*
X100221472Y-103852101D01*
X100215981Y-103796349D01*
X100215981Y-102677260D01*
X100422208Y-102677260D01*
X100425280Y-103104010D01*
X100584030Y-103262760D01*
X101808280Y-103262760D01*
X101808280Y-102201010D01*
X101649530Y-102042260D01*
X101060280Y-102039188D01*
X100935798Y-102051448D01*
X100816100Y-102087758D01*
X100705786Y-102146723D01*
X100609095Y-102226075D01*
X100529743Y-102322766D01*
X100470778Y-102433080D01*
X100434468Y-102552778D01*
X100422208Y-102677260D01*
X100215981Y-102677260D01*
X100215981Y-99952260D01*
X100422208Y-99952260D01*
X100422208Y-100877260D01*
X100439272Y-101050514D01*
X100489808Y-101217110D01*
X100571875Y-101370646D01*
X100682318Y-101505222D01*
X100816894Y-101615665D01*
X100970430Y-101697732D01*
X101137026Y-101748268D01*
X101310280Y-101765332D01*
X101680721Y-101765332D01*
X102089339Y-102173951D01*
X102062280Y-102201010D01*
X102062280Y-103262760D01*
X102082280Y-103262760D01*
X102082280Y-103516760D01*
X102062280Y-103516760D01*
X102062280Y-104578510D01*
X102221030Y-104737260D01*
X102810280Y-104740332D01*
X102934762Y-104728072D01*
X103054460Y-104691762D01*
X103164774Y-104632797D01*
X103261465Y-104553445D01*
X103340817Y-104456754D01*
X103399782Y-104346440D01*
X103436092Y-104226742D01*
X103448352Y-104102260D01*
X103445280Y-103675510D01*
X103286532Y-103516762D01*
X103432150Y-103516762D01*
X104027653Y-104112266D01*
X104063191Y-104155569D01*
X104106494Y-104191107D01*
X104106496Y-104191109D01*
X104122101Y-104203916D01*
X104176135Y-104305006D01*
X104286578Y-104439582D01*
X104421154Y-104550025D01*
X104556599Y-104622422D01*
X104591257Y-104687263D01*
X104733092Y-104860089D01*
X104776400Y-104895631D01*
X108004163Y-108123395D01*
X107951140Y-108389961D01*
X107951140Y-108810519D01*
X108033187Y-109222996D01*
X108194128Y-109611542D01*
X108427777Y-109961223D01*
X108725157Y-110258603D01*
X109074838Y-110492252D01*
X109463384Y-110653193D01*
X109875861Y-110735240D01*
X110296419Y-110735240D01*
X110708896Y-110653193D01*
X111097442Y-110492252D01*
X111447123Y-110258603D01*
X111744503Y-109961223D01*
X111978152Y-109611542D01*
X112139093Y-109222996D01*
X112221140Y-108810519D01*
X112221140Y-108389961D01*
X112139093Y-107977484D01*
X111978152Y-107588938D01*
X111744503Y-107239257D01*
X111447123Y-106941877D01*
X111097442Y-106708228D01*
X110708896Y-106547287D01*
X110296419Y-106465240D01*
X109875861Y-106465240D01*
X109609295Y-106518263D01*
X107039166Y-103948135D01*
X107052612Y-103811620D01*
X107052612Y-102886620D01*
X107035548Y-102713366D01*
X106985012Y-102546770D01*
X106902945Y-102393234D01*
X106792502Y-102258658D01*
X106657926Y-102148215D01*
X106504390Y-102066148D01*
X106337794Y-102015612D01*
X106164540Y-101998548D01*
X105124201Y-101998548D01*
X104843331Y-101717679D01*
X104914540Y-101724692D01*
X106164540Y-101724692D01*
X106337794Y-101707628D01*
X106504390Y-101657092D01*
X106657926Y-101575025D01*
X106792502Y-101464582D01*
X106902945Y-101330006D01*
X106985012Y-101176470D01*
X107035548Y-101009874D01*
X107052612Y-100836620D01*
X107052612Y-99911620D01*
X107038451Y-99767840D01*
X108837601Y-97968691D01*
X108880909Y-97933149D01*
X109022744Y-97760323D01*
X109128136Y-97563147D01*
X109193037Y-97349199D01*
X109209460Y-97182452D01*
X109209460Y-97182443D01*
X109214950Y-97126701D01*
X109209460Y-97070959D01*
X109209460Y-94729551D01*
X109569534Y-94729551D01*
X109680381Y-95006734D01*
X109991300Y-95160109D01*
X110326165Y-95249880D01*
X110672110Y-95272596D01*
X111015840Y-95227386D01*
X111344145Y-95115986D01*
X111548539Y-95006734D01*
X111659386Y-94729551D01*
X110614460Y-93684625D01*
X109569534Y-94729551D01*
X109209460Y-94729551D01*
X109209460Y-94477775D01*
X109389929Y-94549946D01*
X110434855Y-93505020D01*
X110794065Y-93505020D01*
X111838991Y-94549946D01*
X112116174Y-94439099D01*
X112269549Y-94128180D01*
X112359320Y-93793315D01*
X112382036Y-93447370D01*
X112336826Y-93103640D01*
X112225426Y-92775335D01*
X112116174Y-92570941D01*
X111838991Y-92460094D01*
X110794065Y-93505020D01*
X110434855Y-93505020D01*
X109389929Y-92460094D01*
X109209460Y-92532265D01*
X109209460Y-92280489D01*
X109569534Y-92280489D01*
X110614460Y-93325415D01*
X111659386Y-92280489D01*
X111548539Y-92003306D01*
X111237620Y-91849931D01*
X110902755Y-91760160D01*
X110556810Y-91737444D01*
X110213080Y-91782654D01*
X109884775Y-91894054D01*
X109680381Y-92003306D01*
X109569534Y-92280489D01*
X109209460Y-92280489D01*
X109209460Y-92177614D01*
X109363866Y-92023208D01*
X109545533Y-91751325D01*
X109670667Y-91449224D01*
X109734460Y-91128516D01*
X109734460Y-90801524D01*
X109670667Y-90480816D01*
X109545533Y-90178715D01*
X109363866Y-89906832D01*
X109132648Y-89675614D01*
X109093643Y-89649551D01*
X109569534Y-89649551D01*
X109680381Y-89926734D01*
X109991300Y-90080109D01*
X110326165Y-90169880D01*
X110672110Y-90192596D01*
X111015840Y-90147386D01*
X111344145Y-90035986D01*
X111548539Y-89926734D01*
X111659386Y-89649551D01*
X110614460Y-88604625D01*
X109569534Y-89649551D01*
X109093643Y-89649551D01*
X108860765Y-89493947D01*
X108558664Y-89368813D01*
X108237956Y-89305020D01*
X107910964Y-89305020D01*
X107590256Y-89368813D01*
X107288155Y-89493947D01*
X107016272Y-89675614D01*
X106785054Y-89906832D01*
X106603387Y-90178715D01*
X106478253Y-90480816D01*
X106414460Y-90801524D01*
X106414460Y-91128516D01*
X106478253Y-91449224D01*
X106603387Y-91751325D01*
X106785054Y-92023208D01*
X106939460Y-92177614D01*
X106939460Y-92470339D01*
X106939461Y-92470349D01*
X106939461Y-92532265D01*
X106758991Y-92460094D01*
X105714065Y-93505020D01*
X106758991Y-94549946D01*
X106939461Y-94477775D01*
X106939460Y-96656568D01*
X104776400Y-98819629D01*
X104733092Y-98855171D01*
X104591257Y-99027997D01*
X104550627Y-99104010D01*
X104421154Y-99173215D01*
X104286578Y-99283658D01*
X104176135Y-99418234D01*
X104094068Y-99571770D01*
X104043532Y-99738366D01*
X104026468Y-99911620D01*
X104026468Y-100836620D01*
X104033482Y-100907830D01*
X103448352Y-100322701D01*
X103448352Y-99952260D01*
X103431288Y-99779006D01*
X103380752Y-99612410D01*
X103298685Y-99458874D01*
X103188242Y-99324298D01*
X103133780Y-99279602D01*
X103133780Y-98788370D01*
X103251742Y-98691562D01*
X103362185Y-98556986D01*
X103444252Y-98403450D01*
X103494788Y-98236854D01*
X103511852Y-98063600D01*
X103511852Y-97138600D01*
X103494788Y-96965346D01*
X103444252Y-96798750D01*
X103362185Y-96645214D01*
X103251742Y-96510638D01*
X103117166Y-96400195D01*
X102963630Y-96318128D01*
X102797034Y-96267592D01*
X102623780Y-96250528D01*
X101373780Y-96250528D01*
X101200526Y-96267592D01*
X101033930Y-96318128D01*
X100880394Y-96400195D01*
X100745818Y-96510638D01*
X100635375Y-96645214D01*
X100553308Y-96798750D01*
X100502772Y-96965346D01*
X100485708Y-97138600D01*
X100485708Y-98063600D01*
X100502772Y-98236854D01*
X100553308Y-98403450D01*
X100635375Y-98556986D01*
X100745818Y-98691562D01*
X100863780Y-98788371D01*
X100863781Y-99188794D01*
X100816894Y-99213855D01*
X100682318Y-99324298D01*
X100571875Y-99458874D01*
X100489808Y-99612410D01*
X100439272Y-99779006D01*
X100422208Y-99952260D01*
X100215981Y-99952260D01*
X100215981Y-97207842D01*
X100221471Y-97152100D01*
X100215981Y-97096358D01*
X100215981Y-97096349D01*
X100199558Y-96929602D01*
X100134657Y-96715654D01*
X100029265Y-96518478D01*
X99887430Y-96345652D01*
X99844121Y-96310109D01*
X99321111Y-95787100D01*
X100831769Y-95787100D01*
X100880394Y-95827005D01*
X101033930Y-95909072D01*
X101200526Y-95959608D01*
X101373780Y-95976672D01*
X102623780Y-95976672D01*
X102797034Y-95959608D01*
X102963630Y-95909072D01*
X103117166Y-95827005D01*
X103251742Y-95716562D01*
X103362185Y-95581986D01*
X103444252Y-95428450D01*
X103494788Y-95261854D01*
X103511852Y-95088600D01*
X103511852Y-94729551D01*
X104489534Y-94729551D01*
X104600381Y-95006734D01*
X104911300Y-95160109D01*
X105246165Y-95249880D01*
X105592110Y-95272596D01*
X105935840Y-95227386D01*
X106264145Y-95115986D01*
X106468539Y-95006734D01*
X106579386Y-94729551D01*
X105534460Y-93684625D01*
X104489534Y-94729551D01*
X103511852Y-94729551D01*
X103511852Y-94163600D01*
X103494788Y-93990346D01*
X103444252Y-93823750D01*
X103362185Y-93670214D01*
X103273927Y-93562670D01*
X103766884Y-93562670D01*
X103812094Y-93906400D01*
X103923494Y-94234705D01*
X104032746Y-94439099D01*
X104309929Y-94549946D01*
X105354855Y-93505020D01*
X104309929Y-92460094D01*
X104032746Y-92570941D01*
X103879371Y-92881860D01*
X103789600Y-93216725D01*
X103766884Y-93562670D01*
X103273927Y-93562670D01*
X103251742Y-93535638D01*
X103117166Y-93425195D01*
X102963630Y-93343128D01*
X102797034Y-93292592D01*
X102623780Y-93275528D01*
X101373780Y-93275528D01*
X101200526Y-93292592D01*
X101033930Y-93343128D01*
X100880394Y-93425195D01*
X100768407Y-93517100D01*
X98390340Y-93517100D01*
X98239343Y-93291117D01*
X97941963Y-92993737D01*
X97592282Y-92760088D01*
X97203736Y-92599147D01*
X96791259Y-92517100D01*
X96370701Y-92517100D01*
X95958224Y-92599147D01*
X95569678Y-92760088D01*
X95219997Y-92993737D01*
X94922617Y-93291117D01*
X94688968Y-93640798D01*
X94528027Y-94029344D01*
X94445980Y-94441821D01*
X94445980Y-94862379D01*
X94528027Y-95274856D01*
X94688968Y-95663402D01*
X94922617Y-96013083D01*
X95219997Y-96310463D01*
X95569678Y-96544112D01*
X95958224Y-96705053D01*
X96370701Y-96787100D01*
X96791259Y-96787100D01*
X97057825Y-96734077D01*
X97317835Y-96994087D01*
X97317840Y-96994091D01*
X97945982Y-97622234D01*
X97945981Y-100997755D01*
X97941963Y-100993737D01*
X97592282Y-100760088D01*
X97203736Y-100599147D01*
X96791259Y-100517100D01*
X96370701Y-100517100D01*
X96104135Y-100570123D01*
X89851456Y-94317445D01*
X89815909Y-94274131D01*
X89643083Y-94132296D01*
X89445907Y-94026904D01*
X89231959Y-93962003D01*
X89065212Y-93945580D01*
X89065211Y-93945580D01*
X89009460Y-93940089D01*
X88953709Y-93945580D01*
X82331220Y-93945580D01*
X82331220Y-92280489D01*
X104489534Y-92280489D01*
X105534460Y-93325415D01*
X106579386Y-92280489D01*
X106468539Y-92003306D01*
X106157620Y-91849931D01*
X105822755Y-91760160D01*
X105476810Y-91737444D01*
X105133080Y-91782654D01*
X104804775Y-91894054D01*
X104600381Y-92003306D01*
X104489534Y-92280489D01*
X82331220Y-92280489D01*
X82331220Y-91502868D01*
X82314797Y-91336121D01*
X82249896Y-91122173D01*
X82232404Y-91089447D01*
X82222032Y-90984138D01*
X82185722Y-90864440D01*
X82126757Y-90754126D01*
X82047405Y-90657435D01*
X81950714Y-90578083D01*
X81840400Y-90519118D01*
X81720702Y-90482808D01*
X81596220Y-90470548D01*
X81519279Y-90470548D01*
X81418718Y-90440043D01*
X81196220Y-90418129D01*
X81125926Y-90425052D01*
X81176757Y-90363114D01*
X81235722Y-90252800D01*
X81272032Y-90133102D01*
X81282404Y-90027793D01*
X81299896Y-89995067D01*
X81364797Y-89781119D01*
X81381220Y-89614372D01*
X81381220Y-88164363D01*
X81386710Y-88108619D01*
X81381220Y-88052875D01*
X81381220Y-88052868D01*
X81380849Y-88049100D01*
X81823529Y-88049100D01*
X81845443Y-88271599D01*
X81910344Y-88485547D01*
X82015736Y-88682723D01*
X82157571Y-88855549D01*
X82200884Y-88891096D01*
X83225029Y-89915241D01*
X83260572Y-89958550D01*
X83433398Y-90100385D01*
X83605914Y-90192596D01*
X83630574Y-90205777D01*
X83844522Y-90270678D01*
X84067021Y-90292592D01*
X84122772Y-90287101D01*
X94025228Y-90287101D01*
X94080979Y-90292592D01*
X94136730Y-90287101D01*
X94136731Y-90287101D01*
X94303478Y-90270678D01*
X94517426Y-90205777D01*
X94714602Y-90100385D01*
X94887428Y-89958550D01*
X94922975Y-89915236D01*
X95188660Y-89649551D01*
X104489534Y-89649551D01*
X104600381Y-89926734D01*
X104911300Y-90080109D01*
X105246165Y-90169880D01*
X105592110Y-90192596D01*
X105935840Y-90147386D01*
X106264145Y-90035986D01*
X106468539Y-89926734D01*
X106579386Y-89649551D01*
X105534460Y-88604625D01*
X104489534Y-89649551D01*
X95188660Y-89649551D01*
X96104135Y-88734077D01*
X96370701Y-88787100D01*
X96791259Y-88787100D01*
X97203736Y-88705053D01*
X97592282Y-88544112D01*
X97684236Y-88482670D01*
X103766884Y-88482670D01*
X103812094Y-88826400D01*
X103923494Y-89154705D01*
X104032746Y-89359099D01*
X104309929Y-89469946D01*
X105354855Y-88425020D01*
X105714065Y-88425020D01*
X106758991Y-89469946D01*
X107036174Y-89359099D01*
X107189549Y-89048180D01*
X107279320Y-88713315D01*
X107294464Y-88482670D01*
X108846884Y-88482670D01*
X108892094Y-88826400D01*
X109003494Y-89154705D01*
X109112746Y-89359099D01*
X109389929Y-89469946D01*
X110434855Y-88425020D01*
X110794065Y-88425020D01*
X111838991Y-89469946D01*
X112116174Y-89359099D01*
X112269549Y-89048180D01*
X112359320Y-88713315D01*
X112382036Y-88367370D01*
X112336826Y-88023640D01*
X112225426Y-87695335D01*
X112116174Y-87490941D01*
X111838991Y-87380094D01*
X110794065Y-88425020D01*
X110434855Y-88425020D01*
X109389929Y-87380094D01*
X109112746Y-87490941D01*
X108959371Y-87801860D01*
X108869600Y-88136725D01*
X108846884Y-88482670D01*
X107294464Y-88482670D01*
X107302036Y-88367370D01*
X107256826Y-88023640D01*
X107145426Y-87695335D01*
X107036174Y-87490941D01*
X106758991Y-87380094D01*
X105714065Y-88425020D01*
X105354855Y-88425020D01*
X104309929Y-87380094D01*
X104032746Y-87490941D01*
X103879371Y-87801860D01*
X103789600Y-88136725D01*
X103766884Y-88482670D01*
X97684236Y-88482670D01*
X97941963Y-88310463D01*
X98239343Y-88013083D01*
X98472992Y-87663402D01*
X98633933Y-87274856D01*
X98648725Y-87200489D01*
X104489534Y-87200489D01*
X105534460Y-88245415D01*
X106579386Y-87200489D01*
X109569534Y-87200489D01*
X110614460Y-88245415D01*
X111659386Y-87200489D01*
X111548539Y-86923306D01*
X111237620Y-86769931D01*
X110902755Y-86680160D01*
X110556810Y-86657444D01*
X110213080Y-86702654D01*
X109884775Y-86814054D01*
X109680381Y-86923306D01*
X109569534Y-87200489D01*
X106579386Y-87200489D01*
X106468539Y-86923306D01*
X106157620Y-86769931D01*
X105822755Y-86680160D01*
X105476810Y-86657444D01*
X105133080Y-86702654D01*
X104804775Y-86814054D01*
X104600381Y-86923306D01*
X104489534Y-87200489D01*
X98648725Y-87200489D01*
X98715980Y-86862379D01*
X98715980Y-86441821D01*
X98633933Y-86029344D01*
X98472992Y-85640798D01*
X98239343Y-85291117D01*
X97941963Y-84993737D01*
X97592282Y-84760088D01*
X97203736Y-84599147D01*
X96791259Y-84517100D01*
X96370701Y-84517100D01*
X95958224Y-84599147D01*
X95569678Y-84760088D01*
X95219997Y-84993737D01*
X94922617Y-85291117D01*
X94688968Y-85640798D01*
X94528027Y-86029344D01*
X94445980Y-86441821D01*
X94445980Y-86862379D01*
X94499003Y-87128945D01*
X93610848Y-88017101D01*
X88235325Y-88017101D01*
X88239343Y-88013083D01*
X88390340Y-87787100D01*
X88646549Y-87787100D01*
X88702300Y-87792591D01*
X88758051Y-87787100D01*
X88758052Y-87787100D01*
X88924799Y-87770677D01*
X89138747Y-87705776D01*
X89335923Y-87600384D01*
X89508749Y-87458549D01*
X89544296Y-87415235D01*
X92643141Y-84316391D01*
X92686449Y-84280849D01*
X92828284Y-84108023D01*
X92933676Y-83910847D01*
X92998577Y-83696899D01*
X93015000Y-83530152D01*
X93015000Y-83530143D01*
X93020490Y-83474401D01*
X93015000Y-83418659D01*
X93015000Y-82874531D01*
X93375074Y-82874531D01*
X93485921Y-83151714D01*
X93796840Y-83305089D01*
X94131705Y-83394860D01*
X94477650Y-83417576D01*
X94821380Y-83372366D01*
X95149685Y-83260966D01*
X95354079Y-83151714D01*
X95464926Y-82874531D01*
X94420000Y-81829605D01*
X93375074Y-82874531D01*
X93015000Y-82874531D01*
X93015000Y-82622755D01*
X93195469Y-82694926D01*
X94240395Y-81650000D01*
X94599605Y-81650000D01*
X95644531Y-82694926D01*
X95921714Y-82584079D01*
X96075089Y-82273160D01*
X96164860Y-81938295D01*
X96187576Y-81592350D01*
X96142366Y-81248620D01*
X96030966Y-80920315D01*
X95921714Y-80715921D01*
X95644531Y-80605074D01*
X94599605Y-81650000D01*
X94240395Y-81650000D01*
X93195469Y-80605074D01*
X93015000Y-80677245D01*
X93015000Y-80425469D01*
X93375074Y-80425469D01*
X94420000Y-81470395D01*
X95464926Y-80425469D01*
X95354079Y-80148286D01*
X95043160Y-79994911D01*
X94708295Y-79905140D01*
X94362350Y-79882424D01*
X94018620Y-79927634D01*
X93690315Y-80039034D01*
X93485921Y-80148286D01*
X93375074Y-80425469D01*
X93015000Y-80425469D01*
X93015000Y-80322594D01*
X93169406Y-80168188D01*
X93351073Y-79896305D01*
X93476207Y-79594204D01*
X93540000Y-79273496D01*
X93540000Y-78946504D01*
X93476207Y-78625796D01*
X93351073Y-78323695D01*
X93169406Y-78051812D01*
X92938188Y-77820594D01*
X92899183Y-77794531D01*
X93375074Y-77794531D01*
X93485921Y-78071714D01*
X93796840Y-78225089D01*
X94131705Y-78314860D01*
X94477650Y-78337576D01*
X94821380Y-78292366D01*
X95149685Y-78180966D01*
X95176164Y-78166812D01*
X107221220Y-78166812D01*
X107221220Y-78607068D01*
X107307110Y-79038865D01*
X107475589Y-79445609D01*
X107720182Y-79811669D01*
X108031491Y-80122978D01*
X108397551Y-80367571D01*
X108804295Y-80536050D01*
X109236092Y-80621940D01*
X109676348Y-80621940D01*
X110108145Y-80536050D01*
X110514889Y-80367571D01*
X110880949Y-80122978D01*
X111192258Y-79811669D01*
X111436851Y-79445609D01*
X111605330Y-79038865D01*
X111691220Y-78607068D01*
X111691220Y-78166812D01*
X111605330Y-77735015D01*
X111436851Y-77328271D01*
X111192258Y-76962211D01*
X110880949Y-76650902D01*
X110514889Y-76406309D01*
X110108145Y-76237830D01*
X109676348Y-76151940D01*
X109236092Y-76151940D01*
X108804295Y-76237830D01*
X108397551Y-76406309D01*
X108031491Y-76650902D01*
X107720182Y-76962211D01*
X107475589Y-77328271D01*
X107307110Y-77735015D01*
X107221220Y-78166812D01*
X95176164Y-78166812D01*
X95354079Y-78071714D01*
X95464926Y-77794531D01*
X94420000Y-76749605D01*
X93375074Y-77794531D01*
X92899183Y-77794531D01*
X92666305Y-77638927D01*
X92364204Y-77513793D01*
X92043496Y-77450000D01*
X91716504Y-77450000D01*
X91395796Y-77513793D01*
X91093695Y-77638927D01*
X90821812Y-77820594D01*
X90590594Y-78051812D01*
X90408927Y-78323695D01*
X90283793Y-78625796D01*
X90220000Y-78946504D01*
X90220000Y-79273496D01*
X90283793Y-79594204D01*
X90408927Y-79896305D01*
X90590594Y-80168188D01*
X90745000Y-80322594D01*
X90745000Y-80615319D01*
X90745001Y-80615329D01*
X90745001Y-80677245D01*
X90564531Y-80605074D01*
X89519605Y-81650000D01*
X90564531Y-82694926D01*
X90745000Y-82622755D01*
X90745000Y-83004268D01*
X88326985Y-85422283D01*
X88239343Y-85291117D01*
X87941963Y-84993737D01*
X87592282Y-84760088D01*
X87203736Y-84599147D01*
X86791259Y-84517100D01*
X86370701Y-84517100D01*
X85958224Y-84599147D01*
X85569678Y-84760088D01*
X85219997Y-84993737D01*
X84922617Y-85291117D01*
X84688968Y-85640798D01*
X84528027Y-86029344D01*
X84445980Y-86441821D01*
X84445980Y-86862379D01*
X84528027Y-87274856D01*
X84688968Y-87663402D01*
X84922617Y-88013083D01*
X84926635Y-88017101D01*
X84537153Y-88017101D01*
X83806016Y-87285964D01*
X83770469Y-87242651D01*
X83597643Y-87100816D01*
X83400467Y-86995424D01*
X83186519Y-86930523D01*
X83019772Y-86914100D01*
X83019771Y-86914100D01*
X82964020Y-86908609D01*
X82908269Y-86914100D01*
X82908268Y-86914100D01*
X82741521Y-86930523D01*
X82527573Y-86995424D01*
X82330397Y-87100816D01*
X82157571Y-87242651D01*
X82015736Y-87415477D01*
X81910344Y-87612653D01*
X81845443Y-87826601D01*
X81823529Y-88049100D01*
X81380849Y-88049100D01*
X81364797Y-87886121D01*
X81299896Y-87672173D01*
X81194504Y-87474997D01*
X81052669Y-87302171D01*
X81009360Y-87266629D01*
X79411846Y-85669115D01*
X79376299Y-85625801D01*
X79203473Y-85483966D01*
X79006297Y-85378574D01*
X78792349Y-85313673D01*
X78625602Y-85297250D01*
X78625601Y-85297250D01*
X78569850Y-85291759D01*
X78514099Y-85297250D01*
X75970582Y-85297250D01*
X75914830Y-85291759D01*
X75859079Y-85297250D01*
X75859078Y-85297250D01*
X75692331Y-85313673D01*
X75478383Y-85378574D01*
X75339914Y-85452587D01*
X75232023Y-85291117D01*
X74934643Y-84993737D01*
X74584962Y-84760088D01*
X74196416Y-84599147D01*
X73783939Y-84517100D01*
X73363381Y-84517100D01*
X72950904Y-84599147D01*
X72562358Y-84760088D01*
X72212677Y-84993737D01*
X71915297Y-85291117D01*
X71681648Y-85640798D01*
X71520707Y-86029344D01*
X71438660Y-86441821D01*
X65708660Y-86441821D01*
X65626613Y-86029344D01*
X65465672Y-85640798D01*
X65232023Y-85291117D01*
X64934643Y-84993737D01*
X64708660Y-84842740D01*
X64708660Y-84593072D01*
X65020000Y-84593072D01*
X65193254Y-84576008D01*
X65359850Y-84525472D01*
X65513386Y-84443405D01*
X65647962Y-84332962D01*
X65728357Y-84235000D01*
X65895230Y-84235000D01*
X65992038Y-84352962D01*
X66126614Y-84463405D01*
X66280150Y-84545472D01*
X66446746Y-84596008D01*
X66620000Y-84613072D01*
X67545000Y-84613072D01*
X67718254Y-84596008D01*
X67884850Y-84545472D01*
X68038386Y-84463405D01*
X68172962Y-84352962D01*
X68283405Y-84218386D01*
X68365472Y-84064850D01*
X68416008Y-83898254D01*
X68433072Y-83725000D01*
X68433072Y-83080703D01*
X68706928Y-83354560D01*
X68706928Y-83725000D01*
X68723992Y-83898254D01*
X68774528Y-84064850D01*
X68856595Y-84218386D01*
X68967038Y-84352962D01*
X69101614Y-84463405D01*
X69255150Y-84545472D01*
X69421746Y-84596008D01*
X69595000Y-84613072D01*
X70520000Y-84613072D01*
X70693254Y-84596008D01*
X70859850Y-84545472D01*
X71013386Y-84463405D01*
X71147962Y-84352962D01*
X71258405Y-84218386D01*
X71340472Y-84064850D01*
X71391008Y-83898254D01*
X71408072Y-83725000D01*
X71408072Y-82874531D01*
X73885074Y-82874531D01*
X73995921Y-83151714D01*
X74306840Y-83305089D01*
X74641705Y-83394860D01*
X74987650Y-83417576D01*
X75331380Y-83372366D01*
X75659685Y-83260966D01*
X75864079Y-83151714D01*
X75974926Y-82874531D01*
X78965074Y-82874531D01*
X79075921Y-83151714D01*
X79386840Y-83305089D01*
X79721705Y-83394860D01*
X80067650Y-83417576D01*
X80411380Y-83372366D01*
X80739685Y-83260966D01*
X80944079Y-83151714D01*
X81054926Y-82874531D01*
X88295074Y-82874531D01*
X88405921Y-83151714D01*
X88716840Y-83305089D01*
X89051705Y-83394860D01*
X89397650Y-83417576D01*
X89741380Y-83372366D01*
X90069685Y-83260966D01*
X90274079Y-83151714D01*
X90384926Y-82874531D01*
X89340000Y-81829605D01*
X88295074Y-82874531D01*
X81054926Y-82874531D01*
X80010000Y-81829605D01*
X78965074Y-82874531D01*
X75974926Y-82874531D01*
X74930000Y-81829605D01*
X73885074Y-82874531D01*
X71408072Y-82874531D01*
X71408072Y-82475000D01*
X71391008Y-82301746D01*
X71340472Y-82135150D01*
X71258405Y-81981614D01*
X71147962Y-81847038D01*
X71013386Y-81736595D01*
X70959234Y-81707650D01*
X73162424Y-81707650D01*
X73207634Y-82051380D01*
X73319034Y-82379685D01*
X73428286Y-82584079D01*
X73705469Y-82694926D01*
X74750395Y-81650000D01*
X75109605Y-81650000D01*
X76154531Y-82694926D01*
X76431714Y-82584079D01*
X76585089Y-82273160D01*
X76674860Y-81938295D01*
X76690004Y-81707650D01*
X78242424Y-81707650D01*
X78287634Y-82051380D01*
X78399034Y-82379685D01*
X78508286Y-82584079D01*
X78785469Y-82694926D01*
X79830395Y-81650000D01*
X80189605Y-81650000D01*
X81234531Y-82694926D01*
X81511714Y-82584079D01*
X81665089Y-82273160D01*
X81754860Y-81938295D01*
X81770004Y-81707650D01*
X87572424Y-81707650D01*
X87617634Y-82051380D01*
X87729034Y-82379685D01*
X87838286Y-82584079D01*
X88115469Y-82694926D01*
X89160395Y-81650000D01*
X88115469Y-80605074D01*
X87838286Y-80715921D01*
X87684911Y-81026840D01*
X87595140Y-81361705D01*
X87572424Y-81707650D01*
X81770004Y-81707650D01*
X81777576Y-81592350D01*
X81732366Y-81248620D01*
X81620966Y-80920315D01*
X81511714Y-80715921D01*
X81234531Y-80605074D01*
X80189605Y-81650000D01*
X79830395Y-81650000D01*
X78785469Y-80605074D01*
X78508286Y-80715921D01*
X78354911Y-81026840D01*
X78265140Y-81361705D01*
X78242424Y-81707650D01*
X76690004Y-81707650D01*
X76697576Y-81592350D01*
X76652366Y-81248620D01*
X76540966Y-80920315D01*
X76431714Y-80715921D01*
X76154531Y-80605074D01*
X75109605Y-81650000D01*
X74750395Y-81650000D01*
X73705469Y-80605074D01*
X73428286Y-80715921D01*
X73274911Y-81026840D01*
X73185140Y-81361705D01*
X73162424Y-81707650D01*
X70959234Y-81707650D01*
X70859850Y-81654528D01*
X70693254Y-81603992D01*
X70520000Y-81586928D01*
X70149559Y-81586928D01*
X69975000Y-81412369D01*
X69975000Y-80984770D01*
X70092962Y-80887962D01*
X70203405Y-80753386D01*
X70285472Y-80599850D01*
X70336008Y-80433254D01*
X70353072Y-80260000D01*
X70353072Y-80245000D01*
X73957245Y-80245000D01*
X73885074Y-80425469D01*
X74930000Y-81470395D01*
X75974926Y-80425469D01*
X75902755Y-80245000D01*
X76257406Y-80245000D01*
X76411812Y-80399406D01*
X76683695Y-80581073D01*
X76985796Y-80706207D01*
X77306504Y-80770000D01*
X77633496Y-80770000D01*
X77954204Y-80706207D01*
X78256305Y-80581073D01*
X78489182Y-80425469D01*
X78965074Y-80425469D01*
X80010000Y-81470395D01*
X81054926Y-80425469D01*
X88295074Y-80425469D01*
X89340000Y-81470395D01*
X90384926Y-80425469D01*
X90274079Y-80148286D01*
X89963160Y-79994911D01*
X89628295Y-79905140D01*
X89282350Y-79882424D01*
X88938620Y-79927634D01*
X88610315Y-80039034D01*
X88405921Y-80148286D01*
X88295074Y-80425469D01*
X81054926Y-80425469D01*
X80944079Y-80148286D01*
X80633160Y-79994911D01*
X80298295Y-79905140D01*
X79952350Y-79882424D01*
X79608620Y-79927634D01*
X79280315Y-80039034D01*
X79075921Y-80148286D01*
X78965074Y-80425469D01*
X78489182Y-80425469D01*
X78528188Y-80399406D01*
X78759406Y-80168188D01*
X78941073Y-79896305D01*
X79066207Y-79594204D01*
X79130000Y-79273496D01*
X79130000Y-78946504D01*
X79066207Y-78625796D01*
X78941073Y-78323695D01*
X78759406Y-78051812D01*
X78528188Y-77820594D01*
X78489183Y-77794531D01*
X78965074Y-77794531D01*
X79075921Y-78071714D01*
X79386840Y-78225089D01*
X79721705Y-78314860D01*
X80067650Y-78337576D01*
X80411380Y-78292366D01*
X80739685Y-78180966D01*
X80944079Y-78071714D01*
X81054926Y-77794531D01*
X88295074Y-77794531D01*
X88405921Y-78071714D01*
X88716840Y-78225089D01*
X89051705Y-78314860D01*
X89397650Y-78337576D01*
X89741380Y-78292366D01*
X90069685Y-78180966D01*
X90274079Y-78071714D01*
X90384926Y-77794531D01*
X89340000Y-76749605D01*
X88295074Y-77794531D01*
X81054926Y-77794531D01*
X80010000Y-76749605D01*
X78965074Y-77794531D01*
X78489183Y-77794531D01*
X78256305Y-77638927D01*
X77954204Y-77513793D01*
X77633496Y-77450000D01*
X77306504Y-77450000D01*
X76985796Y-77513793D01*
X76683695Y-77638927D01*
X76411812Y-77820594D01*
X76257406Y-77975000D01*
X75902755Y-77975000D01*
X75974926Y-77794531D01*
X74930000Y-76749605D01*
X73885074Y-77794531D01*
X73957245Y-77975000D01*
X70175364Y-77975000D01*
X70245537Y-77889494D01*
X70304502Y-77779180D01*
X70340812Y-77659482D01*
X70353072Y-77535000D01*
X70350000Y-77108250D01*
X70191250Y-76949500D01*
X68967000Y-76949500D01*
X68967000Y-78011250D01*
X69039584Y-78083834D01*
X68893877Y-78161716D01*
X68721051Y-78303551D01*
X68685504Y-78346865D01*
X68585441Y-78446928D01*
X68215000Y-78446928D01*
X68041746Y-78463992D01*
X67875150Y-78514528D01*
X67721614Y-78596595D01*
X67587038Y-78707038D01*
X67476595Y-78841614D01*
X67394528Y-78995150D01*
X67343992Y-79161746D01*
X67326928Y-79335000D01*
X67326928Y-80260000D01*
X67343992Y-80433254D01*
X67394528Y-80599850D01*
X67476595Y-80753386D01*
X67587038Y-80887962D01*
X67705001Y-80984771D01*
X67705001Y-81602687D01*
X67545000Y-81586928D01*
X66620000Y-81586928D01*
X66446746Y-81603992D01*
X66280150Y-81654528D01*
X66126614Y-81736595D01*
X65992038Y-81847038D01*
X65895230Y-81965000D01*
X65760215Y-81965000D01*
X65758405Y-81961614D01*
X65647962Y-81827038D01*
X65513386Y-81716595D01*
X65359850Y-81634528D01*
X65193254Y-81583992D01*
X65020000Y-81566928D01*
X64095000Y-81566928D01*
X63921746Y-81583992D01*
X63755150Y-81634528D01*
X63601614Y-81716595D01*
X63467038Y-81827038D01*
X63356595Y-81961614D01*
X63274528Y-82115150D01*
X63223992Y-82281746D01*
X63206928Y-82455000D01*
X63206928Y-82825441D01*
X62810520Y-83221849D01*
X62797107Y-83232857D01*
X62771250Y-83207000D01*
X61709500Y-83207000D01*
X61709500Y-84431250D01*
X61868250Y-84590000D01*
X62295000Y-84593072D01*
X62419482Y-84580812D01*
X62438661Y-84574994D01*
X62438661Y-84842740D01*
X62212677Y-84993737D01*
X61915297Y-85291117D01*
X61681648Y-85640798D01*
X61520707Y-86029344D01*
X61438660Y-86441821D01*
X60351265Y-86441821D01*
X60351038Y-84323599D01*
X60418815Y-84406185D01*
X60515506Y-84485537D01*
X60625820Y-84544502D01*
X60745518Y-84580812D01*
X60870000Y-84593072D01*
X61296750Y-84590000D01*
X61455500Y-84431250D01*
X61455500Y-83207000D01*
X61435500Y-83207000D01*
X61435500Y-82953000D01*
X61455500Y-82953000D01*
X61455500Y-81728750D01*
X61709500Y-81728750D01*
X61709500Y-82953000D01*
X62771250Y-82953000D01*
X62930000Y-82794250D01*
X62933072Y-82205000D01*
X62920812Y-82080518D01*
X62884502Y-81960820D01*
X62825537Y-81850506D01*
X62746185Y-81753815D01*
X62649494Y-81674463D01*
X62539180Y-81615498D01*
X62419482Y-81579188D01*
X62295000Y-81566928D01*
X61868250Y-81570000D01*
X61709500Y-81728750D01*
X61455500Y-81728750D01*
X61296750Y-81570000D01*
X60870000Y-81566928D01*
X60745518Y-81579188D01*
X60625820Y-81615498D01*
X60515506Y-81674463D01*
X60418815Y-81753815D01*
X60350773Y-81836725D01*
X60350360Y-77971232D01*
X60904320Y-77971232D01*
X60904320Y-78411488D01*
X60990210Y-78843285D01*
X61158689Y-79250029D01*
X61403282Y-79616089D01*
X61714591Y-79927398D01*
X62080651Y-80171991D01*
X62487395Y-80340470D01*
X62919192Y-80426360D01*
X63359448Y-80426360D01*
X63791245Y-80340470D01*
X64197989Y-80171991D01*
X64564049Y-79927398D01*
X64875358Y-79616089D01*
X65119951Y-79250029D01*
X65288430Y-78843285D01*
X65374320Y-78411488D01*
X65374320Y-77971232D01*
X65288430Y-77539435D01*
X65286593Y-77535000D01*
X67326928Y-77535000D01*
X67339188Y-77659482D01*
X67375498Y-77779180D01*
X67434463Y-77889494D01*
X67513815Y-77986185D01*
X67610506Y-78065537D01*
X67720820Y-78124502D01*
X67840518Y-78160812D01*
X67965000Y-78173072D01*
X68554250Y-78170000D01*
X68713000Y-78011250D01*
X68713000Y-76949500D01*
X67488750Y-76949500D01*
X67330000Y-77108250D01*
X67326928Y-77535000D01*
X65286593Y-77535000D01*
X65119951Y-77132691D01*
X64875358Y-76766631D01*
X64564049Y-76455322D01*
X64197989Y-76210729D01*
X63954808Y-76110000D01*
X67326928Y-76110000D01*
X67330000Y-76536750D01*
X67488750Y-76695500D01*
X68713000Y-76695500D01*
X68713000Y-75633750D01*
X68967000Y-75633750D01*
X68967000Y-76695500D01*
X70191250Y-76695500D01*
X70259100Y-76627650D01*
X73162424Y-76627650D01*
X73207634Y-76971380D01*
X73319034Y-77299685D01*
X73428286Y-77504079D01*
X73705469Y-77614926D01*
X74750395Y-76570000D01*
X75109605Y-76570000D01*
X76154531Y-77614926D01*
X76431714Y-77504079D01*
X76585089Y-77193160D01*
X76674860Y-76858295D01*
X76690004Y-76627650D01*
X78242424Y-76627650D01*
X78287634Y-76971380D01*
X78399034Y-77299685D01*
X78508286Y-77504079D01*
X78785469Y-77614926D01*
X79830395Y-76570000D01*
X80189605Y-76570000D01*
X81234531Y-77614926D01*
X81511714Y-77504079D01*
X81665089Y-77193160D01*
X81754860Y-76858295D01*
X81770004Y-76627650D01*
X87572424Y-76627650D01*
X87617634Y-76971380D01*
X87729034Y-77299685D01*
X87838286Y-77504079D01*
X88115469Y-77614926D01*
X89160395Y-76570000D01*
X89519605Y-76570000D01*
X90564531Y-77614926D01*
X90841714Y-77504079D01*
X90995089Y-77193160D01*
X91084860Y-76858295D01*
X91100004Y-76627650D01*
X92652424Y-76627650D01*
X92697634Y-76971380D01*
X92809034Y-77299685D01*
X92918286Y-77504079D01*
X93195469Y-77614926D01*
X94240395Y-76570000D01*
X94599605Y-76570000D01*
X95644531Y-77614926D01*
X95921714Y-77504079D01*
X96075089Y-77193160D01*
X96164860Y-76858295D01*
X96187576Y-76512350D01*
X96142366Y-76168620D01*
X96030966Y-75840315D01*
X95921714Y-75635921D01*
X95644531Y-75525074D01*
X94599605Y-76570000D01*
X94240395Y-76570000D01*
X93195469Y-75525074D01*
X92918286Y-75635921D01*
X92764911Y-75946840D01*
X92675140Y-76281705D01*
X92652424Y-76627650D01*
X91100004Y-76627650D01*
X91107576Y-76512350D01*
X91062366Y-76168620D01*
X90950966Y-75840315D01*
X90841714Y-75635921D01*
X90564531Y-75525074D01*
X89519605Y-76570000D01*
X89160395Y-76570000D01*
X88115469Y-75525074D01*
X87838286Y-75635921D01*
X87684911Y-75946840D01*
X87595140Y-76281705D01*
X87572424Y-76627650D01*
X81770004Y-76627650D01*
X81777576Y-76512350D01*
X81732366Y-76168620D01*
X81620966Y-75840315D01*
X81511714Y-75635921D01*
X81234531Y-75525074D01*
X80189605Y-76570000D01*
X79830395Y-76570000D01*
X78785469Y-75525074D01*
X78508286Y-75635921D01*
X78354911Y-75946840D01*
X78265140Y-76281705D01*
X78242424Y-76627650D01*
X76690004Y-76627650D01*
X76697576Y-76512350D01*
X76652366Y-76168620D01*
X76540966Y-75840315D01*
X76431714Y-75635921D01*
X76154531Y-75525074D01*
X75109605Y-76570000D01*
X74750395Y-76570000D01*
X73705469Y-75525074D01*
X73428286Y-75635921D01*
X73274911Y-75946840D01*
X73185140Y-76281705D01*
X73162424Y-76627650D01*
X70259100Y-76627650D01*
X70350000Y-76536750D01*
X70353072Y-76110000D01*
X70340812Y-75985518D01*
X70304502Y-75865820D01*
X70245537Y-75755506D01*
X70166185Y-75658815D01*
X70069494Y-75579463D01*
X69959180Y-75520498D01*
X69839482Y-75484188D01*
X69715000Y-75471928D01*
X69125750Y-75475000D01*
X68967000Y-75633750D01*
X68713000Y-75633750D01*
X68554250Y-75475000D01*
X67965000Y-75471928D01*
X67840518Y-75484188D01*
X67720820Y-75520498D01*
X67610506Y-75579463D01*
X67513815Y-75658815D01*
X67434463Y-75755506D01*
X67375498Y-75865820D01*
X67339188Y-75985518D01*
X67326928Y-76110000D01*
X63954808Y-76110000D01*
X63791245Y-76042250D01*
X63359448Y-75956360D01*
X62919192Y-75956360D01*
X62487395Y-76042250D01*
X62080651Y-76210729D01*
X61714591Y-76455322D01*
X61403282Y-76766631D01*
X61158689Y-77132691D01*
X60990210Y-77539435D01*
X60904320Y-77971232D01*
X60350360Y-77971232D01*
X60350070Y-75259738D01*
X73919865Y-75258472D01*
X73885074Y-75345469D01*
X74930000Y-76390395D01*
X75974926Y-75345469D01*
X75940060Y-75258283D01*
X79000054Y-75257998D01*
X78965074Y-75345469D01*
X80010000Y-76390395D01*
X81054926Y-75345469D01*
X81019870Y-75257809D01*
X88330402Y-75257127D01*
X88295074Y-75345469D01*
X89340000Y-76390395D01*
X90384926Y-75345469D01*
X90349522Y-75256939D01*
X93410592Y-75256653D01*
X93375074Y-75345469D01*
X94420000Y-76390395D01*
X95464926Y-75345469D01*
X95429333Y-75256465D01*
X113472290Y-75254781D01*
X113467351Y-121501146D01*
M02*
