M48
; DRILL file {KiCad (5.1.5)-3} date 2-9-2020 12:15:24
; FORMAT={-:-/ absolute / metric / decimal}
; #@! TF.CreationDate,2020-09-02T12:15:24+02:00
; #@! TF.GenerationSoftware,Kicad,Pcbnew,(5.1.5)-3
; #@! TF.FileFunction,Plated,1,2,PTH
FMAT,2
METRIC
T1C0.400
T2C1.200
T3C1.500
T4C1.700
%
G90
G05
T1
X60.841Y-109.141
X60.935Y-114.338
X63.51Y-114.198
X63.556Y-109.187
X65.943Y-109.187
X65.992Y-114.292
X77.62Y-87.932
X78.679Y-101.501
X81.488Y-101.501
X82.964Y-88.049
X82.984Y-90.726
X83.546Y-83.767
X83.82Y-76.2
X83.82Y-78.74
X83.82Y-81.28
X86.36Y-76.2
X86.36Y-78.74
X86.36Y-81.28
X89.766Y-117.589
X89.766Y-120.307
X99.06Y-76.2
X99.06Y-80.01
X99.06Y-83.82
X101.6Y-76.2
X101.6Y-80.01
X101.6Y-83.82
X101.6Y-86.36
X101.6Y-88.9
X101.6Y-91.44
X104.14Y-76.2
X104.14Y-80.01
X104.14Y-83.82
X106.68Y-83.82
X109.22Y-83.82
X109.266Y-98.93
X109.266Y-101.506
X109.311Y-104.221
X111.699Y-101.74
X111.747Y-104.27
X111.76Y-83.82
X111.793Y-98.885
T2
X86.581Y-86.652
X86.581Y-102.652
X96.581Y-86.652
X96.581Y-94.652
X96.581Y-102.652
X94.086Y-108.6
X94.086Y-118.6
X102.086Y-118.6
X110.086Y-108.6
X110.086Y-118.6
X63.574Y-86.652
X63.574Y-102.652
X73.574Y-86.652
X73.574Y-94.652
X73.574Y-102.652
X69.814Y-108.491
X69.814Y-118.491
X77.814Y-118.491
X85.814Y-108.491
X85.814Y-118.491
T3
X91.88Y-79.11
X77.47Y-79.11
X108.074Y-90.965
T4
X105.534Y-88.425
X105.534Y-93.505
X110.614Y-88.425
X110.614Y-93.505
X89.34Y-76.57
X89.34Y-81.65
X94.42Y-76.57
X94.42Y-81.65
X74.93Y-76.57
X74.93Y-81.65
X80.01Y-76.57
X80.01Y-81.65
T0
M30
