G04 #@! TF.GenerationSoftware,KiCad,Pcbnew,(5.1.5)-3*
G04 #@! TF.CreationDate,2020-09-02T12:15:22+02:00*
G04 #@! TF.ProjectId,mixer,6d697865-722e-46b6-9963-61645f706362,rev?*
G04 #@! TF.SameCoordinates,Original*
G04 #@! TF.FileFunction,Soldermask,Bot*
G04 #@! TF.FilePolarity,Negative*
%FSLAX46Y46*%
G04 Gerber Fmt 4.6, Leading zero omitted, Abs format (unit mm)*
G04 Created by KiCad (PCBNEW (5.1.5)-3) date 2020-09-02 12:15:22*
%MOMM*%
%LPD*%
G04 APERTURE LIST*
%ADD10C,0.100000*%
G04 APERTURE END LIST*
D10*
G36*
X63694916Y-116978818D02*
G01*
X63801239Y-116999967D01*
X63920194Y-117049240D01*
X64082674Y-117116541D01*
X64101702Y-117124423D01*
X64372111Y-117305105D01*
X64602075Y-117535069D01*
X64782757Y-117805478D01*
X64907213Y-118105941D01*
X64970660Y-118424911D01*
X64970660Y-118750129D01*
X64907213Y-119069099D01*
X64782757Y-119369562D01*
X64602075Y-119639971D01*
X64372111Y-119869935D01*
X64101702Y-120050617D01*
X63801239Y-120175073D01*
X63694916Y-120196222D01*
X63482271Y-120238520D01*
X63157049Y-120238520D01*
X62944404Y-120196222D01*
X62838081Y-120175073D01*
X62537618Y-120050617D01*
X62267209Y-119869935D01*
X62037245Y-119639971D01*
X61856563Y-119369562D01*
X61732107Y-119069099D01*
X61668660Y-118750129D01*
X61668660Y-118424911D01*
X61732107Y-118105941D01*
X61856563Y-117805478D01*
X62037245Y-117535069D01*
X62267209Y-117305105D01*
X62537618Y-117124423D01*
X62556647Y-117116541D01*
X62719126Y-117049240D01*
X62838081Y-116999967D01*
X62944404Y-116978818D01*
X63157049Y-116936520D01*
X63482271Y-116936520D01*
X63694916Y-116978818D01*
G37*
G36*
X110388725Y-117079042D02*
G01*
X110538550Y-117108844D01*
X110820814Y-117225761D01*
X111074845Y-117395499D01*
X111290881Y-117611535D01*
X111460619Y-117865566D01*
X111577536Y-118147830D01*
X111577536Y-118147831D01*
X111632651Y-118424909D01*
X111637140Y-118447480D01*
X111637140Y-118753000D01*
X111577536Y-119052650D01*
X111460619Y-119334914D01*
X111290881Y-119588945D01*
X111074845Y-119804981D01*
X110820814Y-119974719D01*
X110538550Y-120091636D01*
X110388725Y-120121438D01*
X110238901Y-120151240D01*
X109933379Y-120151240D01*
X109783555Y-120121438D01*
X109633730Y-120091636D01*
X109351466Y-119974719D01*
X109097435Y-119804981D01*
X108881399Y-119588945D01*
X108711661Y-119334914D01*
X108594744Y-119052650D01*
X108535140Y-118753000D01*
X108535140Y-118447480D01*
X108539630Y-118424909D01*
X108594744Y-118147831D01*
X108594744Y-118147830D01*
X108711661Y-117865566D01*
X108881399Y-117611535D01*
X109097435Y-117395499D01*
X109351466Y-117225761D01*
X109633730Y-117108844D01*
X109783555Y-117079042D01*
X109933379Y-117049240D01*
X110238901Y-117049240D01*
X110388725Y-117079042D01*
G37*
G36*
X94388725Y-117079042D02*
G01*
X94538550Y-117108844D01*
X94820814Y-117225761D01*
X95074845Y-117395499D01*
X95290881Y-117611535D01*
X95460619Y-117865566D01*
X95577536Y-118147830D01*
X95577536Y-118147831D01*
X95632651Y-118424909D01*
X95637140Y-118447480D01*
X95637140Y-118753000D01*
X95577536Y-119052650D01*
X95460619Y-119334914D01*
X95290881Y-119588945D01*
X95074845Y-119804981D01*
X94820814Y-119974719D01*
X94538550Y-120091636D01*
X94388725Y-120121438D01*
X94238901Y-120151240D01*
X93933379Y-120151240D01*
X93783555Y-120121438D01*
X93633730Y-120091636D01*
X93351466Y-119974719D01*
X93097435Y-119804981D01*
X92881399Y-119588945D01*
X92711661Y-119334914D01*
X92594744Y-119052650D01*
X92535140Y-118753000D01*
X92535140Y-118447480D01*
X92539630Y-118424909D01*
X92594744Y-118147831D01*
X92594744Y-118147830D01*
X92711661Y-117865566D01*
X92881399Y-117611535D01*
X93097435Y-117395499D01*
X93351466Y-117225761D01*
X93633730Y-117108844D01*
X93783555Y-117079042D01*
X93933379Y-117049240D01*
X94238901Y-117049240D01*
X94388725Y-117079042D01*
G37*
G36*
X102388725Y-117079042D02*
G01*
X102538550Y-117108844D01*
X102820814Y-117225761D01*
X103074845Y-117395499D01*
X103290881Y-117611535D01*
X103460619Y-117865566D01*
X103577536Y-118147830D01*
X103577536Y-118147831D01*
X103632651Y-118424909D01*
X103637140Y-118447480D01*
X103637140Y-118753000D01*
X103577536Y-119052650D01*
X103460619Y-119334914D01*
X103290881Y-119588945D01*
X103074845Y-119804981D01*
X102820814Y-119974719D01*
X102538550Y-120091636D01*
X102388725Y-120121438D01*
X102238901Y-120151240D01*
X101933379Y-120151240D01*
X101783555Y-120121438D01*
X101633730Y-120091636D01*
X101351466Y-119974719D01*
X101097435Y-119804981D01*
X100881399Y-119588945D01*
X100711661Y-119334914D01*
X100594744Y-119052650D01*
X100535140Y-118753000D01*
X100535140Y-118447480D01*
X100539630Y-118424909D01*
X100594744Y-118147831D01*
X100594744Y-118147830D01*
X100711661Y-117865566D01*
X100881399Y-117611535D01*
X101097435Y-117395499D01*
X101351466Y-117225761D01*
X101633730Y-117108844D01*
X101783555Y-117079042D01*
X101933379Y-117049240D01*
X102238901Y-117049240D01*
X102388725Y-117079042D01*
G37*
G36*
X70116485Y-116969822D02*
G01*
X70266310Y-116999624D01*
X70548574Y-117116541D01*
X70802605Y-117286279D01*
X71018641Y-117502315D01*
X71188379Y-117756346D01*
X71305296Y-118038610D01*
X71364900Y-118338260D01*
X71364900Y-118643780D01*
X71305296Y-118943430D01*
X71188379Y-119225694D01*
X71018641Y-119479725D01*
X70802605Y-119695761D01*
X70548574Y-119865499D01*
X70266310Y-119982416D01*
X70116485Y-120012218D01*
X69966661Y-120042020D01*
X69661139Y-120042020D01*
X69511315Y-120012218D01*
X69361490Y-119982416D01*
X69079226Y-119865499D01*
X68825195Y-119695761D01*
X68609159Y-119479725D01*
X68439421Y-119225694D01*
X68322504Y-118943430D01*
X68262900Y-118643780D01*
X68262900Y-118338260D01*
X68322504Y-118038610D01*
X68439421Y-117756346D01*
X68609159Y-117502315D01*
X68825195Y-117286279D01*
X69079226Y-117116541D01*
X69361490Y-116999624D01*
X69511315Y-116969822D01*
X69661139Y-116940020D01*
X69966661Y-116940020D01*
X70116485Y-116969822D01*
G37*
G36*
X86116485Y-116969822D02*
G01*
X86266310Y-116999624D01*
X86548574Y-117116541D01*
X86802605Y-117286279D01*
X87018641Y-117502315D01*
X87188379Y-117756346D01*
X87305296Y-118038610D01*
X87364900Y-118338260D01*
X87364900Y-118643780D01*
X87305296Y-118943430D01*
X87188379Y-119225694D01*
X87018641Y-119479725D01*
X86802605Y-119695761D01*
X86548574Y-119865499D01*
X86266310Y-119982416D01*
X86116485Y-120012218D01*
X85966661Y-120042020D01*
X85661139Y-120042020D01*
X85511315Y-120012218D01*
X85361490Y-119982416D01*
X85079226Y-119865499D01*
X84825195Y-119695761D01*
X84609159Y-119479725D01*
X84439421Y-119225694D01*
X84322504Y-118943430D01*
X84262900Y-118643780D01*
X84262900Y-118338260D01*
X84322504Y-118038610D01*
X84439421Y-117756346D01*
X84609159Y-117502315D01*
X84825195Y-117286279D01*
X85079226Y-117116541D01*
X85361490Y-116999624D01*
X85511315Y-116969822D01*
X85661139Y-116940020D01*
X85966661Y-116940020D01*
X86116485Y-116969822D01*
G37*
G36*
X78116485Y-116969822D02*
G01*
X78266310Y-116999624D01*
X78548574Y-117116541D01*
X78802605Y-117286279D01*
X79018641Y-117502315D01*
X79188379Y-117756346D01*
X79305296Y-118038610D01*
X79364900Y-118338260D01*
X79364900Y-118643780D01*
X79305296Y-118943430D01*
X79188379Y-119225694D01*
X79018641Y-119479725D01*
X78802605Y-119695761D01*
X78548574Y-119865499D01*
X78266310Y-119982416D01*
X78116485Y-120012218D01*
X77966661Y-120042020D01*
X77661139Y-120042020D01*
X77511315Y-120012218D01*
X77361490Y-119982416D01*
X77079226Y-119865499D01*
X76825195Y-119695761D01*
X76609159Y-119479725D01*
X76439421Y-119225694D01*
X76322504Y-118943430D01*
X76262900Y-118643780D01*
X76262900Y-118338260D01*
X76322504Y-118038610D01*
X76439421Y-117756346D01*
X76609159Y-117502315D01*
X76825195Y-117286279D01*
X77079226Y-117116541D01*
X77361490Y-116999624D01*
X77511315Y-116969822D01*
X77661139Y-116940020D01*
X77966661Y-116940020D01*
X78116485Y-116969822D01*
G37*
G36*
X110388725Y-107079042D02*
G01*
X110538550Y-107108844D01*
X110820814Y-107225761D01*
X111074845Y-107395499D01*
X111290881Y-107611535D01*
X111460619Y-107865566D01*
X111577536Y-108147830D01*
X111637140Y-108447480D01*
X111637140Y-108753000D01*
X111577536Y-109052650D01*
X111460619Y-109334914D01*
X111290881Y-109588945D01*
X111074845Y-109804981D01*
X110820814Y-109974719D01*
X110538550Y-110091636D01*
X110388725Y-110121438D01*
X110238901Y-110151240D01*
X109933379Y-110151240D01*
X109783555Y-110121438D01*
X109633730Y-110091636D01*
X109351466Y-109974719D01*
X109097435Y-109804981D01*
X108881399Y-109588945D01*
X108711661Y-109334914D01*
X108594744Y-109052650D01*
X108535140Y-108753000D01*
X108535140Y-108447480D01*
X108594744Y-108147830D01*
X108711661Y-107865566D01*
X108881399Y-107611535D01*
X109097435Y-107395499D01*
X109351466Y-107225761D01*
X109633730Y-107108844D01*
X109783555Y-107079042D01*
X109933379Y-107049240D01*
X110238901Y-107049240D01*
X110388725Y-107079042D01*
G37*
G36*
X94388725Y-107079042D02*
G01*
X94538550Y-107108844D01*
X94820814Y-107225761D01*
X95074845Y-107395499D01*
X95290881Y-107611535D01*
X95460619Y-107865566D01*
X95577536Y-108147830D01*
X95637140Y-108447480D01*
X95637140Y-108753000D01*
X95577536Y-109052650D01*
X95460619Y-109334914D01*
X95290881Y-109588945D01*
X95074845Y-109804981D01*
X94820814Y-109974719D01*
X94538550Y-110091636D01*
X94388725Y-110121438D01*
X94238901Y-110151240D01*
X93933379Y-110151240D01*
X93783555Y-110121438D01*
X93633730Y-110091636D01*
X93351466Y-109974719D01*
X93097435Y-109804981D01*
X92881399Y-109588945D01*
X92711661Y-109334914D01*
X92594744Y-109052650D01*
X92535140Y-108753000D01*
X92535140Y-108447480D01*
X92594744Y-108147830D01*
X92711661Y-107865566D01*
X92881399Y-107611535D01*
X93097435Y-107395499D01*
X93351466Y-107225761D01*
X93633730Y-107108844D01*
X93783555Y-107079042D01*
X93933379Y-107049240D01*
X94238901Y-107049240D01*
X94388725Y-107079042D01*
G37*
G36*
X70116485Y-106969822D02*
G01*
X70266310Y-106999624D01*
X70548574Y-107116541D01*
X70802605Y-107286279D01*
X71018641Y-107502315D01*
X71188379Y-107756346D01*
X71305296Y-108038610D01*
X71364900Y-108338260D01*
X71364900Y-108643780D01*
X71305296Y-108943430D01*
X71188379Y-109225694D01*
X71018641Y-109479725D01*
X70802605Y-109695761D01*
X70548574Y-109865499D01*
X70266310Y-109982416D01*
X70116485Y-110012218D01*
X69966661Y-110042020D01*
X69661139Y-110042020D01*
X69511315Y-110012218D01*
X69361490Y-109982416D01*
X69079226Y-109865499D01*
X68825195Y-109695761D01*
X68609159Y-109479725D01*
X68439421Y-109225694D01*
X68322504Y-108943430D01*
X68262900Y-108643780D01*
X68262900Y-108338260D01*
X68322504Y-108038610D01*
X68439421Y-107756346D01*
X68609159Y-107502315D01*
X68825195Y-107286279D01*
X69079226Y-107116541D01*
X69361490Y-106999624D01*
X69511315Y-106969822D01*
X69661139Y-106940020D01*
X69966661Y-106940020D01*
X70116485Y-106969822D01*
G37*
G36*
X86116485Y-106969822D02*
G01*
X86266310Y-106999624D01*
X86548574Y-107116541D01*
X86802605Y-107286279D01*
X87018641Y-107502315D01*
X87188379Y-107756346D01*
X87305296Y-108038610D01*
X87364900Y-108338260D01*
X87364900Y-108643780D01*
X87305296Y-108943430D01*
X87188379Y-109225694D01*
X87018641Y-109479725D01*
X86802605Y-109695761D01*
X86548574Y-109865499D01*
X86266310Y-109982416D01*
X86116485Y-110012218D01*
X85966661Y-110042020D01*
X85661139Y-110042020D01*
X85511315Y-110012218D01*
X85361490Y-109982416D01*
X85079226Y-109865499D01*
X84825195Y-109695761D01*
X84609159Y-109479725D01*
X84439421Y-109225694D01*
X84322504Y-108943430D01*
X84262900Y-108643780D01*
X84262900Y-108338260D01*
X84322504Y-108038610D01*
X84439421Y-107756346D01*
X84609159Y-107502315D01*
X84825195Y-107286279D01*
X85079226Y-107116541D01*
X85361490Y-106999624D01*
X85511315Y-106969822D01*
X85661139Y-106940020D01*
X85966661Y-106940020D01*
X86116485Y-106969822D01*
G37*
G36*
X73876245Y-101130902D02*
G01*
X74026070Y-101160704D01*
X74308334Y-101277621D01*
X74562365Y-101447359D01*
X74778401Y-101663395D01*
X74948139Y-101917426D01*
X75065056Y-102199690D01*
X75124660Y-102499340D01*
X75124660Y-102804860D01*
X75065056Y-103104510D01*
X74948139Y-103386774D01*
X74778401Y-103640805D01*
X74562365Y-103856841D01*
X74308334Y-104026579D01*
X74026070Y-104143496D01*
X73876245Y-104173298D01*
X73726421Y-104203100D01*
X73420899Y-104203100D01*
X73271075Y-104173298D01*
X73121250Y-104143496D01*
X72838986Y-104026579D01*
X72584955Y-103856841D01*
X72368919Y-103640805D01*
X72199181Y-103386774D01*
X72082264Y-103104510D01*
X72022660Y-102804860D01*
X72022660Y-102499340D01*
X72082264Y-102199690D01*
X72199181Y-101917426D01*
X72368919Y-101663395D01*
X72584955Y-101447359D01*
X72838986Y-101277621D01*
X73121250Y-101160704D01*
X73271075Y-101130902D01*
X73420899Y-101101100D01*
X73726421Y-101101100D01*
X73876245Y-101130902D01*
G37*
G36*
X86883565Y-101130902D02*
G01*
X87033390Y-101160704D01*
X87315654Y-101277621D01*
X87569685Y-101447359D01*
X87785721Y-101663395D01*
X87955459Y-101917426D01*
X88072376Y-102199690D01*
X88131980Y-102499340D01*
X88131980Y-102804860D01*
X88072376Y-103104510D01*
X87955459Y-103386774D01*
X87785721Y-103640805D01*
X87569685Y-103856841D01*
X87315654Y-104026579D01*
X87033390Y-104143496D01*
X86883565Y-104173298D01*
X86733741Y-104203100D01*
X86428219Y-104203100D01*
X86278395Y-104173298D01*
X86128570Y-104143496D01*
X85846306Y-104026579D01*
X85592275Y-103856841D01*
X85376239Y-103640805D01*
X85206501Y-103386774D01*
X85089584Y-103104510D01*
X85029980Y-102804860D01*
X85029980Y-102499340D01*
X85089584Y-102199690D01*
X85206501Y-101917426D01*
X85376239Y-101663395D01*
X85592275Y-101447359D01*
X85846306Y-101277621D01*
X86128570Y-101160704D01*
X86278395Y-101130902D01*
X86428219Y-101101100D01*
X86733741Y-101101100D01*
X86883565Y-101130902D01*
G37*
G36*
X96883565Y-101130902D02*
G01*
X97033390Y-101160704D01*
X97315654Y-101277621D01*
X97569685Y-101447359D01*
X97785721Y-101663395D01*
X97955459Y-101917426D01*
X98072376Y-102199690D01*
X98131980Y-102499340D01*
X98131980Y-102804860D01*
X98072376Y-103104510D01*
X97955459Y-103386774D01*
X97785721Y-103640805D01*
X97569685Y-103856841D01*
X97315654Y-104026579D01*
X97033390Y-104143496D01*
X96883565Y-104173298D01*
X96733741Y-104203100D01*
X96428219Y-104203100D01*
X96278395Y-104173298D01*
X96128570Y-104143496D01*
X95846306Y-104026579D01*
X95592275Y-103856841D01*
X95376239Y-103640805D01*
X95206501Y-103386774D01*
X95089584Y-103104510D01*
X95029980Y-102804860D01*
X95029980Y-102499340D01*
X95089584Y-102199690D01*
X95206501Y-101917426D01*
X95376239Y-101663395D01*
X95592275Y-101447359D01*
X95846306Y-101277621D01*
X96128570Y-101160704D01*
X96278395Y-101130902D01*
X96428219Y-101101100D01*
X96733741Y-101101100D01*
X96883565Y-101130902D01*
G37*
G36*
X63876245Y-101130902D02*
G01*
X64026070Y-101160704D01*
X64308334Y-101277621D01*
X64562365Y-101447359D01*
X64778401Y-101663395D01*
X64948139Y-101917426D01*
X65065056Y-102199690D01*
X65124660Y-102499340D01*
X65124660Y-102804860D01*
X65065056Y-103104510D01*
X64948139Y-103386774D01*
X64778401Y-103640805D01*
X64562365Y-103856841D01*
X64308334Y-104026579D01*
X64026070Y-104143496D01*
X63876245Y-104173298D01*
X63726421Y-104203100D01*
X63420899Y-104203100D01*
X63271075Y-104173298D01*
X63121250Y-104143496D01*
X62838986Y-104026579D01*
X62584955Y-103856841D01*
X62368919Y-103640805D01*
X62199181Y-103386774D01*
X62082264Y-103104510D01*
X62022660Y-102804860D01*
X62022660Y-102499340D01*
X62082264Y-102199690D01*
X62199181Y-101917426D01*
X62368919Y-101663395D01*
X62584955Y-101447359D01*
X62838986Y-101277621D01*
X63121250Y-101160704D01*
X63271075Y-101130902D01*
X63420899Y-101101100D01*
X63726421Y-101101100D01*
X63876245Y-101130902D01*
G37*
G36*
X96883565Y-93130902D02*
G01*
X97033390Y-93160704D01*
X97315654Y-93277621D01*
X97569685Y-93447359D01*
X97785721Y-93663395D01*
X97955459Y-93917426D01*
X98072376Y-94199690D01*
X98131980Y-94499340D01*
X98131980Y-94804860D01*
X98072376Y-95104510D01*
X97955459Y-95386774D01*
X97785721Y-95640805D01*
X97569685Y-95856841D01*
X97315654Y-96026579D01*
X97033390Y-96143496D01*
X96883565Y-96173298D01*
X96733741Y-96203100D01*
X96428219Y-96203100D01*
X96278395Y-96173298D01*
X96128570Y-96143496D01*
X95846306Y-96026579D01*
X95592275Y-95856841D01*
X95376239Y-95640805D01*
X95206501Y-95386774D01*
X95089584Y-95104510D01*
X95029980Y-94804860D01*
X95029980Y-94499340D01*
X95089584Y-94199690D01*
X95206501Y-93917426D01*
X95376239Y-93663395D01*
X95592275Y-93447359D01*
X95846306Y-93277621D01*
X96128570Y-93160704D01*
X96278395Y-93130902D01*
X96428219Y-93101100D01*
X96733741Y-93101100D01*
X96883565Y-93130902D01*
G37*
G36*
X73876245Y-93130902D02*
G01*
X74026070Y-93160704D01*
X74308334Y-93277621D01*
X74562365Y-93447359D01*
X74778401Y-93663395D01*
X74948139Y-93917426D01*
X75065056Y-94199690D01*
X75124660Y-94499340D01*
X75124660Y-94804860D01*
X75065056Y-95104510D01*
X74948139Y-95386774D01*
X74778401Y-95640805D01*
X74562365Y-95856841D01*
X74308334Y-96026579D01*
X74026070Y-96143496D01*
X73876245Y-96173298D01*
X73726421Y-96203100D01*
X73420899Y-96203100D01*
X73271075Y-96173298D01*
X73121250Y-96143496D01*
X72838986Y-96026579D01*
X72584955Y-95856841D01*
X72368919Y-95640805D01*
X72199181Y-95386774D01*
X72082264Y-95104510D01*
X72022660Y-94804860D01*
X72022660Y-94499340D01*
X72082264Y-94199690D01*
X72199181Y-93917426D01*
X72368919Y-93663395D01*
X72584955Y-93447359D01*
X72838986Y-93277621D01*
X73121250Y-93160704D01*
X73271075Y-93130902D01*
X73420899Y-93101100D01*
X73726421Y-93101100D01*
X73876245Y-93130902D01*
G37*
G36*
X110806020Y-92344084D02*
G01*
X110957487Y-92374213D01*
X111171505Y-92462862D01*
X111171506Y-92462863D01*
X111364114Y-92591559D01*
X111527921Y-92755366D01*
X111613718Y-92883771D01*
X111656618Y-92947975D01*
X111745267Y-93161993D01*
X111745267Y-93161995D01*
X111790460Y-93389193D01*
X111790460Y-93620847D01*
X111781996Y-93663396D01*
X111745267Y-93848047D01*
X111656618Y-94062065D01*
X111656617Y-94062066D01*
X111527921Y-94254674D01*
X111364114Y-94418481D01*
X111243101Y-94499339D01*
X111171505Y-94547178D01*
X110957487Y-94635827D01*
X110806020Y-94665956D01*
X110730287Y-94681020D01*
X110498633Y-94681020D01*
X110422900Y-94665956D01*
X110271433Y-94635827D01*
X110057415Y-94547178D01*
X109985819Y-94499339D01*
X109864806Y-94418481D01*
X109700999Y-94254674D01*
X109572303Y-94062066D01*
X109572302Y-94062065D01*
X109483653Y-93848047D01*
X109446924Y-93663396D01*
X109438460Y-93620847D01*
X109438460Y-93389193D01*
X109483653Y-93161995D01*
X109483653Y-93161993D01*
X109572302Y-92947975D01*
X109615202Y-92883771D01*
X109700999Y-92755366D01*
X109864806Y-92591559D01*
X110057414Y-92462863D01*
X110057415Y-92462862D01*
X110271433Y-92374213D01*
X110422900Y-92344084D01*
X110498633Y-92329020D01*
X110730287Y-92329020D01*
X110806020Y-92344084D01*
G37*
G36*
X105726020Y-92344084D02*
G01*
X105877487Y-92374213D01*
X106091505Y-92462862D01*
X106091506Y-92462863D01*
X106284114Y-92591559D01*
X106447921Y-92755366D01*
X106533718Y-92883771D01*
X106576618Y-92947975D01*
X106665267Y-93161993D01*
X106665267Y-93161995D01*
X106710460Y-93389193D01*
X106710460Y-93620847D01*
X106701996Y-93663396D01*
X106665267Y-93848047D01*
X106576618Y-94062065D01*
X106576617Y-94062066D01*
X106447921Y-94254674D01*
X106284114Y-94418481D01*
X106163101Y-94499339D01*
X106091505Y-94547178D01*
X105877487Y-94635827D01*
X105726020Y-94665956D01*
X105650287Y-94681020D01*
X105418633Y-94681020D01*
X105342900Y-94665956D01*
X105191433Y-94635827D01*
X104977415Y-94547178D01*
X104905819Y-94499339D01*
X104784806Y-94418481D01*
X104620999Y-94254674D01*
X104492303Y-94062066D01*
X104492302Y-94062065D01*
X104403653Y-93848047D01*
X104366924Y-93663396D01*
X104358460Y-93620847D01*
X104358460Y-93389193D01*
X104403653Y-93161995D01*
X104403653Y-93161993D01*
X104492302Y-92947975D01*
X104535202Y-92883771D01*
X104620999Y-92755366D01*
X104784806Y-92591559D01*
X104977414Y-92462863D01*
X104977415Y-92462862D01*
X105191433Y-92374213D01*
X105342900Y-92344084D01*
X105418633Y-92329020D01*
X105650287Y-92329020D01*
X105726020Y-92344084D01*
G37*
G36*
X108249731Y-89902803D02*
G01*
X108388318Y-89930370D01*
X108584137Y-90011481D01*
X108760370Y-90129236D01*
X108910244Y-90279110D01*
X109027999Y-90455343D01*
X109109110Y-90651162D01*
X109150460Y-90859043D01*
X109150460Y-91070997D01*
X109109110Y-91278878D01*
X109027999Y-91474697D01*
X108910244Y-91650930D01*
X108760370Y-91800804D01*
X108584137Y-91918559D01*
X108388318Y-91999670D01*
X108249731Y-92027237D01*
X108180438Y-92041020D01*
X107968482Y-92041020D01*
X107899189Y-92027237D01*
X107760602Y-91999670D01*
X107564783Y-91918559D01*
X107388550Y-91800804D01*
X107238676Y-91650930D01*
X107120921Y-91474697D01*
X107039810Y-91278878D01*
X106998460Y-91070997D01*
X106998460Y-90859043D01*
X107039810Y-90651162D01*
X107120921Y-90455343D01*
X107238676Y-90279110D01*
X107388550Y-90129236D01*
X107564783Y-90011481D01*
X107760602Y-89930370D01*
X107899189Y-89902803D01*
X107968482Y-89889020D01*
X108180438Y-89889020D01*
X108249731Y-89902803D01*
G37*
G36*
X105726020Y-87264084D02*
G01*
X105877487Y-87294213D01*
X106091505Y-87382862D01*
X106155709Y-87425762D01*
X106284114Y-87511559D01*
X106447921Y-87675366D01*
X106533718Y-87803771D01*
X106576618Y-87867975D01*
X106665267Y-88081993D01*
X106710460Y-88309194D01*
X106710460Y-88540846D01*
X106665267Y-88768047D01*
X106576618Y-88982065D01*
X106576617Y-88982066D01*
X106447921Y-89174674D01*
X106284114Y-89338481D01*
X106155709Y-89424278D01*
X106091505Y-89467178D01*
X105877487Y-89555827D01*
X105726020Y-89585956D01*
X105650287Y-89601020D01*
X105418633Y-89601020D01*
X105342900Y-89585956D01*
X105191433Y-89555827D01*
X104977415Y-89467178D01*
X104913211Y-89424278D01*
X104784806Y-89338481D01*
X104620999Y-89174674D01*
X104492303Y-88982066D01*
X104492302Y-88982065D01*
X104403653Y-88768047D01*
X104358460Y-88540846D01*
X104358460Y-88309194D01*
X104403653Y-88081993D01*
X104492302Y-87867975D01*
X104535202Y-87803771D01*
X104620999Y-87675366D01*
X104784806Y-87511559D01*
X104913211Y-87425762D01*
X104977415Y-87382862D01*
X105191433Y-87294213D01*
X105342900Y-87264084D01*
X105418633Y-87249020D01*
X105650287Y-87249020D01*
X105726020Y-87264084D01*
G37*
G36*
X110806020Y-87264084D02*
G01*
X110957487Y-87294213D01*
X111171505Y-87382862D01*
X111235709Y-87425762D01*
X111364114Y-87511559D01*
X111527921Y-87675366D01*
X111613718Y-87803771D01*
X111656618Y-87867975D01*
X111745267Y-88081993D01*
X111790460Y-88309194D01*
X111790460Y-88540846D01*
X111745267Y-88768047D01*
X111656618Y-88982065D01*
X111656617Y-88982066D01*
X111527921Y-89174674D01*
X111364114Y-89338481D01*
X111235709Y-89424278D01*
X111171505Y-89467178D01*
X110957487Y-89555827D01*
X110806020Y-89585956D01*
X110730287Y-89601020D01*
X110498633Y-89601020D01*
X110422900Y-89585956D01*
X110271433Y-89555827D01*
X110057415Y-89467178D01*
X109993211Y-89424278D01*
X109864806Y-89338481D01*
X109700999Y-89174674D01*
X109572303Y-88982066D01*
X109572302Y-88982065D01*
X109483653Y-88768047D01*
X109438460Y-88540846D01*
X109438460Y-88309194D01*
X109483653Y-88081993D01*
X109572302Y-87867975D01*
X109615202Y-87803771D01*
X109700999Y-87675366D01*
X109864806Y-87511559D01*
X109993211Y-87425762D01*
X110057415Y-87382862D01*
X110271433Y-87294213D01*
X110422900Y-87264084D01*
X110498633Y-87249020D01*
X110730287Y-87249020D01*
X110806020Y-87264084D01*
G37*
G36*
X63876245Y-85130902D02*
G01*
X64026070Y-85160704D01*
X64308334Y-85277621D01*
X64562365Y-85447359D01*
X64778401Y-85663395D01*
X64948139Y-85917426D01*
X65065056Y-86199690D01*
X65124660Y-86499340D01*
X65124660Y-86804860D01*
X65065056Y-87104510D01*
X64948139Y-87386774D01*
X64778401Y-87640805D01*
X64562365Y-87856841D01*
X64308334Y-88026579D01*
X64026070Y-88143496D01*
X63876245Y-88173298D01*
X63726421Y-88203100D01*
X63420899Y-88203100D01*
X63271075Y-88173298D01*
X63121250Y-88143496D01*
X62838986Y-88026579D01*
X62584955Y-87856841D01*
X62368919Y-87640805D01*
X62199181Y-87386774D01*
X62082264Y-87104510D01*
X62022660Y-86804860D01*
X62022660Y-86499340D01*
X62082264Y-86199690D01*
X62199181Y-85917426D01*
X62368919Y-85663395D01*
X62584955Y-85447359D01*
X62838986Y-85277621D01*
X63121250Y-85160704D01*
X63271075Y-85130902D01*
X63420899Y-85101100D01*
X63726421Y-85101100D01*
X63876245Y-85130902D01*
G37*
G36*
X73876245Y-85130902D02*
G01*
X74026070Y-85160704D01*
X74308334Y-85277621D01*
X74562365Y-85447359D01*
X74778401Y-85663395D01*
X74948139Y-85917426D01*
X75065056Y-86199690D01*
X75124660Y-86499340D01*
X75124660Y-86804860D01*
X75065056Y-87104510D01*
X74948139Y-87386774D01*
X74778401Y-87640805D01*
X74562365Y-87856841D01*
X74308334Y-88026579D01*
X74026070Y-88143496D01*
X73876245Y-88173298D01*
X73726421Y-88203100D01*
X73420899Y-88203100D01*
X73271075Y-88173298D01*
X73121250Y-88143496D01*
X72838986Y-88026579D01*
X72584955Y-87856841D01*
X72368919Y-87640805D01*
X72199181Y-87386774D01*
X72082264Y-87104510D01*
X72022660Y-86804860D01*
X72022660Y-86499340D01*
X72082264Y-86199690D01*
X72199181Y-85917426D01*
X72368919Y-85663395D01*
X72584955Y-85447359D01*
X72838986Y-85277621D01*
X73121250Y-85160704D01*
X73271075Y-85130902D01*
X73420899Y-85101100D01*
X73726421Y-85101100D01*
X73876245Y-85130902D01*
G37*
G36*
X86883565Y-85130902D02*
G01*
X87033390Y-85160704D01*
X87315654Y-85277621D01*
X87569685Y-85447359D01*
X87785721Y-85663395D01*
X87955459Y-85917426D01*
X88072376Y-86199690D01*
X88131980Y-86499340D01*
X88131980Y-86804860D01*
X88072376Y-87104510D01*
X87955459Y-87386774D01*
X87785721Y-87640805D01*
X87569685Y-87856841D01*
X87315654Y-88026579D01*
X87033390Y-88143496D01*
X86883565Y-88173298D01*
X86733741Y-88203100D01*
X86428219Y-88203100D01*
X86278395Y-88173298D01*
X86128570Y-88143496D01*
X85846306Y-88026579D01*
X85592275Y-87856841D01*
X85376239Y-87640805D01*
X85206501Y-87386774D01*
X85089584Y-87104510D01*
X85029980Y-86804860D01*
X85029980Y-86499340D01*
X85089584Y-86199690D01*
X85206501Y-85917426D01*
X85376239Y-85663395D01*
X85592275Y-85447359D01*
X85846306Y-85277621D01*
X86128570Y-85160704D01*
X86278395Y-85130902D01*
X86428219Y-85101100D01*
X86733741Y-85101100D01*
X86883565Y-85130902D01*
G37*
G36*
X96883565Y-85130902D02*
G01*
X97033390Y-85160704D01*
X97315654Y-85277621D01*
X97569685Y-85447359D01*
X97785721Y-85663395D01*
X97955459Y-85917426D01*
X98072376Y-86199690D01*
X98131980Y-86499340D01*
X98131980Y-86804860D01*
X98072376Y-87104510D01*
X97955459Y-87386774D01*
X97785721Y-87640805D01*
X97569685Y-87856841D01*
X97315654Y-88026579D01*
X97033390Y-88143496D01*
X96883565Y-88173298D01*
X96733741Y-88203100D01*
X96428219Y-88203100D01*
X96278395Y-88173298D01*
X96128570Y-88143496D01*
X95846306Y-88026579D01*
X95592275Y-87856841D01*
X95376239Y-87640805D01*
X95206501Y-87386774D01*
X95089584Y-87104510D01*
X95029980Y-86804860D01*
X95029980Y-86499340D01*
X95089584Y-86199690D01*
X95206501Y-85917426D01*
X95376239Y-85663395D01*
X95592275Y-85447359D01*
X95846306Y-85277621D01*
X96128570Y-85160704D01*
X96278395Y-85130902D01*
X96428219Y-85101100D01*
X96733741Y-85101100D01*
X96883565Y-85130902D01*
G37*
G36*
X75121560Y-80489064D02*
G01*
X75273027Y-80519193D01*
X75487045Y-80607842D01*
X75487046Y-80607843D01*
X75679654Y-80736539D01*
X75843461Y-80900346D01*
X75929258Y-81028751D01*
X75972158Y-81092955D01*
X76060807Y-81306973D01*
X76106000Y-81534174D01*
X76106000Y-81765826D01*
X76060807Y-81993027D01*
X75972158Y-82207045D01*
X75972157Y-82207046D01*
X75843461Y-82399654D01*
X75679654Y-82563461D01*
X75551249Y-82649258D01*
X75487045Y-82692158D01*
X75273027Y-82780807D01*
X75121560Y-82810936D01*
X75045827Y-82826000D01*
X74814173Y-82826000D01*
X74738440Y-82810936D01*
X74586973Y-82780807D01*
X74372955Y-82692158D01*
X74308751Y-82649258D01*
X74180346Y-82563461D01*
X74016539Y-82399654D01*
X73887843Y-82207046D01*
X73887842Y-82207045D01*
X73799193Y-81993027D01*
X73754000Y-81765826D01*
X73754000Y-81534174D01*
X73799193Y-81306973D01*
X73887842Y-81092955D01*
X73930742Y-81028751D01*
X74016539Y-80900346D01*
X74180346Y-80736539D01*
X74372954Y-80607843D01*
X74372955Y-80607842D01*
X74586973Y-80519193D01*
X74738440Y-80489064D01*
X74814173Y-80474000D01*
X75045827Y-80474000D01*
X75121560Y-80489064D01*
G37*
G36*
X80201560Y-80489064D02*
G01*
X80353027Y-80519193D01*
X80567045Y-80607842D01*
X80567046Y-80607843D01*
X80759654Y-80736539D01*
X80923461Y-80900346D01*
X81009258Y-81028751D01*
X81052158Y-81092955D01*
X81140807Y-81306973D01*
X81186000Y-81534174D01*
X81186000Y-81765826D01*
X81140807Y-81993027D01*
X81052158Y-82207045D01*
X81052157Y-82207046D01*
X80923461Y-82399654D01*
X80759654Y-82563461D01*
X80631249Y-82649258D01*
X80567045Y-82692158D01*
X80353027Y-82780807D01*
X80201560Y-82810936D01*
X80125827Y-82826000D01*
X79894173Y-82826000D01*
X79818440Y-82810936D01*
X79666973Y-82780807D01*
X79452955Y-82692158D01*
X79388751Y-82649258D01*
X79260346Y-82563461D01*
X79096539Y-82399654D01*
X78967843Y-82207046D01*
X78967842Y-82207045D01*
X78879193Y-81993027D01*
X78834000Y-81765826D01*
X78834000Y-81534174D01*
X78879193Y-81306973D01*
X78967842Y-81092955D01*
X79010742Y-81028751D01*
X79096539Y-80900346D01*
X79260346Y-80736539D01*
X79452954Y-80607843D01*
X79452955Y-80607842D01*
X79666973Y-80519193D01*
X79818440Y-80489064D01*
X79894173Y-80474000D01*
X80125827Y-80474000D01*
X80201560Y-80489064D01*
G37*
G36*
X89531560Y-80489064D02*
G01*
X89683027Y-80519193D01*
X89897045Y-80607842D01*
X89897046Y-80607843D01*
X90089654Y-80736539D01*
X90253461Y-80900346D01*
X90339258Y-81028751D01*
X90382158Y-81092955D01*
X90470807Y-81306973D01*
X90516000Y-81534174D01*
X90516000Y-81765826D01*
X90470807Y-81993027D01*
X90382158Y-82207045D01*
X90382157Y-82207046D01*
X90253461Y-82399654D01*
X90089654Y-82563461D01*
X89961249Y-82649258D01*
X89897045Y-82692158D01*
X89683027Y-82780807D01*
X89531560Y-82810936D01*
X89455827Y-82826000D01*
X89224173Y-82826000D01*
X89148440Y-82810936D01*
X88996973Y-82780807D01*
X88782955Y-82692158D01*
X88718751Y-82649258D01*
X88590346Y-82563461D01*
X88426539Y-82399654D01*
X88297843Y-82207046D01*
X88297842Y-82207045D01*
X88209193Y-81993027D01*
X88164000Y-81765826D01*
X88164000Y-81534174D01*
X88209193Y-81306973D01*
X88297842Y-81092955D01*
X88340742Y-81028751D01*
X88426539Y-80900346D01*
X88590346Y-80736539D01*
X88782954Y-80607843D01*
X88782955Y-80607842D01*
X88996973Y-80519193D01*
X89148440Y-80489064D01*
X89224173Y-80474000D01*
X89455827Y-80474000D01*
X89531560Y-80489064D01*
G37*
G36*
X94611560Y-80489064D02*
G01*
X94763027Y-80519193D01*
X94977045Y-80607842D01*
X94977046Y-80607843D01*
X95169654Y-80736539D01*
X95333461Y-80900346D01*
X95419258Y-81028751D01*
X95462158Y-81092955D01*
X95550807Y-81306973D01*
X95596000Y-81534174D01*
X95596000Y-81765826D01*
X95550807Y-81993027D01*
X95462158Y-82207045D01*
X95462157Y-82207046D01*
X95333461Y-82399654D01*
X95169654Y-82563461D01*
X95041249Y-82649258D01*
X94977045Y-82692158D01*
X94763027Y-82780807D01*
X94611560Y-82810936D01*
X94535827Y-82826000D01*
X94304173Y-82826000D01*
X94228440Y-82810936D01*
X94076973Y-82780807D01*
X93862955Y-82692158D01*
X93798751Y-82649258D01*
X93670346Y-82563461D01*
X93506539Y-82399654D01*
X93377843Y-82207046D01*
X93377842Y-82207045D01*
X93289193Y-81993027D01*
X93244000Y-81765826D01*
X93244000Y-81534174D01*
X93289193Y-81306973D01*
X93377842Y-81092955D01*
X93420742Y-81028751D01*
X93506539Y-80900346D01*
X93670346Y-80736539D01*
X93862954Y-80607843D01*
X93862955Y-80607842D01*
X94076973Y-80519193D01*
X94228440Y-80489064D01*
X94304173Y-80474000D01*
X94535827Y-80474000D01*
X94611560Y-80489064D01*
G37*
G36*
X77645271Y-78047783D02*
G01*
X77783858Y-78075350D01*
X77979677Y-78156461D01*
X78155910Y-78274216D01*
X78305784Y-78424090D01*
X78423539Y-78600323D01*
X78504650Y-78796142D01*
X78532217Y-78934729D01*
X78546000Y-79004022D01*
X78546000Y-79215978D01*
X78532217Y-79285271D01*
X78504650Y-79423858D01*
X78423539Y-79619677D01*
X78305784Y-79795910D01*
X78155910Y-79945784D01*
X77979677Y-80063539D01*
X77783858Y-80144650D01*
X77645271Y-80172217D01*
X77575978Y-80186000D01*
X77364022Y-80186000D01*
X77294729Y-80172217D01*
X77156142Y-80144650D01*
X76960323Y-80063539D01*
X76784090Y-79945784D01*
X76634216Y-79795910D01*
X76516461Y-79619677D01*
X76435350Y-79423858D01*
X76407783Y-79285271D01*
X76394000Y-79215978D01*
X76394000Y-79004022D01*
X76407783Y-78934729D01*
X76435350Y-78796142D01*
X76516461Y-78600323D01*
X76634216Y-78424090D01*
X76784090Y-78274216D01*
X76960323Y-78156461D01*
X77156142Y-78075350D01*
X77294729Y-78047783D01*
X77364022Y-78034000D01*
X77575978Y-78034000D01*
X77645271Y-78047783D01*
G37*
G36*
X92055271Y-78047783D02*
G01*
X92193858Y-78075350D01*
X92389677Y-78156461D01*
X92565910Y-78274216D01*
X92715784Y-78424090D01*
X92833539Y-78600323D01*
X92914650Y-78796142D01*
X92942217Y-78934729D01*
X92956000Y-79004022D01*
X92956000Y-79215978D01*
X92942217Y-79285271D01*
X92914650Y-79423858D01*
X92833539Y-79619677D01*
X92715784Y-79795910D01*
X92565910Y-79945784D01*
X92389677Y-80063539D01*
X92193858Y-80144650D01*
X92055271Y-80172217D01*
X91985978Y-80186000D01*
X91774022Y-80186000D01*
X91704729Y-80172217D01*
X91566142Y-80144650D01*
X91370323Y-80063539D01*
X91194090Y-79945784D01*
X91044216Y-79795910D01*
X90926461Y-79619677D01*
X90845350Y-79423858D01*
X90817783Y-79285271D01*
X90804000Y-79215978D01*
X90804000Y-79004022D01*
X90817783Y-78934729D01*
X90845350Y-78796142D01*
X90926461Y-78600323D01*
X91044216Y-78424090D01*
X91194090Y-78274216D01*
X91370323Y-78156461D01*
X91566142Y-78075350D01*
X91704729Y-78047783D01*
X91774022Y-78034000D01*
X91985978Y-78034000D01*
X92055271Y-78047783D01*
G37*
G36*
X109831476Y-76778238D02*
G01*
X109937799Y-76799387D01*
X110238262Y-76923843D01*
X110508671Y-77104525D01*
X110738635Y-77334489D01*
X110838174Y-77483459D01*
X110919318Y-77604900D01*
X111043773Y-77905362D01*
X111107220Y-78224329D01*
X111107220Y-78549551D01*
X111082676Y-78672939D01*
X111043773Y-78868519D01*
X110919317Y-79168982D01*
X110738635Y-79439391D01*
X110508671Y-79669355D01*
X110238262Y-79850037D01*
X109937799Y-79974493D01*
X109831476Y-79995642D01*
X109618831Y-80037940D01*
X109293609Y-80037940D01*
X109080964Y-79995642D01*
X108974641Y-79974493D01*
X108674178Y-79850037D01*
X108403769Y-79669355D01*
X108173805Y-79439391D01*
X107993123Y-79168982D01*
X107868667Y-78868519D01*
X107829764Y-78672939D01*
X107805220Y-78549551D01*
X107805220Y-78224329D01*
X107868667Y-77905362D01*
X107993122Y-77604900D01*
X108074266Y-77483459D01*
X108173805Y-77334489D01*
X108403769Y-77104525D01*
X108674178Y-76923843D01*
X108974641Y-76799387D01*
X109080964Y-76778238D01*
X109293609Y-76735940D01*
X109618831Y-76735940D01*
X109831476Y-76778238D01*
G37*
G36*
X63514576Y-76582658D02*
G01*
X63620899Y-76603807D01*
X63921362Y-76728263D01*
X64191771Y-76908945D01*
X64421735Y-77138909D01*
X64602417Y-77409318D01*
X64723156Y-77700807D01*
X64726873Y-77709782D01*
X64790320Y-78028749D01*
X64790320Y-78353971D01*
X64751417Y-78549549D01*
X64726873Y-78672939D01*
X64602417Y-78973402D01*
X64421735Y-79243811D01*
X64191771Y-79473775D01*
X63921362Y-79654457D01*
X63620899Y-79778913D01*
X63535464Y-79795907D01*
X63301931Y-79842360D01*
X62976709Y-79842360D01*
X62743176Y-79795907D01*
X62657741Y-79778913D01*
X62357278Y-79654457D01*
X62086869Y-79473775D01*
X61856905Y-79243811D01*
X61676223Y-78973402D01*
X61551767Y-78672939D01*
X61527223Y-78549549D01*
X61488320Y-78353971D01*
X61488320Y-78028749D01*
X61551767Y-77709782D01*
X61555485Y-77700807D01*
X61676223Y-77409318D01*
X61856905Y-77138909D01*
X62086869Y-76908945D01*
X62357278Y-76728263D01*
X62657741Y-76603807D01*
X62764064Y-76582658D01*
X62976709Y-76540360D01*
X63301931Y-76540360D01*
X63514576Y-76582658D01*
G37*
G36*
X94611560Y-75409064D02*
G01*
X94763027Y-75439193D01*
X94977045Y-75527842D01*
X94977046Y-75527843D01*
X95169654Y-75656539D01*
X95333461Y-75820346D01*
X95419258Y-75948751D01*
X95462158Y-76012955D01*
X95550807Y-76226973D01*
X95596000Y-76454174D01*
X95596000Y-76685826D01*
X95550807Y-76913027D01*
X95462158Y-77127045D01*
X95454229Y-77138911D01*
X95333461Y-77319654D01*
X95169654Y-77483461D01*
X95041249Y-77569258D01*
X94977045Y-77612158D01*
X94763027Y-77700807D01*
X94611560Y-77730936D01*
X94535827Y-77746000D01*
X94304173Y-77746000D01*
X94228440Y-77730936D01*
X94076973Y-77700807D01*
X93862955Y-77612158D01*
X93798751Y-77569258D01*
X93670346Y-77483461D01*
X93506539Y-77319654D01*
X93385771Y-77138911D01*
X93377842Y-77127045D01*
X93289193Y-76913027D01*
X93244000Y-76685826D01*
X93244000Y-76454174D01*
X93289193Y-76226973D01*
X93377842Y-76012955D01*
X93420742Y-75948751D01*
X93506539Y-75820346D01*
X93670346Y-75656539D01*
X93862954Y-75527843D01*
X93862955Y-75527842D01*
X94076973Y-75439193D01*
X94228440Y-75409064D01*
X94304173Y-75394000D01*
X94535827Y-75394000D01*
X94611560Y-75409064D01*
G37*
G36*
X89531560Y-75409064D02*
G01*
X89683027Y-75439193D01*
X89897045Y-75527842D01*
X89897046Y-75527843D01*
X90089654Y-75656539D01*
X90253461Y-75820346D01*
X90339258Y-75948751D01*
X90382158Y-76012955D01*
X90470807Y-76226973D01*
X90516000Y-76454174D01*
X90516000Y-76685826D01*
X90470807Y-76913027D01*
X90382158Y-77127045D01*
X90374229Y-77138911D01*
X90253461Y-77319654D01*
X90089654Y-77483461D01*
X89961249Y-77569258D01*
X89897045Y-77612158D01*
X89683027Y-77700807D01*
X89531560Y-77730936D01*
X89455827Y-77746000D01*
X89224173Y-77746000D01*
X89148440Y-77730936D01*
X88996973Y-77700807D01*
X88782955Y-77612158D01*
X88718751Y-77569258D01*
X88590346Y-77483461D01*
X88426539Y-77319654D01*
X88305771Y-77138911D01*
X88297842Y-77127045D01*
X88209193Y-76913027D01*
X88164000Y-76685826D01*
X88164000Y-76454174D01*
X88209193Y-76226973D01*
X88297842Y-76012955D01*
X88340742Y-75948751D01*
X88426539Y-75820346D01*
X88590346Y-75656539D01*
X88782954Y-75527843D01*
X88782955Y-75527842D01*
X88996973Y-75439193D01*
X89148440Y-75409064D01*
X89224173Y-75394000D01*
X89455827Y-75394000D01*
X89531560Y-75409064D01*
G37*
G36*
X80201560Y-75409064D02*
G01*
X80353027Y-75439193D01*
X80567045Y-75527842D01*
X80567046Y-75527843D01*
X80759654Y-75656539D01*
X80923461Y-75820346D01*
X81009258Y-75948751D01*
X81052158Y-76012955D01*
X81140807Y-76226973D01*
X81186000Y-76454174D01*
X81186000Y-76685826D01*
X81140807Y-76913027D01*
X81052158Y-77127045D01*
X81044229Y-77138911D01*
X80923461Y-77319654D01*
X80759654Y-77483461D01*
X80631249Y-77569258D01*
X80567045Y-77612158D01*
X80353027Y-77700807D01*
X80201560Y-77730936D01*
X80125827Y-77746000D01*
X79894173Y-77746000D01*
X79818440Y-77730936D01*
X79666973Y-77700807D01*
X79452955Y-77612158D01*
X79388751Y-77569258D01*
X79260346Y-77483461D01*
X79096539Y-77319654D01*
X78975771Y-77138911D01*
X78967842Y-77127045D01*
X78879193Y-76913027D01*
X78834000Y-76685826D01*
X78834000Y-76454174D01*
X78879193Y-76226973D01*
X78967842Y-76012955D01*
X79010742Y-75948751D01*
X79096539Y-75820346D01*
X79260346Y-75656539D01*
X79452954Y-75527843D01*
X79452955Y-75527842D01*
X79666973Y-75439193D01*
X79818440Y-75409064D01*
X79894173Y-75394000D01*
X80125827Y-75394000D01*
X80201560Y-75409064D01*
G37*
G36*
X75121560Y-75409064D02*
G01*
X75273027Y-75439193D01*
X75487045Y-75527842D01*
X75487046Y-75527843D01*
X75679654Y-75656539D01*
X75843461Y-75820346D01*
X75929258Y-75948751D01*
X75972158Y-76012955D01*
X76060807Y-76226973D01*
X76106000Y-76454174D01*
X76106000Y-76685826D01*
X76060807Y-76913027D01*
X75972158Y-77127045D01*
X75964229Y-77138911D01*
X75843461Y-77319654D01*
X75679654Y-77483461D01*
X75551249Y-77569258D01*
X75487045Y-77612158D01*
X75273027Y-77700807D01*
X75121560Y-77730936D01*
X75045827Y-77746000D01*
X74814173Y-77746000D01*
X74738440Y-77730936D01*
X74586973Y-77700807D01*
X74372955Y-77612158D01*
X74308751Y-77569258D01*
X74180346Y-77483461D01*
X74016539Y-77319654D01*
X73895771Y-77138911D01*
X73887842Y-77127045D01*
X73799193Y-76913027D01*
X73754000Y-76685826D01*
X73754000Y-76454174D01*
X73799193Y-76226973D01*
X73887842Y-76012955D01*
X73930742Y-75948751D01*
X74016539Y-75820346D01*
X74180346Y-75656539D01*
X74372954Y-75527843D01*
X74372955Y-75527842D01*
X74586973Y-75439193D01*
X74738440Y-75409064D01*
X74814173Y-75394000D01*
X75045827Y-75394000D01*
X75121560Y-75409064D01*
G37*
M02*
