G04 #@! TF.GenerationSoftware,KiCad,Pcbnew,(5.1.5)-3*
G04 #@! TF.CreationDate,2020-09-02T12:15:22+02:00*
G04 #@! TF.ProjectId,mixer,6d697865-722e-46b6-9963-61645f706362,rev?*
G04 #@! TF.SameCoordinates,Original*
G04 #@! TF.FileFunction,Paste,Top*
G04 #@! TF.FilePolarity,Positive*
%FSLAX46Y46*%
G04 Gerber Fmt 4.6, Leading zero omitted, Abs format (unit mm)*
G04 Created by KiCad (PCBNEW (5.1.5)-3) date 2020-09-02 12:15:22*
%MOMM*%
%LPD*%
G04 APERTURE LIST*
%ADD10C,0.100000*%
%ADD11R,0.800000X0.900000*%
G04 APERTURE END LIST*
D10*
G36*
X65044504Y-82206204D02*
G01*
X65068773Y-82209804D01*
X65092571Y-82215765D01*
X65115671Y-82224030D01*
X65137849Y-82234520D01*
X65158893Y-82247133D01*
X65178598Y-82261747D01*
X65196777Y-82278223D01*
X65213253Y-82296402D01*
X65227867Y-82316107D01*
X65240480Y-82337151D01*
X65250970Y-82359329D01*
X65259235Y-82382429D01*
X65265196Y-82406227D01*
X65268796Y-82430496D01*
X65270000Y-82455000D01*
X65270000Y-83705000D01*
X65268796Y-83729504D01*
X65265196Y-83753773D01*
X65259235Y-83777571D01*
X65250970Y-83800671D01*
X65240480Y-83822849D01*
X65227867Y-83843893D01*
X65213253Y-83863598D01*
X65196777Y-83881777D01*
X65178598Y-83898253D01*
X65158893Y-83912867D01*
X65137849Y-83925480D01*
X65115671Y-83935970D01*
X65092571Y-83944235D01*
X65068773Y-83950196D01*
X65044504Y-83953796D01*
X65020000Y-83955000D01*
X64095000Y-83955000D01*
X64070496Y-83953796D01*
X64046227Y-83950196D01*
X64022429Y-83944235D01*
X63999329Y-83935970D01*
X63977151Y-83925480D01*
X63956107Y-83912867D01*
X63936402Y-83898253D01*
X63918223Y-83881777D01*
X63901747Y-83863598D01*
X63887133Y-83843893D01*
X63874520Y-83822849D01*
X63864030Y-83800671D01*
X63855765Y-83777571D01*
X63849804Y-83753773D01*
X63846204Y-83729504D01*
X63845000Y-83705000D01*
X63845000Y-82455000D01*
X63846204Y-82430496D01*
X63849804Y-82406227D01*
X63855765Y-82382429D01*
X63864030Y-82359329D01*
X63874520Y-82337151D01*
X63887133Y-82316107D01*
X63901747Y-82296402D01*
X63918223Y-82278223D01*
X63936402Y-82261747D01*
X63956107Y-82247133D01*
X63977151Y-82234520D01*
X63999329Y-82224030D01*
X64022429Y-82215765D01*
X64046227Y-82209804D01*
X64070496Y-82206204D01*
X64095000Y-82205000D01*
X65020000Y-82205000D01*
X65044504Y-82206204D01*
G37*
G36*
X62069504Y-82206204D02*
G01*
X62093773Y-82209804D01*
X62117571Y-82215765D01*
X62140671Y-82224030D01*
X62162849Y-82234520D01*
X62183893Y-82247133D01*
X62203598Y-82261747D01*
X62221777Y-82278223D01*
X62238253Y-82296402D01*
X62252867Y-82316107D01*
X62265480Y-82337151D01*
X62275970Y-82359329D01*
X62284235Y-82382429D01*
X62290196Y-82406227D01*
X62293796Y-82430496D01*
X62295000Y-82455000D01*
X62295000Y-83705000D01*
X62293796Y-83729504D01*
X62290196Y-83753773D01*
X62284235Y-83777571D01*
X62275970Y-83800671D01*
X62265480Y-83822849D01*
X62252867Y-83843893D01*
X62238253Y-83863598D01*
X62221777Y-83881777D01*
X62203598Y-83898253D01*
X62183893Y-83912867D01*
X62162849Y-83925480D01*
X62140671Y-83935970D01*
X62117571Y-83944235D01*
X62093773Y-83950196D01*
X62069504Y-83953796D01*
X62045000Y-83955000D01*
X61120000Y-83955000D01*
X61095496Y-83953796D01*
X61071227Y-83950196D01*
X61047429Y-83944235D01*
X61024329Y-83935970D01*
X61002151Y-83925480D01*
X60981107Y-83912867D01*
X60961402Y-83898253D01*
X60943223Y-83881777D01*
X60926747Y-83863598D01*
X60912133Y-83843893D01*
X60899520Y-83822849D01*
X60889030Y-83800671D01*
X60880765Y-83777571D01*
X60874804Y-83753773D01*
X60871204Y-83729504D01*
X60870000Y-83705000D01*
X60870000Y-82455000D01*
X60871204Y-82430496D01*
X60874804Y-82406227D01*
X60880765Y-82382429D01*
X60889030Y-82359329D01*
X60899520Y-82337151D01*
X60912133Y-82316107D01*
X60926747Y-82296402D01*
X60943223Y-82278223D01*
X60961402Y-82261747D01*
X60981107Y-82247133D01*
X61002151Y-82234520D01*
X61024329Y-82224030D01*
X61047429Y-82215765D01*
X61071227Y-82209804D01*
X61095496Y-82206204D01*
X61120000Y-82205000D01*
X62045000Y-82205000D01*
X62069504Y-82206204D01*
G37*
G36*
X70544504Y-82226204D02*
G01*
X70568773Y-82229804D01*
X70592571Y-82235765D01*
X70615671Y-82244030D01*
X70637849Y-82254520D01*
X70658893Y-82267133D01*
X70678598Y-82281747D01*
X70696777Y-82298223D01*
X70713253Y-82316402D01*
X70727867Y-82336107D01*
X70740480Y-82357151D01*
X70750970Y-82379329D01*
X70759235Y-82402429D01*
X70765196Y-82426227D01*
X70768796Y-82450496D01*
X70770000Y-82475000D01*
X70770000Y-83725000D01*
X70768796Y-83749504D01*
X70765196Y-83773773D01*
X70759235Y-83797571D01*
X70750970Y-83820671D01*
X70740480Y-83842849D01*
X70727867Y-83863893D01*
X70713253Y-83883598D01*
X70696777Y-83901777D01*
X70678598Y-83918253D01*
X70658893Y-83932867D01*
X70637849Y-83945480D01*
X70615671Y-83955970D01*
X70592571Y-83964235D01*
X70568773Y-83970196D01*
X70544504Y-83973796D01*
X70520000Y-83975000D01*
X69595000Y-83975000D01*
X69570496Y-83973796D01*
X69546227Y-83970196D01*
X69522429Y-83964235D01*
X69499329Y-83955970D01*
X69477151Y-83945480D01*
X69456107Y-83932867D01*
X69436402Y-83918253D01*
X69418223Y-83901777D01*
X69401747Y-83883598D01*
X69387133Y-83863893D01*
X69374520Y-83842849D01*
X69364030Y-83820671D01*
X69355765Y-83797571D01*
X69349804Y-83773773D01*
X69346204Y-83749504D01*
X69345000Y-83725000D01*
X69345000Y-82475000D01*
X69346204Y-82450496D01*
X69349804Y-82426227D01*
X69355765Y-82402429D01*
X69364030Y-82379329D01*
X69374520Y-82357151D01*
X69387133Y-82336107D01*
X69401747Y-82316402D01*
X69418223Y-82298223D01*
X69436402Y-82281747D01*
X69456107Y-82267133D01*
X69477151Y-82254520D01*
X69499329Y-82244030D01*
X69522429Y-82235765D01*
X69546227Y-82229804D01*
X69570496Y-82226204D01*
X69595000Y-82225000D01*
X70520000Y-82225000D01*
X70544504Y-82226204D01*
G37*
G36*
X67569504Y-82226204D02*
G01*
X67593773Y-82229804D01*
X67617571Y-82235765D01*
X67640671Y-82244030D01*
X67662849Y-82254520D01*
X67683893Y-82267133D01*
X67703598Y-82281747D01*
X67721777Y-82298223D01*
X67738253Y-82316402D01*
X67752867Y-82336107D01*
X67765480Y-82357151D01*
X67775970Y-82379329D01*
X67784235Y-82402429D01*
X67790196Y-82426227D01*
X67793796Y-82450496D01*
X67795000Y-82475000D01*
X67795000Y-83725000D01*
X67793796Y-83749504D01*
X67790196Y-83773773D01*
X67784235Y-83797571D01*
X67775970Y-83820671D01*
X67765480Y-83842849D01*
X67752867Y-83863893D01*
X67738253Y-83883598D01*
X67721777Y-83901777D01*
X67703598Y-83918253D01*
X67683893Y-83932867D01*
X67662849Y-83945480D01*
X67640671Y-83955970D01*
X67617571Y-83964235D01*
X67593773Y-83970196D01*
X67569504Y-83973796D01*
X67545000Y-83975000D01*
X66620000Y-83975000D01*
X66595496Y-83973796D01*
X66571227Y-83970196D01*
X66547429Y-83964235D01*
X66524329Y-83955970D01*
X66502151Y-83945480D01*
X66481107Y-83932867D01*
X66461402Y-83918253D01*
X66443223Y-83901777D01*
X66426747Y-83883598D01*
X66412133Y-83863893D01*
X66399520Y-83842849D01*
X66389030Y-83820671D01*
X66380765Y-83797571D01*
X66374804Y-83773773D01*
X66371204Y-83749504D01*
X66370000Y-83725000D01*
X66370000Y-82475000D01*
X66371204Y-82450496D01*
X66374804Y-82426227D01*
X66380765Y-82402429D01*
X66389030Y-82379329D01*
X66399520Y-82357151D01*
X66412133Y-82336107D01*
X66426747Y-82316402D01*
X66443223Y-82298223D01*
X66461402Y-82281747D01*
X66481107Y-82267133D01*
X66502151Y-82254520D01*
X66524329Y-82244030D01*
X66547429Y-82235765D01*
X66571227Y-82229804D01*
X66595496Y-82226204D01*
X66620000Y-82225000D01*
X67545000Y-82225000D01*
X67569504Y-82226204D01*
G37*
G36*
X69489504Y-79086204D02*
G01*
X69513773Y-79089804D01*
X69537571Y-79095765D01*
X69560671Y-79104030D01*
X69582849Y-79114520D01*
X69603893Y-79127133D01*
X69623598Y-79141747D01*
X69641777Y-79158223D01*
X69658253Y-79176402D01*
X69672867Y-79196107D01*
X69685480Y-79217151D01*
X69695970Y-79239329D01*
X69704235Y-79262429D01*
X69710196Y-79286227D01*
X69713796Y-79310496D01*
X69715000Y-79335000D01*
X69715000Y-80260000D01*
X69713796Y-80284504D01*
X69710196Y-80308773D01*
X69704235Y-80332571D01*
X69695970Y-80355671D01*
X69685480Y-80377849D01*
X69672867Y-80398893D01*
X69658253Y-80418598D01*
X69641777Y-80436777D01*
X69623598Y-80453253D01*
X69603893Y-80467867D01*
X69582849Y-80480480D01*
X69560671Y-80490970D01*
X69537571Y-80499235D01*
X69513773Y-80505196D01*
X69489504Y-80508796D01*
X69465000Y-80510000D01*
X68215000Y-80510000D01*
X68190496Y-80508796D01*
X68166227Y-80505196D01*
X68142429Y-80499235D01*
X68119329Y-80490970D01*
X68097151Y-80480480D01*
X68076107Y-80467867D01*
X68056402Y-80453253D01*
X68038223Y-80436777D01*
X68021747Y-80418598D01*
X68007133Y-80398893D01*
X67994520Y-80377849D01*
X67984030Y-80355671D01*
X67975765Y-80332571D01*
X67969804Y-80308773D01*
X67966204Y-80284504D01*
X67965000Y-80260000D01*
X67965000Y-79335000D01*
X67966204Y-79310496D01*
X67969804Y-79286227D01*
X67975765Y-79262429D01*
X67984030Y-79239329D01*
X67994520Y-79217151D01*
X68007133Y-79196107D01*
X68021747Y-79176402D01*
X68038223Y-79158223D01*
X68056402Y-79141747D01*
X68076107Y-79127133D01*
X68097151Y-79114520D01*
X68119329Y-79104030D01*
X68142429Y-79095765D01*
X68166227Y-79089804D01*
X68190496Y-79086204D01*
X68215000Y-79085000D01*
X69465000Y-79085000D01*
X69489504Y-79086204D01*
G37*
G36*
X69489504Y-76111204D02*
G01*
X69513773Y-76114804D01*
X69537571Y-76120765D01*
X69560671Y-76129030D01*
X69582849Y-76139520D01*
X69603893Y-76152133D01*
X69623598Y-76166747D01*
X69641777Y-76183223D01*
X69658253Y-76201402D01*
X69672867Y-76221107D01*
X69685480Y-76242151D01*
X69695970Y-76264329D01*
X69704235Y-76287429D01*
X69710196Y-76311227D01*
X69713796Y-76335496D01*
X69715000Y-76360000D01*
X69715000Y-77285000D01*
X69713796Y-77309504D01*
X69710196Y-77333773D01*
X69704235Y-77357571D01*
X69695970Y-77380671D01*
X69685480Y-77402849D01*
X69672867Y-77423893D01*
X69658253Y-77443598D01*
X69641777Y-77461777D01*
X69623598Y-77478253D01*
X69603893Y-77492867D01*
X69582849Y-77505480D01*
X69560671Y-77515970D01*
X69537571Y-77524235D01*
X69513773Y-77530196D01*
X69489504Y-77533796D01*
X69465000Y-77535000D01*
X68215000Y-77535000D01*
X68190496Y-77533796D01*
X68166227Y-77530196D01*
X68142429Y-77524235D01*
X68119329Y-77515970D01*
X68097151Y-77505480D01*
X68076107Y-77492867D01*
X68056402Y-77478253D01*
X68038223Y-77461777D01*
X68021747Y-77443598D01*
X68007133Y-77423893D01*
X67994520Y-77402849D01*
X67984030Y-77380671D01*
X67975765Y-77357571D01*
X67969804Y-77333773D01*
X67966204Y-77309504D01*
X67965000Y-77285000D01*
X67965000Y-76360000D01*
X67966204Y-76335496D01*
X67969804Y-76311227D01*
X67975765Y-76287429D01*
X67984030Y-76264329D01*
X67994520Y-76242151D01*
X68007133Y-76221107D01*
X68021747Y-76201402D01*
X68038223Y-76183223D01*
X68056402Y-76166747D01*
X68076107Y-76152133D01*
X68097151Y-76139520D01*
X68119329Y-76129030D01*
X68142429Y-76120765D01*
X68166227Y-76114804D01*
X68190496Y-76111204D01*
X68215000Y-76110000D01*
X69465000Y-76110000D01*
X69489504Y-76111204D01*
G37*
G36*
X106189044Y-102637824D02*
G01*
X106213313Y-102641424D01*
X106237111Y-102647385D01*
X106260211Y-102655650D01*
X106282389Y-102666140D01*
X106303433Y-102678753D01*
X106323138Y-102693367D01*
X106341317Y-102709843D01*
X106357793Y-102728022D01*
X106372407Y-102747727D01*
X106385020Y-102768771D01*
X106395510Y-102790949D01*
X106403775Y-102814049D01*
X106409736Y-102837847D01*
X106413336Y-102862116D01*
X106414540Y-102886620D01*
X106414540Y-103811620D01*
X106413336Y-103836124D01*
X106409736Y-103860393D01*
X106403775Y-103884191D01*
X106395510Y-103907291D01*
X106385020Y-103929469D01*
X106372407Y-103950513D01*
X106357793Y-103970218D01*
X106341317Y-103988397D01*
X106323138Y-104004873D01*
X106303433Y-104019487D01*
X106282389Y-104032100D01*
X106260211Y-104042590D01*
X106237111Y-104050855D01*
X106213313Y-104056816D01*
X106189044Y-104060416D01*
X106164540Y-104061620D01*
X104914540Y-104061620D01*
X104890036Y-104060416D01*
X104865767Y-104056816D01*
X104841969Y-104050855D01*
X104818869Y-104042590D01*
X104796691Y-104032100D01*
X104775647Y-104019487D01*
X104755942Y-104004873D01*
X104737763Y-103988397D01*
X104721287Y-103970218D01*
X104706673Y-103950513D01*
X104694060Y-103929469D01*
X104683570Y-103907291D01*
X104675305Y-103884191D01*
X104669344Y-103860393D01*
X104665744Y-103836124D01*
X104664540Y-103811620D01*
X104664540Y-102886620D01*
X104665744Y-102862116D01*
X104669344Y-102837847D01*
X104675305Y-102814049D01*
X104683570Y-102790949D01*
X104694060Y-102768771D01*
X104706673Y-102747727D01*
X104721287Y-102728022D01*
X104737763Y-102709843D01*
X104755942Y-102693367D01*
X104775647Y-102678753D01*
X104796691Y-102666140D01*
X104818869Y-102655650D01*
X104841969Y-102647385D01*
X104865767Y-102641424D01*
X104890036Y-102637824D01*
X104914540Y-102636620D01*
X106164540Y-102636620D01*
X106189044Y-102637824D01*
G37*
G36*
X106189044Y-99662824D02*
G01*
X106213313Y-99666424D01*
X106237111Y-99672385D01*
X106260211Y-99680650D01*
X106282389Y-99691140D01*
X106303433Y-99703753D01*
X106323138Y-99718367D01*
X106341317Y-99734843D01*
X106357793Y-99753022D01*
X106372407Y-99772727D01*
X106385020Y-99793771D01*
X106395510Y-99815949D01*
X106403775Y-99839049D01*
X106409736Y-99862847D01*
X106413336Y-99887116D01*
X106414540Y-99911620D01*
X106414540Y-100836620D01*
X106413336Y-100861124D01*
X106409736Y-100885393D01*
X106403775Y-100909191D01*
X106395510Y-100932291D01*
X106385020Y-100954469D01*
X106372407Y-100975513D01*
X106357793Y-100995218D01*
X106341317Y-101013397D01*
X106323138Y-101029873D01*
X106303433Y-101044487D01*
X106282389Y-101057100D01*
X106260211Y-101067590D01*
X106237111Y-101075855D01*
X106213313Y-101081816D01*
X106189044Y-101085416D01*
X106164540Y-101086620D01*
X104914540Y-101086620D01*
X104890036Y-101085416D01*
X104865767Y-101081816D01*
X104841969Y-101075855D01*
X104818869Y-101067590D01*
X104796691Y-101057100D01*
X104775647Y-101044487D01*
X104755942Y-101029873D01*
X104737763Y-101013397D01*
X104721287Y-100995218D01*
X104706673Y-100975513D01*
X104694060Y-100954469D01*
X104683570Y-100932291D01*
X104675305Y-100909191D01*
X104669344Y-100885393D01*
X104665744Y-100861124D01*
X104664540Y-100836620D01*
X104664540Y-99911620D01*
X104665744Y-99887116D01*
X104669344Y-99862847D01*
X104675305Y-99839049D01*
X104683570Y-99815949D01*
X104694060Y-99793771D01*
X104706673Y-99772727D01*
X104721287Y-99753022D01*
X104737763Y-99734843D01*
X104755942Y-99718367D01*
X104775647Y-99703753D01*
X104796691Y-99691140D01*
X104818869Y-99680650D01*
X104841969Y-99672385D01*
X104865767Y-99666424D01*
X104890036Y-99662824D01*
X104914540Y-99661620D01*
X106164540Y-99661620D01*
X106189044Y-99662824D01*
G37*
G36*
X102584784Y-99703464D02*
G01*
X102609053Y-99707064D01*
X102632851Y-99713025D01*
X102655951Y-99721290D01*
X102678129Y-99731780D01*
X102699173Y-99744393D01*
X102718878Y-99759007D01*
X102737057Y-99775483D01*
X102753533Y-99793662D01*
X102768147Y-99813367D01*
X102780760Y-99834411D01*
X102791250Y-99856589D01*
X102799515Y-99879689D01*
X102805476Y-99903487D01*
X102809076Y-99927756D01*
X102810280Y-99952260D01*
X102810280Y-100877260D01*
X102809076Y-100901764D01*
X102805476Y-100926033D01*
X102799515Y-100949831D01*
X102791250Y-100972931D01*
X102780760Y-100995109D01*
X102768147Y-101016153D01*
X102753533Y-101035858D01*
X102737057Y-101054037D01*
X102718878Y-101070513D01*
X102699173Y-101085127D01*
X102678129Y-101097740D01*
X102655951Y-101108230D01*
X102632851Y-101116495D01*
X102609053Y-101122456D01*
X102584784Y-101126056D01*
X102560280Y-101127260D01*
X101310280Y-101127260D01*
X101285776Y-101126056D01*
X101261507Y-101122456D01*
X101237709Y-101116495D01*
X101214609Y-101108230D01*
X101192431Y-101097740D01*
X101171387Y-101085127D01*
X101151682Y-101070513D01*
X101133503Y-101054037D01*
X101117027Y-101035858D01*
X101102413Y-101016153D01*
X101089800Y-100995109D01*
X101079310Y-100972931D01*
X101071045Y-100949831D01*
X101065084Y-100926033D01*
X101061484Y-100901764D01*
X101060280Y-100877260D01*
X101060280Y-99952260D01*
X101061484Y-99927756D01*
X101065084Y-99903487D01*
X101071045Y-99879689D01*
X101079310Y-99856589D01*
X101089800Y-99834411D01*
X101102413Y-99813367D01*
X101117027Y-99793662D01*
X101133503Y-99775483D01*
X101151682Y-99759007D01*
X101171387Y-99744393D01*
X101192431Y-99731780D01*
X101214609Y-99721290D01*
X101237709Y-99713025D01*
X101261507Y-99707064D01*
X101285776Y-99703464D01*
X101310280Y-99702260D01*
X102560280Y-99702260D01*
X102584784Y-99703464D01*
G37*
G36*
X102584784Y-102678464D02*
G01*
X102609053Y-102682064D01*
X102632851Y-102688025D01*
X102655951Y-102696290D01*
X102678129Y-102706780D01*
X102699173Y-102719393D01*
X102718878Y-102734007D01*
X102737057Y-102750483D01*
X102753533Y-102768662D01*
X102768147Y-102788367D01*
X102780760Y-102809411D01*
X102791250Y-102831589D01*
X102799515Y-102854689D01*
X102805476Y-102878487D01*
X102809076Y-102902756D01*
X102810280Y-102927260D01*
X102810280Y-103852260D01*
X102809076Y-103876764D01*
X102805476Y-103901033D01*
X102799515Y-103924831D01*
X102791250Y-103947931D01*
X102780760Y-103970109D01*
X102768147Y-103991153D01*
X102753533Y-104010858D01*
X102737057Y-104029037D01*
X102718878Y-104045513D01*
X102699173Y-104060127D01*
X102678129Y-104072740D01*
X102655951Y-104083230D01*
X102632851Y-104091495D01*
X102609053Y-104097456D01*
X102584784Y-104101056D01*
X102560280Y-104102260D01*
X101310280Y-104102260D01*
X101285776Y-104101056D01*
X101261507Y-104097456D01*
X101237709Y-104091495D01*
X101214609Y-104083230D01*
X101192431Y-104072740D01*
X101171387Y-104060127D01*
X101151682Y-104045513D01*
X101133503Y-104029037D01*
X101117027Y-104010858D01*
X101102413Y-103991153D01*
X101089800Y-103970109D01*
X101079310Y-103947931D01*
X101071045Y-103924831D01*
X101065084Y-103901033D01*
X101061484Y-103876764D01*
X101060280Y-103852260D01*
X101060280Y-102927260D01*
X101061484Y-102902756D01*
X101065084Y-102878487D01*
X101071045Y-102854689D01*
X101079310Y-102831589D01*
X101089800Y-102809411D01*
X101102413Y-102788367D01*
X101117027Y-102768662D01*
X101133503Y-102750483D01*
X101151682Y-102734007D01*
X101171387Y-102719393D01*
X101192431Y-102706780D01*
X101214609Y-102696290D01*
X101237709Y-102688025D01*
X101261507Y-102682064D01*
X101285776Y-102678464D01*
X101310280Y-102677260D01*
X102560280Y-102677260D01*
X102584784Y-102678464D01*
G37*
G36*
X90199744Y-111786244D02*
G01*
X90224013Y-111789844D01*
X90247811Y-111795805D01*
X90270911Y-111804070D01*
X90293089Y-111814560D01*
X90314133Y-111827173D01*
X90333838Y-111841787D01*
X90352017Y-111858263D01*
X90368493Y-111876442D01*
X90383107Y-111896147D01*
X90395720Y-111917191D01*
X90406210Y-111939369D01*
X90414475Y-111962469D01*
X90420436Y-111986267D01*
X90424036Y-112010536D01*
X90425240Y-112035040D01*
X90425240Y-112960040D01*
X90424036Y-112984544D01*
X90420436Y-113008813D01*
X90414475Y-113032611D01*
X90406210Y-113055711D01*
X90395720Y-113077889D01*
X90383107Y-113098933D01*
X90368493Y-113118638D01*
X90352017Y-113136817D01*
X90333838Y-113153293D01*
X90314133Y-113167907D01*
X90293089Y-113180520D01*
X90270911Y-113191010D01*
X90247811Y-113199275D01*
X90224013Y-113205236D01*
X90199744Y-113208836D01*
X90175240Y-113210040D01*
X88925240Y-113210040D01*
X88900736Y-113208836D01*
X88876467Y-113205236D01*
X88852669Y-113199275D01*
X88829569Y-113191010D01*
X88807391Y-113180520D01*
X88786347Y-113167907D01*
X88766642Y-113153293D01*
X88748463Y-113136817D01*
X88731987Y-113118638D01*
X88717373Y-113098933D01*
X88704760Y-113077889D01*
X88694270Y-113055711D01*
X88686005Y-113032611D01*
X88680044Y-113008813D01*
X88676444Y-112984544D01*
X88675240Y-112960040D01*
X88675240Y-112035040D01*
X88676444Y-112010536D01*
X88680044Y-111986267D01*
X88686005Y-111962469D01*
X88694270Y-111939369D01*
X88704760Y-111917191D01*
X88717373Y-111896147D01*
X88731987Y-111876442D01*
X88748463Y-111858263D01*
X88766642Y-111841787D01*
X88786347Y-111827173D01*
X88807391Y-111814560D01*
X88829569Y-111804070D01*
X88852669Y-111795805D01*
X88876467Y-111789844D01*
X88900736Y-111786244D01*
X88925240Y-111785040D01*
X90175240Y-111785040D01*
X90199744Y-111786244D01*
G37*
G36*
X90199744Y-114761244D02*
G01*
X90224013Y-114764844D01*
X90247811Y-114770805D01*
X90270911Y-114779070D01*
X90293089Y-114789560D01*
X90314133Y-114802173D01*
X90333838Y-114816787D01*
X90352017Y-114833263D01*
X90368493Y-114851442D01*
X90383107Y-114871147D01*
X90395720Y-114892191D01*
X90406210Y-114914369D01*
X90414475Y-114937469D01*
X90420436Y-114961267D01*
X90424036Y-114985536D01*
X90425240Y-115010040D01*
X90425240Y-115935040D01*
X90424036Y-115959544D01*
X90420436Y-115983813D01*
X90414475Y-116007611D01*
X90406210Y-116030711D01*
X90395720Y-116052889D01*
X90383107Y-116073933D01*
X90368493Y-116093638D01*
X90352017Y-116111817D01*
X90333838Y-116128293D01*
X90314133Y-116142907D01*
X90293089Y-116155520D01*
X90270911Y-116166010D01*
X90247811Y-116174275D01*
X90224013Y-116180236D01*
X90199744Y-116183836D01*
X90175240Y-116185040D01*
X88925240Y-116185040D01*
X88900736Y-116183836D01*
X88876467Y-116180236D01*
X88852669Y-116174275D01*
X88829569Y-116166010D01*
X88807391Y-116155520D01*
X88786347Y-116142907D01*
X88766642Y-116128293D01*
X88748463Y-116111817D01*
X88731987Y-116093638D01*
X88717373Y-116073933D01*
X88704760Y-116052889D01*
X88694270Y-116030711D01*
X88686005Y-116007611D01*
X88680044Y-115983813D01*
X88676444Y-115959544D01*
X88675240Y-115935040D01*
X88675240Y-115010040D01*
X88676444Y-114985536D01*
X88680044Y-114961267D01*
X88686005Y-114937469D01*
X88694270Y-114914369D01*
X88704760Y-114892191D01*
X88717373Y-114871147D01*
X88731987Y-114851442D01*
X88748463Y-114833263D01*
X88766642Y-114816787D01*
X88786347Y-114802173D01*
X88807391Y-114789560D01*
X88829569Y-114779070D01*
X88852669Y-114770805D01*
X88876467Y-114764844D01*
X88900736Y-114761244D01*
X88925240Y-114760040D01*
X90175240Y-114760040D01*
X90199744Y-114761244D01*
G37*
G36*
X102648284Y-96889804D02*
G01*
X102672553Y-96893404D01*
X102696351Y-96899365D01*
X102719451Y-96907630D01*
X102741629Y-96918120D01*
X102762673Y-96930733D01*
X102782378Y-96945347D01*
X102800557Y-96961823D01*
X102817033Y-96980002D01*
X102831647Y-96999707D01*
X102844260Y-97020751D01*
X102854750Y-97042929D01*
X102863015Y-97066029D01*
X102868976Y-97089827D01*
X102872576Y-97114096D01*
X102873780Y-97138600D01*
X102873780Y-98063600D01*
X102872576Y-98088104D01*
X102868976Y-98112373D01*
X102863015Y-98136171D01*
X102854750Y-98159271D01*
X102844260Y-98181449D01*
X102831647Y-98202493D01*
X102817033Y-98222198D01*
X102800557Y-98240377D01*
X102782378Y-98256853D01*
X102762673Y-98271467D01*
X102741629Y-98284080D01*
X102719451Y-98294570D01*
X102696351Y-98302835D01*
X102672553Y-98308796D01*
X102648284Y-98312396D01*
X102623780Y-98313600D01*
X101373780Y-98313600D01*
X101349276Y-98312396D01*
X101325007Y-98308796D01*
X101301209Y-98302835D01*
X101278109Y-98294570D01*
X101255931Y-98284080D01*
X101234887Y-98271467D01*
X101215182Y-98256853D01*
X101197003Y-98240377D01*
X101180527Y-98222198D01*
X101165913Y-98202493D01*
X101153300Y-98181449D01*
X101142810Y-98159271D01*
X101134545Y-98136171D01*
X101128584Y-98112373D01*
X101124984Y-98088104D01*
X101123780Y-98063600D01*
X101123780Y-97138600D01*
X101124984Y-97114096D01*
X101128584Y-97089827D01*
X101134545Y-97066029D01*
X101142810Y-97042929D01*
X101153300Y-97020751D01*
X101165913Y-96999707D01*
X101180527Y-96980002D01*
X101197003Y-96961823D01*
X101215182Y-96945347D01*
X101234887Y-96930733D01*
X101255931Y-96918120D01*
X101278109Y-96907630D01*
X101301209Y-96899365D01*
X101325007Y-96893404D01*
X101349276Y-96889804D01*
X101373780Y-96888600D01*
X102623780Y-96888600D01*
X102648284Y-96889804D01*
G37*
G36*
X102648284Y-93914804D02*
G01*
X102672553Y-93918404D01*
X102696351Y-93924365D01*
X102719451Y-93932630D01*
X102741629Y-93943120D01*
X102762673Y-93955733D01*
X102782378Y-93970347D01*
X102800557Y-93986823D01*
X102817033Y-94005002D01*
X102831647Y-94024707D01*
X102844260Y-94045751D01*
X102854750Y-94067929D01*
X102863015Y-94091029D01*
X102868976Y-94114827D01*
X102872576Y-94139096D01*
X102873780Y-94163600D01*
X102873780Y-95088600D01*
X102872576Y-95113104D01*
X102868976Y-95137373D01*
X102863015Y-95161171D01*
X102854750Y-95184271D01*
X102844260Y-95206449D01*
X102831647Y-95227493D01*
X102817033Y-95247198D01*
X102800557Y-95265377D01*
X102782378Y-95281853D01*
X102762673Y-95296467D01*
X102741629Y-95309080D01*
X102719451Y-95319570D01*
X102696351Y-95327835D01*
X102672553Y-95333796D01*
X102648284Y-95337396D01*
X102623780Y-95338600D01*
X101373780Y-95338600D01*
X101349276Y-95337396D01*
X101325007Y-95333796D01*
X101301209Y-95327835D01*
X101278109Y-95319570D01*
X101255931Y-95309080D01*
X101234887Y-95296467D01*
X101215182Y-95281853D01*
X101197003Y-95265377D01*
X101180527Y-95247198D01*
X101165913Y-95227493D01*
X101153300Y-95206449D01*
X101142810Y-95184271D01*
X101134545Y-95161171D01*
X101128584Y-95137373D01*
X101124984Y-95113104D01*
X101123780Y-95088600D01*
X101123780Y-94163600D01*
X101124984Y-94139096D01*
X101128584Y-94114827D01*
X101134545Y-94091029D01*
X101142810Y-94067929D01*
X101153300Y-94045751D01*
X101165913Y-94024707D01*
X101180527Y-94005002D01*
X101197003Y-93986823D01*
X101215182Y-93970347D01*
X101234887Y-93955733D01*
X101255931Y-93943120D01*
X101278109Y-93932630D01*
X101301209Y-93924365D01*
X101325007Y-93918404D01*
X101349276Y-93914804D01*
X101373780Y-93913600D01*
X102623780Y-93913600D01*
X102648284Y-93914804D01*
G37*
D11*
X81155580Y-95080580D03*
X79255580Y-95080580D03*
X80205580Y-97080580D03*
X80246220Y-89558620D03*
X81196220Y-91558620D03*
X79296220Y-91558620D03*
D10*
G36*
X90199744Y-105984884D02*
G01*
X90224013Y-105988484D01*
X90247811Y-105994445D01*
X90270911Y-106002710D01*
X90293089Y-106013200D01*
X90314133Y-106025813D01*
X90333838Y-106040427D01*
X90352017Y-106056903D01*
X90368493Y-106075082D01*
X90383107Y-106094787D01*
X90395720Y-106115831D01*
X90406210Y-106138009D01*
X90414475Y-106161109D01*
X90420436Y-106184907D01*
X90424036Y-106209176D01*
X90425240Y-106233680D01*
X90425240Y-107158680D01*
X90424036Y-107183184D01*
X90420436Y-107207453D01*
X90414475Y-107231251D01*
X90406210Y-107254351D01*
X90395720Y-107276529D01*
X90383107Y-107297573D01*
X90368493Y-107317278D01*
X90352017Y-107335457D01*
X90333838Y-107351933D01*
X90314133Y-107366547D01*
X90293089Y-107379160D01*
X90270911Y-107389650D01*
X90247811Y-107397915D01*
X90224013Y-107403876D01*
X90199744Y-107407476D01*
X90175240Y-107408680D01*
X88925240Y-107408680D01*
X88900736Y-107407476D01*
X88876467Y-107403876D01*
X88852669Y-107397915D01*
X88829569Y-107389650D01*
X88807391Y-107379160D01*
X88786347Y-107366547D01*
X88766642Y-107351933D01*
X88748463Y-107335457D01*
X88731987Y-107317278D01*
X88717373Y-107297573D01*
X88704760Y-107276529D01*
X88694270Y-107254351D01*
X88686005Y-107231251D01*
X88680044Y-107207453D01*
X88676444Y-107183184D01*
X88675240Y-107158680D01*
X88675240Y-106233680D01*
X88676444Y-106209176D01*
X88680044Y-106184907D01*
X88686005Y-106161109D01*
X88694270Y-106138009D01*
X88704760Y-106115831D01*
X88717373Y-106094787D01*
X88731987Y-106075082D01*
X88748463Y-106056903D01*
X88766642Y-106040427D01*
X88786347Y-106025813D01*
X88807391Y-106013200D01*
X88829569Y-106002710D01*
X88852669Y-105994445D01*
X88876467Y-105988484D01*
X88900736Y-105984884D01*
X88925240Y-105983680D01*
X90175240Y-105983680D01*
X90199744Y-105984884D01*
G37*
G36*
X90199744Y-108959884D02*
G01*
X90224013Y-108963484D01*
X90247811Y-108969445D01*
X90270911Y-108977710D01*
X90293089Y-108988200D01*
X90314133Y-109000813D01*
X90333838Y-109015427D01*
X90352017Y-109031903D01*
X90368493Y-109050082D01*
X90383107Y-109069787D01*
X90395720Y-109090831D01*
X90406210Y-109113009D01*
X90414475Y-109136109D01*
X90420436Y-109159907D01*
X90424036Y-109184176D01*
X90425240Y-109208680D01*
X90425240Y-110133680D01*
X90424036Y-110158184D01*
X90420436Y-110182453D01*
X90414475Y-110206251D01*
X90406210Y-110229351D01*
X90395720Y-110251529D01*
X90383107Y-110272573D01*
X90368493Y-110292278D01*
X90352017Y-110310457D01*
X90333838Y-110326933D01*
X90314133Y-110341547D01*
X90293089Y-110354160D01*
X90270911Y-110364650D01*
X90247811Y-110372915D01*
X90224013Y-110378876D01*
X90199744Y-110382476D01*
X90175240Y-110383680D01*
X88925240Y-110383680D01*
X88900736Y-110382476D01*
X88876467Y-110378876D01*
X88852669Y-110372915D01*
X88829569Y-110364650D01*
X88807391Y-110354160D01*
X88786347Y-110341547D01*
X88766642Y-110326933D01*
X88748463Y-110310457D01*
X88731987Y-110292278D01*
X88717373Y-110272573D01*
X88704760Y-110251529D01*
X88694270Y-110229351D01*
X88686005Y-110206251D01*
X88680044Y-110182453D01*
X88676444Y-110158184D01*
X88675240Y-110133680D01*
X88675240Y-109208680D01*
X88676444Y-109184176D01*
X88680044Y-109159907D01*
X88686005Y-109136109D01*
X88694270Y-109113009D01*
X88704760Y-109090831D01*
X88717373Y-109069787D01*
X88731987Y-109050082D01*
X88748463Y-109031903D01*
X88766642Y-109015427D01*
X88786347Y-109000813D01*
X88807391Y-108988200D01*
X88829569Y-108977710D01*
X88852669Y-108969445D01*
X88876467Y-108963484D01*
X88900736Y-108959884D01*
X88925240Y-108958680D01*
X90175240Y-108958680D01*
X90199744Y-108959884D01*
G37*
M02*
