G04 #@! TF.GenerationSoftware,KiCad,Pcbnew,(5.1.5)-3*
G04 #@! TF.CreationDate,2020-09-02T12:15:22+02:00*
G04 #@! TF.ProjectId,mixer,6d697865-722e-46b6-9963-61645f706362,rev?*
G04 #@! TF.SameCoordinates,Original*
G04 #@! TF.FileFunction,Legend,Top*
G04 #@! TF.FilePolarity,Positive*
%FSLAX46Y46*%
G04 Gerber Fmt 4.6, Leading zero omitted, Abs format (unit mm)*
G04 Created by KiCad (PCBNEW (5.1.5)-3) date 2020-09-02 12:15:22*
%MOMM*%
%LPD*%
G04 APERTURE LIST*
%ADD10C,0.120000*%
%ADD11C,0.150000*%
G04 APERTURE END LIST*
D10*
X62467936Y-83990000D02*
X63672064Y-83990000D01*
X62467936Y-82170000D02*
X63672064Y-82170000D01*
X67967936Y-84010000D02*
X69172064Y-84010000D01*
X67967936Y-82190000D02*
X69172064Y-82190000D01*
X67930000Y-77707936D02*
X67930000Y-78912064D01*
X69750000Y-77707936D02*
X69750000Y-78912064D01*
X104629540Y-101259556D02*
X104629540Y-102463684D01*
X106449540Y-101259556D02*
X106449540Y-102463684D01*
X102845280Y-102504324D02*
X102845280Y-101300196D01*
X101025280Y-102504324D02*
X101025280Y-101300196D01*
X90460240Y-113382976D02*
X90460240Y-114587104D01*
X88640240Y-113382976D02*
X88640240Y-114587104D01*
X101088780Y-95511536D02*
X101088780Y-96715664D01*
X102908780Y-95511536D02*
X102908780Y-96715664D01*
X78625580Y-96840580D02*
X79555580Y-96840580D01*
X81785580Y-96840580D02*
X80855580Y-96840580D01*
X81785580Y-96840580D02*
X81785580Y-94680580D01*
X78625580Y-96840580D02*
X78625580Y-95380580D01*
X81826220Y-89798620D02*
X81826220Y-91258620D01*
X78666220Y-89798620D02*
X78666220Y-91958620D01*
X78666220Y-89798620D02*
X79596220Y-89798620D01*
X81826220Y-89798620D02*
X80896220Y-89798620D01*
X73790000Y-77310000D02*
X73790000Y-80910000D01*
X81150000Y-77310000D02*
X81150000Y-80910000D01*
X75670000Y-82790000D02*
X79270000Y-82790000D01*
X75670000Y-75430000D02*
X79270000Y-75430000D01*
X90080000Y-75430000D02*
X93680000Y-75430000D01*
X90080000Y-82790000D02*
X93680000Y-82790000D01*
X95560000Y-77310000D02*
X95560000Y-80910000D01*
X88200000Y-77310000D02*
X88200000Y-80910000D01*
X104394460Y-89165020D02*
X104394460Y-92765020D01*
X111754460Y-89165020D02*
X111754460Y-92765020D01*
X106274460Y-94645020D02*
X109874460Y-94645020D01*
X106274460Y-87285020D02*
X109874460Y-87285020D01*
X81113900Y-113491020D02*
G75*
G03X81113900Y-113491020I-3300000J0D01*
G01*
X85413900Y-113491020D02*
G75*
G03X85413900Y-113491020I-7600000J0D01*
G01*
X109686140Y-113600240D02*
G75*
G03X109686140Y-113600240I-7600000J0D01*
G01*
X105386140Y-113600240D02*
G75*
G03X105386140Y-113600240I-3300000J0D01*
G01*
X90460240Y-107581616D02*
X90460240Y-108785744D01*
X88640240Y-107581616D02*
X88640240Y-108785744D01*
X71873660Y-94652100D02*
G75*
G03X71873660Y-94652100I-3300000J0D01*
G01*
X76173660Y-94652100D02*
G75*
G03X76173660Y-94652100I-7600000J0D01*
G01*
X99180980Y-94652100D02*
G75*
G03X99180980Y-94652100I-7600000J0D01*
G01*
X94880980Y-94652100D02*
G75*
G03X94880980Y-94652100I-3300000J0D01*
G01*
D11*
X62903333Y-81712380D02*
X62570000Y-81236190D01*
X62331904Y-81712380D02*
X62331904Y-80712380D01*
X62712857Y-80712380D01*
X62808095Y-80760000D01*
X62855714Y-80807619D01*
X62903333Y-80902857D01*
X62903333Y-81045714D01*
X62855714Y-81140952D01*
X62808095Y-81188571D01*
X62712857Y-81236190D01*
X62331904Y-81236190D01*
X63760476Y-81045714D02*
X63760476Y-81712380D01*
X63522380Y-80664761D02*
X63284285Y-81379047D01*
X63903333Y-81379047D01*
X68403333Y-81732380D02*
X68070000Y-81256190D01*
X67831904Y-81732380D02*
X67831904Y-80732380D01*
X68212857Y-80732380D01*
X68308095Y-80780000D01*
X68355714Y-80827619D01*
X68403333Y-80922857D01*
X68403333Y-81065714D01*
X68355714Y-81160952D01*
X68308095Y-81208571D01*
X68212857Y-81256190D01*
X67831904Y-81256190D01*
X68736666Y-80732380D02*
X69355714Y-80732380D01*
X69022380Y-81113333D01*
X69165238Y-81113333D01*
X69260476Y-81160952D01*
X69308095Y-81208571D01*
X69355714Y-81303809D01*
X69355714Y-81541904D01*
X69308095Y-81637142D01*
X69260476Y-81684761D01*
X69165238Y-81732380D01*
X68879523Y-81732380D01*
X68784285Y-81684761D01*
X68736666Y-81637142D01*
X71112380Y-78476666D02*
X70636190Y-78810000D01*
X71112380Y-79048095D02*
X70112380Y-79048095D01*
X70112380Y-78667142D01*
X70160000Y-78571904D01*
X70207619Y-78524285D01*
X70302857Y-78476666D01*
X70445714Y-78476666D01*
X70540952Y-78524285D01*
X70588571Y-78571904D01*
X70636190Y-78667142D01*
X70636190Y-79048095D01*
X70207619Y-78095714D02*
X70160000Y-78048095D01*
X70112380Y-77952857D01*
X70112380Y-77714761D01*
X70160000Y-77619523D01*
X70207619Y-77571904D01*
X70302857Y-77524285D01*
X70398095Y-77524285D01*
X70540952Y-77571904D01*
X71112380Y-78143333D01*
X71112380Y-77524285D01*
X107716682Y-102028286D02*
X107764301Y-102075905D01*
X107811920Y-102218762D01*
X107811920Y-102314000D01*
X107764301Y-102456858D01*
X107669063Y-102552096D01*
X107573825Y-102599715D01*
X107383349Y-102647334D01*
X107240492Y-102647334D01*
X107050016Y-102599715D01*
X106954778Y-102552096D01*
X106859540Y-102456858D01*
X106811920Y-102314000D01*
X106811920Y-102218762D01*
X106859540Y-102075905D01*
X106907159Y-102028286D01*
X107145254Y-101171143D02*
X107811920Y-101171143D01*
X106764301Y-101409239D02*
X107478587Y-101647334D01*
X107478587Y-101028286D01*
X100472422Y-102068926D02*
X100520041Y-102116545D01*
X100567660Y-102259402D01*
X100567660Y-102354640D01*
X100520041Y-102497498D01*
X100424803Y-102592736D01*
X100329565Y-102640355D01*
X100139089Y-102687974D01*
X99996232Y-102687974D01*
X99805756Y-102640355D01*
X99710518Y-102592736D01*
X99615280Y-102497498D01*
X99567660Y-102354640D01*
X99567660Y-102259402D01*
X99615280Y-102116545D01*
X99662899Y-102068926D01*
X99567660Y-101735593D02*
X99567660Y-101116545D01*
X99948613Y-101449879D01*
X99948613Y-101307021D01*
X99996232Y-101211783D01*
X100043851Y-101164164D01*
X100139089Y-101116545D01*
X100377184Y-101116545D01*
X100472422Y-101164164D01*
X100520041Y-101211783D01*
X100567660Y-101307021D01*
X100567660Y-101592736D01*
X100520041Y-101687974D01*
X100472422Y-101735593D01*
X91727382Y-114151706D02*
X91775001Y-114199325D01*
X91822620Y-114342182D01*
X91822620Y-114437420D01*
X91775001Y-114580278D01*
X91679763Y-114675516D01*
X91584525Y-114723135D01*
X91394049Y-114770754D01*
X91251192Y-114770754D01*
X91060716Y-114723135D01*
X90965478Y-114675516D01*
X90870240Y-114580278D01*
X90822620Y-114437420D01*
X90822620Y-114342182D01*
X90870240Y-114199325D01*
X90917859Y-114151706D01*
X91822620Y-113199325D02*
X91822620Y-113770754D01*
X91822620Y-113485040D02*
X90822620Y-113485040D01*
X90965478Y-113580278D01*
X91060716Y-113675516D01*
X91108335Y-113770754D01*
X104175922Y-96280266D02*
X104223541Y-96327885D01*
X104271160Y-96470742D01*
X104271160Y-96565980D01*
X104223541Y-96708838D01*
X104128303Y-96804076D01*
X104033065Y-96851695D01*
X103842589Y-96899314D01*
X103699732Y-96899314D01*
X103509256Y-96851695D01*
X103414018Y-96804076D01*
X103318780Y-96708838D01*
X103271160Y-96565980D01*
X103271160Y-96470742D01*
X103318780Y-96327885D01*
X103366399Y-96280266D01*
X103366399Y-95899314D02*
X103318780Y-95851695D01*
X103271160Y-95756457D01*
X103271160Y-95518361D01*
X103318780Y-95423123D01*
X103366399Y-95375504D01*
X103461637Y-95327885D01*
X103556875Y-95327885D01*
X103699732Y-95375504D01*
X104271160Y-95946933D01*
X104271160Y-95327885D01*
X83157960Y-96818675D02*
X82157960Y-96818675D01*
X82157960Y-96580580D01*
X82205580Y-96437722D01*
X82300818Y-96342484D01*
X82396056Y-96294865D01*
X82586532Y-96247246D01*
X82729389Y-96247246D01*
X82919865Y-96294865D01*
X83015103Y-96342484D01*
X83110341Y-96437722D01*
X83157960Y-96580580D01*
X83157960Y-96818675D01*
X83157960Y-95294865D02*
X83157960Y-95866294D01*
X83157960Y-95580580D02*
X82157960Y-95580580D01*
X82300818Y-95675818D01*
X82396056Y-95771056D01*
X82443675Y-95866294D01*
X78198600Y-91296715D02*
X77198600Y-91296715D01*
X77198600Y-91058620D01*
X77246220Y-90915762D01*
X77341458Y-90820524D01*
X77436696Y-90772905D01*
X77627172Y-90725286D01*
X77770029Y-90725286D01*
X77960505Y-90772905D01*
X78055743Y-90820524D01*
X78150981Y-90915762D01*
X78198600Y-91058620D01*
X78198600Y-91296715D01*
X77293839Y-90344334D02*
X77246220Y-90296715D01*
X77198600Y-90201477D01*
X77198600Y-89963381D01*
X77246220Y-89868143D01*
X77293839Y-89820524D01*
X77389077Y-89772905D01*
X77484315Y-89772905D01*
X77627172Y-89820524D01*
X78198600Y-90391953D01*
X78198600Y-89772905D01*
X77136666Y-73812380D02*
X77136666Y-74526666D01*
X77089047Y-74669523D01*
X76993809Y-74764761D01*
X76850952Y-74812380D01*
X76755714Y-74812380D01*
X78136666Y-74812380D02*
X77565238Y-74812380D01*
X77850952Y-74812380D02*
X77850952Y-73812380D01*
X77755714Y-73955238D01*
X77660476Y-74050476D01*
X77565238Y-74098095D01*
X91546666Y-73812380D02*
X91546666Y-74526666D01*
X91499047Y-74669523D01*
X91403809Y-74764761D01*
X91260952Y-74812380D01*
X91165714Y-74812380D01*
X91975238Y-73907619D02*
X92022857Y-73860000D01*
X92118095Y-73812380D01*
X92356190Y-73812380D01*
X92451428Y-73860000D01*
X92499047Y-73907619D01*
X92546666Y-74002857D01*
X92546666Y-74098095D01*
X92499047Y-74240952D01*
X91927619Y-74812380D01*
X92546666Y-74812380D01*
X107741126Y-85667400D02*
X107741126Y-86381686D01*
X107693507Y-86524543D01*
X107598269Y-86619781D01*
X107455412Y-86667400D01*
X107360174Y-86667400D01*
X108122079Y-85667400D02*
X108741126Y-85667400D01*
X108407793Y-86048353D01*
X108550650Y-86048353D01*
X108645888Y-86095972D01*
X108693507Y-86143591D01*
X108741126Y-86238829D01*
X108741126Y-86476924D01*
X108693507Y-86572162D01*
X108645888Y-86619781D01*
X108550650Y-86667400D01*
X108264936Y-86667400D01*
X108169698Y-86619781D01*
X108122079Y-86572162D01*
X77647233Y-122643400D02*
X77171042Y-122643400D01*
X77171042Y-121643400D01*
X78504376Y-122643400D02*
X77932947Y-122643400D01*
X78218661Y-122643400D02*
X78218661Y-121643400D01*
X78123423Y-121786258D01*
X78028185Y-121881496D01*
X77932947Y-121929115D01*
X101919473Y-122752620D02*
X101443282Y-122752620D01*
X101443282Y-121752620D01*
X102205187Y-121847859D02*
X102252806Y-121800240D01*
X102348044Y-121752620D01*
X102586140Y-121752620D01*
X102681378Y-121800240D01*
X102728997Y-121847859D01*
X102776616Y-121943097D01*
X102776616Y-122038335D01*
X102728997Y-122181192D01*
X102157568Y-122752620D01*
X102776616Y-122752620D01*
X91822620Y-108350346D02*
X91346430Y-108683680D01*
X91822620Y-108921775D02*
X90822620Y-108921775D01*
X90822620Y-108540822D01*
X90870240Y-108445584D01*
X90917859Y-108397965D01*
X91013097Y-108350346D01*
X91155954Y-108350346D01*
X91251192Y-108397965D01*
X91298811Y-108445584D01*
X91346430Y-108540822D01*
X91346430Y-108921775D01*
X91822620Y-107397965D02*
X91822620Y-107969394D01*
X91822620Y-107683680D02*
X90822620Y-107683680D01*
X90965478Y-107778918D01*
X91060716Y-107874156D01*
X91108335Y-107969394D01*
X76726040Y-95414004D02*
X76726040Y-94842576D01*
X77726040Y-95128290D02*
X76726040Y-95128290D01*
X77726040Y-93985433D02*
X77726040Y-94556861D01*
X77726040Y-94271147D02*
X76726040Y-94271147D01*
X76868898Y-94366385D01*
X76964136Y-94461623D01*
X77011755Y-94556861D01*
X99733360Y-95414004D02*
X99733360Y-94842576D01*
X100733360Y-95128290D02*
X99733360Y-95128290D01*
X99828599Y-94556861D02*
X99780980Y-94509242D01*
X99733360Y-94414004D01*
X99733360Y-94175909D01*
X99780980Y-94080671D01*
X99828599Y-94033052D01*
X99923837Y-93985433D01*
X100019075Y-93985433D01*
X100161932Y-94033052D01*
X100733360Y-94604480D01*
X100733360Y-93985433D01*
M02*
